<svg width="468" height="337" viewBox="0 0 468 337" fill="none" xmlns="http://www.w3.org/2000/svg">
<mask id="mask0_1_127" style="mask-type:alpha" maskUnits="userSpaceOnUse" x="0" y="0" width="468" height="337">
<rect width="468" height="337" fill="#D9D9D9"/>
</mask>
<g mask="url(#mask0_1_127)">
<path d="M333.744 166.993L351.313 265.92C351.313 265.92 298.576 268.301 264.864 278.144C244.839 283.985 204.689 313.392 172.257 327.804C151.443 337.046 133.783 340.124 126.624 326.857C126.158 326.013 125.737 325.089 125.364 324.104C125.364 324.104 121.665 309.323 156.701 293.387C191.439 277.62 179.387 250.101 196.417 224.599C196.417 224.599 166.63 215.225 139.82 181.618C139.82 181.618 72.5514 225.157 58.4341 202.816C57.6919 201.645 57.1091 200.526 56.667 199.459C52.2549 188.595 63.3782 183.166 79.3327 174.833C91.5525 168.47 106.632 160.385 119.683 146.907C127.494 138.845 139.221 143.824 151.84 153.172C150.572 151.911 110.237 111.954 93.8907 98.7035C82.6349 89.5857 80.0815 79.6103 81.8045 72.7533C82.6152 69.4954 84.3868 66.9594 86.6455 65.5379C88.9228 64.1139 97.5065 67.6005 109.205 74.566C133.203 88.8502 170.296 117.762 192.646 148.549C186.217 138.946 126.282 49.6392 110.313 25.2986C109.09 23.4492 108.187 21.7011 107.523 20.0291C106.842 18.6322 106.419 17.3087 106.19 16.0129C105.308 11.0616 107.457 6.83684 110.266 3.61182C110.879 2.87254 111.539 2.19939 112.207 1.5797C116.32 -0.789036 121.644 0.293316 124.364 4.06312L131.487 13.8615L134.345 17.7941L134.35 17.8297C135.34 19.0022 136.337 20.2281 137.355 21.5966C151.769 41.188 175.037 71.7568 188.069 88.1571C184.275 79.5534 180.396 70.7613 176.889 62.4271C173.378 54.0751 170.256 46.1604 168.024 39.2682C168.024 39.2682 159.319 21.1787 168.09 10.8743C168.511 10.3797 168.982 9.96908 169.495 9.58897C170.948 8.62443 172.721 8.16106 174.47 8.42851C174.507 8.42337 174.526 8.4208 174.568 8.45129C176.826 8.83007 178.668 10.3756 179.576 12.414L184.997 24.3205L188.569 32.1912C193.905 42.2365 199.386 55.5893 205.747 69.4934C220.234 101.04 234.684 132.591 258.816 156.149C282.951 179.724 333.845 167.033 333.845 167.033L333.744 166.993Z" fill="#F29E8A"/>
<path d="M365.158 265.593L346.547 160.76C345.922 157.243 342.438 154.885 338.765 155.494L316.922 159.116C313.249 159.725 310.777 163.071 311.402 166.588L330.013 271.42C330.638 274.938 334.122 277.296 337.795 276.687L359.638 273.065C363.311 272.456 365.783 269.11 365.158 265.593Z" fill="#FFF2CA"/>
<path d="M467 126.956L467 264.956L358.614 284.515C356.802 284.816 354.823 282.276 354.212 278.835L331.654 151.773C331.046 148.349 332.023 145.301 333.845 144.999L423.34 130.159L467 126.956Z" fill="black"/>
<path d="M172.258 327.804C151.444 337.046 133.784 340.124 126.625 326.857C133.947 321.917 141.559 317.01 150.252 315.063C154.185 314.174 158.443 313.949 162.113 315.532C167.185 317.741 170.023 322.822 172.258 327.804Z" fill="#FFE4DE"/>
<path d="M83.2126 187.753C82.2788 189.918 80.2007 191.406 78.1361 192.728C73.9992 195.318 69.5465 197.57 64.7422 198.725C62.1021 199.363 59.3696 199.632 56.6697 199.477C52.2575 188.614 63.3808 183.184 79.3353 174.851C80.263 176.377 81.297 177.853 82.1342 179.41C83.5199 181.982 84.3572 185.085 83.1966 187.773L83.2126 187.753Z" fill="#FFE4DE"/>
<path d="M109.183 74.5509C108.208 76.0495 106.8 77.317 105.419 78.5081C103.125 80.4618 100.567 82.4336 97.5316 82.8351C93.8286 83.347 90.2175 81.3914 87.5188 78.9279C85.4331 77.016 83.7173 74.7802 81.7647 72.7408C82.5754 69.4829 84.3469 66.9469 86.6057 65.5254C88.883 64.1014 97.4667 67.5879 109.165 74.5535L109.183 74.5509Z" fill="#FFE4DE"/>
<path d="M131.444 13.8311C129.49 15.7741 126.658 16.9112 123.846 16.7725C120.06 16.5869 116.686 14.3076 114.418 11.4207C112.551 9.06036 111.333 6.33753 110.205 3.58401C110.818 2.84472 111.478 2.17157 112.146 1.55188C116.259 -0.816853 121.583 0.265499 124.304 4.0353L131.426 13.8337L131.444 13.8311Z" fill="#FFE4DE"/>
<path d="M184.896 24.28C183.078 24.6951 181.262 25.0006 179.396 24.9676C176.898 24.8947 174.33 24.0861 172.693 22.2576C171.417 20.8156 170.873 18.927 170.45 17.0943C169.915 14.6225 169.563 12.1073 169.416 9.56375C170.869 8.59921 172.642 8.13584 174.39 8.4033C174.427 8.39815 174.446 8.39558 174.489 8.42608C176.747 8.80485 178.589 10.3504 179.497 12.3887L184.917 24.2953L184.896 24.28Z" fill="#FFE4DE"/>
<circle cx="373.996" cy="174.109" r="11.3429" transform="rotate(-8.94195 373.996 174.109)" fill="#F0B90B"/>
<circle cx="408.099" cy="168.743" r="11.3429" transform="rotate(-8.94195 408.099 168.743)" fill="#F0B90B"/>
<path d="M138.96 305.028C140.605 304.333 141.755 302.813 141.976 301.04L149.098 243.872C149.319 242.1 148.577 240.344 147.152 239.266L101.204 204.514C99.7793 203.437 97.888 203.201 96.2424 203.896L43.1723 226.313C41.5268 227.008 40.377 228.528 40.1562 230.3L33.0342 287.469C32.8134 289.241 33.555 290.997 34.9797 292.075L80.9279 326.827C82.3526 327.904 84.244 328.14 85.8895 327.445L138.96 305.028Z" fill="#F0B90B"/>
<path fill-rule="evenodd" clip-rule="evenodd" d="M81.2818 226.796L90.7825 223.016L89.1289 236.289L97.8139 237.371L99.4675 224.098L107.75 230.094L106.645 238.967L108.073 239.64C108.866 240.016 110.156 240.79 110.966 241.366C111.909 242.058 112.994 243.124 114.141 244.535C115.309 245.948 116.101 247.175 116.559 248.222C116.935 249.081 117.39 250.484 117.58 251.32C117.77 252.156 117.935 253.523 117.98 254.34C118.021 255.197 117.887 256.606 117.691 257.671C117.473 258.753 117.042 260.185 116.585 261.157C116.179 262.057 115.55 263.227 115.193 263.737C114.812 264.264 114.188 265.057 113.776 265.501C113.364 265.945 112.693 266.614 111.467 267.689L112.633 268.943C113.264 269.616 114.166 270.798 114.637 271.569C115.11 272.321 115.759 273.689 116.086 274.601C116.414 275.514 116.797 276.987 116.938 277.876C117.121 279.107 117.108 280.056 116.875 281.928C116.641 283.8 116.421 284.723 115.942 285.872C115.587 286.699 114.9 287.999 114.387 288.747C113.874 289.496 113.002 290.595 112.425 291.177C111.87 291.761 110.792 292.656 110.055 293.179C109.3 293.679 108.189 294.332 107.585 294.633C106.98 294.934 105.77 295.378 104.941 295.631C104.09 295.881 102.52 296.181 99.4782 296.495L98.4214 304.978L88.9711 308.353L90.5742 295.485L81.8892 294.403L80.2861 307.271L71.9527 301.681L72.9974 293.295L59.7631 291.646L60.7834 283.456L69.584 284.453L74.7587 242.916L65.9824 241.723L67.0028 233.533L80.2371 235.182L81.2818 226.796ZM82.573 252.504L81.5855 260.599C96.0277 262.498 99.633 262.887 100.519 262.859C101.278 262.835 102.412 262.659 103.046 262.461C103.657 262.28 104.755 261.723 105.466 261.238C106.155 260.769 107.001 260.043 107.324 259.647C107.625 259.249 108.102 258.457 108.361 257.895C108.62 257.333 108.896 256.298 108.983 255.596C109.071 254.894 109.057 253.823 108.944 253.215C108.831 252.606 108.563 251.722 108.368 251.262C108.153 250.799 107.549 249.912 106.997 249.289C106.465 248.668 105.636 247.911 105.15 247.593C104.663 247.295 103.691 246.837 102.963 246.608C101.974 246.286 99.4404 245.892 92.6992 245.052C85.7098 244.181 83.7381 243.995 83.6517 244.182C83.5958 244.294 83.1062 248.055 82.573 252.504ZM79.4633 277.465L78.4758 285.561C99.2164 288.145 99.8392 288.203 101.064 287.979C101.773 287.849 102.847 287.488 103.452 287.187C104.056 286.886 104.999 286.231 105.54 285.764C106.084 285.277 106.802 284.396 107.151 283.786C107.661 282.899 107.837 282.327 108.024 280.825C108.211 279.324 108.181 278.726 107.904 277.741C107.716 277.064 107.235 276.034 106.846 275.45C106.436 274.865 105.74 274.045 105.267 273.63C104.793 273.214 103.882 272.606 103.231 272.267C102.067 271.667 101.922 271.649 91.363 270.274C82.7242 269.158 80.6515 268.939 80.5445 269.124C80.4861 269.255 79.9966 273.017 79.4633 277.465Z" fill="#130F01"/>
</g>
</svg>
