<svg width="540" height="327" viewBox="0 0 540 327" fill="none" xmlns="http://www.w3.org/2000/svg">
<path d="M270.181 327C419.122 327 539.863 321.483 539.863 314.678C539.863 307.873 419.122 302.356 270.181 302.356C121.24 302.356 0.5 307.873 0.5 314.678C0.5 321.483 121.24 327 270.181 327Z" fill="#32302A" fill-opacity="0.12"/>
<path d="M507.18 237.136V85.6402L375.98 9.89099L244.779 85.6402V237.136L375.98 312.885L507.18 237.136Z" fill="#F0B90B"/>
<path fill-rule="evenodd" clip-rule="evenodd" d="M341.288 72.0766L362.706 60.3032V92.2749H383.624V60.3032L405.042 72.0766V93.4493L408.627 94.6236C410.619 95.2819 413.908 96.738 416 97.8649C418.441 99.2263 421.328 101.435 424.467 104.44C427.656 107.447 429.898 110.122 431.291 112.471C432.438 114.396 433.932 117.589 434.628 119.517C435.323 121.442 436.121 124.636 436.47 126.563C436.819 128.582 436.919 131.963 436.769 134.549C436.57 137.179 435.971 140.702 435.176 143.143C434.48 145.397 433.333 148.357 432.635 149.673C431.89 151.035 430.643 153.102 429.795 154.276C428.95 155.45 427.554 157.236 424.966 160.148L428.103 162.778C429.795 164.187 432.286 166.723 433.63 168.416C434.974 170.059 436.916 173.113 437.964 175.18C439.008 177.247 440.352 180.628 440.953 182.695C441.751 185.56 441.998 187.814 441.998 192.324C441.998 196.834 441.748 199.088 440.953 201.953C440.355 204.02 439.11 207.309 438.113 209.234C437.116 211.158 435.373 214.023 434.176 215.574C433.032 217.122 430.74 219.566 429.145 221.022C427.502 222.431 425.061 224.311 423.717 225.203C422.37 226.096 419.633 227.505 417.738 228.35C415.796 229.195 412.16 230.369 405.037 232.012V252.445L383.619 263.241V232.247H362.701V263.241L341.283 252.445V232.247H309.406V212.52L330.574 212.285V112.236L309.406 112.002V92.2749H341.283V72.0766H341.288ZM351.947 132.669L351.997 152.162C386.811 152.396 395.478 152.256 397.569 151.927C399.362 151.646 402.003 150.895 403.446 150.237C404.84 149.626 407.281 147.983 408.824 146.619C410.318 145.305 412.11 143.33 412.759 142.298C413.357 141.266 414.255 139.246 414.701 137.835C415.15 136.426 415.499 133.891 415.499 132.198C415.499 130.505 415.15 127.972 414.701 126.56C414.252 125.152 413.355 123.132 412.759 122.097C412.11 121.065 410.417 119.138 408.924 117.824C407.48 116.51 405.289 114.959 404.042 114.348C402.798 113.785 400.357 112.987 398.564 112.658C396.123 112.189 389.997 111.999 373.761 111.999C357.524 111.999 352.194 112.139 352.044 112.61C351.944 112.892 351.895 121.958 351.944 132.667L351.947 132.669ZM351.947 192.79L351.997 212.283C401.953 212.283 403.449 212.236 406.286 211.343C407.929 210.827 410.37 209.652 411.717 208.76C413.06 207.867 415.102 206.035 416.249 204.766C417.396 203.452 418.84 201.15 419.486 199.599C420.433 197.345 420.682 195.937 420.682 192.319C420.682 188.701 420.433 187.292 419.486 185.039C418.84 183.49 417.394 181.186 416.299 179.92C415.152 178.651 413.26 176.913 412.016 176.068C410.772 175.222 408.428 174.048 406.785 173.437C403.845 172.358 403.499 172.358 378.047 172.215C357.228 172.123 352.246 172.215 352.047 172.687C351.947 173.013 351.897 182.079 351.947 192.79Z" fill="#130F01"/>
<path d="M271.43 47.4103H238.616C230.486 47.4103 223.895 54.0009 223.895 62.1308V105.856C223.895 113.986 230.486 120.576 238.616 120.576H271.43C279.56 120.576 286.151 113.986 286.151 105.856V62.1308C286.151 54.0009 279.56 47.4103 271.43 47.4103Z" fill="white"/>
<path d="M264.409 11.8582H326.665V59.7596C326.665 73.7047 315.342 85.0268 301.397 85.0268H264.409V11.8582Z" fill="white"/>
<path d="M323.7 0H375.935V28.8601C375.935 39.4217 367.36 47.9987 356.796 47.9987H323.7V0Z" fill="white"/>
<path d="M145.155 291.884L142.998 301.234L156.402 306.076C159.204 307.403 160.992 310.225 160.992 313.327H125.004L127.956 291.884H145.155Z" fill="#0D1519"/>
<path d="M80.8267 291.493L77.4583 301.566L92.0741 305.685C94.8765 307.011 96.6642 309.834 96.6642 312.935H58.2523L64.9419 291.493H80.8242H80.8267Z" fill="#0D1519"/>
<path d="M129.79 212.118L112.262 166.461C109.288 165.401 106.244 164.214 103.257 162.813C87.444 155.398 78.0218 138.82 79.6375 121.429L125.624 105.761L159.074 201.16C160.665 205.696 161.189 210.538 160.603 215.307L150.959 293.926H122.5L129.79 212.113V212.118Z" fill="black"/>
<path d="M121.62 134.103L128.04 139.441C128.04 139.441 173.03 98.7001 165.43 60.3131C165.43 60.3131 164.54 98.0718 121.62 134.103Z" fill="#0D1519"/>
<path d="M83.8262 149.354C73.651 131.29 78.9867 114.989 78.9867 114.989L108.5 121.861L124.347 125.461L114.16 216.255L85.1726 293.929H59.0627L85.5316 214.796L83.8287 149.354H83.8262Z" fill="#434343"/>
<path d="M105.578 125.438C105.578 125.438 92.518 134.541 77.815 121.297C77.815 121.297 83.0833 133.36 95.1784 133.235C107.273 133.11 112.205 128.066 112.205 128.066L105.578 125.438Z" fill="#0D1519"/>
<path d="M165.43 60.3132L200.608 99.877L258.847 96.9498L260.146 105.761L218.335 117.066C207.993 119.861 197.222 120.721 186.568 119.597L155.521 89.3104L165.43 60.3107V60.3132Z" fill="black"/>
<path d="M179.766 27.9675L177.535 46.1387C177.108 49.6144 173.695 52.0554 169.913 51.5916C169.182 51.5018 168.469 51.3049 167.803 51.0107L165.462 49.9734L164.31 59.3583L152.878 57.9545L154.457 45.099L155.008 40.6086L156.905 25.16L179.771 27.9675H179.766Z" fill="white"/>
<mask id="mask0_1_3" style="mask-type:luminance" maskUnits="userSpaceOnUse" x="152" y="25" width="28" height="35">
<path d="M179.766 27.9675L177.535 46.1387C177.108 49.6144 173.695 52.0554 169.913 51.5916C169.182 51.5018 168.469 51.3049 167.803 51.0107L165.462 49.9734L164.31 59.3583L152.878 57.9545L154.457 45.099L155.008 40.6086L156.905 25.16L179.771 27.9675H179.766Z" fill="white"/>
</mask>
<g mask="url(#mask0_1_3)">
<path d="M162.891 26.9253C162.891 26.9253 167.701 35.9486 181.858 38.1302L183.174 28.0099L163.208 25.5565L162.891 26.9228V26.9253Z" fill="#EBEBEB"/>
</g>
<path d="M165.457 49.9734L159.713 46.7969C159.713 46.7969 159.775 52.5814 164.959 54.0425L165.46 49.9709L165.457 49.9734Z" fill="#EBEBEB"/>
<path d="M188.687 20.2457L164.288 15.5209C161.929 15.0646 159.531 16.0968 158.244 18.1264L156.506 20.864C154.674 21.6419 153.527 23.487 153.641 25.4741L155.098 39.8231L160.66 35.8812C160.027 35.577 159.443 34.9761 159.097 34.1608C158.479 32.7023 158.847 31.1489 159.925 30.6902C161.002 30.2339 162.376 31.0467 162.994 32.5053C163.021 32.5676 163.036 32.6324 163.059 32.6948L165.026 28.4836L179.48 30.2588C179.48 30.2588 188.351 30.2339 188.682 20.2432L188.687 20.2457Z" fill="black"/>
<path d="M155.055 51.6863L154.242 51.7237C141.339 52.3296 129.591 59.3408 122.941 70.4161C115.217 83.2791 93.4603 105.462 83.7813 116.792L123.737 132.639C123.737 132.639 172.239 104.562 165.43 60.3107L155.055 51.6838V51.6863Z" fill="white"/>
<path d="M163.171 58.6377C163.171 58.6377 147.097 80.7509 141.392 126.478L147.234 141.166L154.297 128.101C154.297 128.101 160.448 77.2228 165.432 60.3132L163.173 58.6377H163.171Z" fill="#FFC500"/>
<path d="M259.989 104.687C259.989 104.687 262.973 104.794 265.838 103.884L267.656 103.248L267.331 97.1892L263.823 96.6656L259.627 102.226L259.989 104.684V104.687Z" fill="#D5E4F9"/>
<path d="M267.678 111.207L262.175 89.3104L266.736 88.5998L268.154 111.132C268.172 111.424 267.753 111.491 267.681 111.207H267.678Z" fill="#FF9700"/>
<path d="M268.183 84.1858L259.535 85.5322L260.175 89.644L268.823 88.2976L268.183 84.1858Z" fill="#FF9700"/>
<path d="M266.733 88.6022L263.327 89.1333L266.81 89.7965L266.733 88.6022Z" fill="#FFC500"/>
<path d="M267.157 97.1917C267.157 97.1917 265.446 98.2713 265.576 99.2288C265.706 100.186 266.277 103.555 266.743 103.555C267.209 103.555 268.944 103.113 269.438 102.338C269.929 101.56 269.089 96.5135 269.089 96.5135L267.157 97.1917Z" fill="white"/>
<path d="M259.001 97.9995C259.001 97.9995 262.584 94.3767 263.292 94.2321C264 94.0875 269.912 95.1247 269.882 95.2967C269.852 95.4688 269.251 97.0994 268.194 97.244C267.134 97.3861 264.364 97.6654 264.364 97.6654C264.364 97.6654 264.938 103.866 259.831 103.642L258.999 97.9995H259.001Z" fill="white"/>
<path d="M266.853 97.4036C266.853 97.4036 268.753 97.4136 269.137 96.6681C269.137 96.6681 269.064 97.3463 268.329 97.6106C267.593 97.8749 266.257 97.9098 266.257 97.9098C266.257 97.9098 266.551 97.6156 266.853 97.4036Z" fill="#D5E4F9"/>
<path d="M224.245 61.7219C224.245 61.7219 226.115 60.0763 226.86 59.8744C227.606 59.6724 231.732 61.4028 231.772 61.7219C231.812 62.0411 232.103 63.0159 232.103 63.0159L224.242 61.7219H224.245Z" fill="#D5E4F9"/>
<path d="M243.42 41.1446L241.466 53.7283C241.329 54.6109 240.503 55.2143 239.621 55.0772L219.367 51.9306C218.485 51.7935 217.881 50.9682 218.019 50.0856L219.973 37.5019C220.11 36.6192 220.936 36.0158 221.818 36.153L242.072 39.2995C242.954 39.4367 243.558 40.2619 243.42 41.1446Z" fill="#FF9700"/>
<path d="M231.099 53.7532L225.05 92.6788C224.985 93.0902 224.601 93.3719 224.19 93.3071L222.469 93.0403C222.058 92.9755 221.776 92.5915 221.841 92.1801L227.89 53.2546L231.101 53.7532H231.099Z" fill="#FF9700"/>
<path d="M227.885 53.2571L227.642 54.824L230.852 55.3227L231.095 53.7558L227.885 53.2571Z" fill="#0D1519"/>
<path d="M155.055 51.6863C155.055 51.6863 160.77 57.775 162.348 61.6421L178.153 100.398L218.627 66.6786L226.548 74.9614L189.767 117.654C185.885 121.908 180.243 124.107 174.508 123.601C167.953 123.022 162.201 119.001 159.408 113.042L145.032 82.364C135.772 96.6681 122.625 113.59 106.795 124.663C92.6102 134.586 72.1152 117.258 72.1152 117.258C72.1152 117.258 101.611 93.3595 104.563 90.1955C104.563 90.1955 132.693 45.862 155.055 51.6863Z" fill="#434343"/>
<path d="M145.029 82.3639L141.237 71.7324C141.237 71.7324 139.277 79.5888 141.968 86.9715L145.029 82.3639Z" fill="#0D1519"/>
<path d="M219.844 67.9477C219.844 67.9477 222.532 62.5597 224.244 61.7219C225.957 60.8842 231.886 61.7818 232.385 63.4772C232.884 65.1727 233.632 70.1568 231.886 71.3012C230.141 72.4481 225.02 73.3607 225.02 73.3607L219.841 67.9477H219.844Z" fill="white"/>
<path d="M142.275 238.929C142.242 238.65 142.384 238.383 142.524 238.141C143.456 236.538 144.543 235.024 145.765 233.628C145.99 233.371 146.229 233.114 146.541 232.977C146.825 232.855 147.141 232.845 147.451 232.838C149.944 232.778 152.472 232.723 154.886 233.346C155.172 233.421 155.467 233.511 155.686 233.708C155.888 233.89 156.005 234.144 156.117 234.389C156.334 234.865 156.554 235.341 156.771 235.817C157.075 236.483 157.386 237.193 157.289 237.919C157.227 238.378 157.005 238.797 156.786 239.203C156.417 239.891 156.045 240.582 155.676 241.27C155.227 242.108 154.696 243.015 153.791 243.31C153.36 243.449 152.896 243.429 152.442 243.407C150.52 243.312 147.919 243.636 146.099 242.866C144.945 242.377 142.422 240.153 142.27 238.926L142.275 238.929Z" fill="#FFC500"/>
<mask id="mask1_1_3" style="mask-type:luminance" maskUnits="userSpaceOnUse" x="142" y="232" width="16" height="12">
<path d="M142.275 238.929C142.242 238.65 142.384 238.383 142.524 238.141C143.456 236.538 144.543 235.024 145.765 233.628C145.99 233.371 146.229 233.114 146.541 232.977C146.825 232.855 147.141 232.845 147.451 232.838C149.944 232.778 152.472 232.723 154.886 233.346C155.172 233.421 155.467 233.511 155.686 233.708C155.888 233.89 156.005 234.144 156.117 234.389C156.334 234.865 156.554 235.341 156.771 235.817C157.075 236.483 157.386 237.193 157.289 237.919C157.227 238.378 157.005 238.797 156.786 239.203C156.417 239.891 156.045 240.582 155.676 241.27C155.227 242.108 154.696 243.015 153.791 243.31C153.36 243.449 152.896 243.429 152.442 243.407C150.52 243.312 147.919 243.636 146.099 242.866C144.945 242.377 142.422 240.153 142.27 238.926L142.275 238.929Z" fill="white"/>
</mask>
<g mask="url(#mask1_1_3)">
<path d="M144.08 232.409C145.149 233.077 146.229 233.725 147.318 234.356C147.727 234.593 148.144 234.83 148.6 234.957C149.246 235.139 149.931 235.094 150.597 235.004C151.834 234.837 153.051 234.518 154.212 234.059C154.227 233.202 154.252 232.347 154.267 231.491C151.874 231.364 149.478 231.234 147.084 231.107C146.451 231.072 145.78 231.047 145.217 231.337C144.763 231.571 144.399 232.01 144.082 232.409H144.08Z" fill="#FF9700"/>
</g>
<path d="M154.933 238.024C154.527 237.677 154.093 237.341 153.839 236.872C153.544 236.333 153.522 235.692 153.542 235.079C153.632 232.329 154.731 229.262 157.294 228.257C158.848 227.649 160.596 227.938 162.209 228.355C163.303 228.636 164.4 228.983 165.333 229.621C167.39 231.03 168.282 233.576 169.05 235.947C169.215 236.453 169.377 237.006 169.192 237.505C169.05 237.892 168.724 238.173 168.41 238.438C167.238 239.427 166.068 240.415 164.896 241.405C164.425 241.804 163.932 242.212 163.333 242.362C162.959 242.457 162.57 242.442 162.184 242.427C160.81 242.375 159.162 242.649 158.097 241.649C157.589 241.17 157.237 240.455 156.793 239.916C156.305 239.325 155.26 238.677 154.933 238.024Z" fill="#FF9700"/>
<path d="M188.75 240.026C188.775 240.268 188.795 240.52 188.717 240.749C188.618 241.046 188.371 241.265 188.134 241.469C187.214 242.265 186.296 243.063 185.376 243.858C185.085 244.11 184.778 244.372 184.406 244.469C184.045 244.564 183.666 244.496 183.302 244.414C182.1 244.142 180.933 243.721 179.839 243.162C179.178 242.826 178.527 242.424 178.064 241.843C177.727 241.422 177.505 240.923 177.293 240.427C176.874 239.455 176.48 238.473 176.106 237.483C175.827 236.742 175.558 235.987 175.49 235.196C175.363 233.7 176.049 230.217 177.709 229.599C178.168 229.429 178.677 229.549 179.151 229.679C181.018 230.187 183.449 230.621 185.032 231.771C187.585 233.623 188.461 237.104 188.75 240.026Z" fill="#FF9700"/>
<path d="M162.588 228.178C162.348 227.966 162.106 227.741 161.962 227.457C161.795 227.13 161.765 226.751 161.765 226.385C161.757 224.505 162.376 222.687 162.992 220.912C163.43 219.648 164.024 218.229 165.293 217.806C166.033 217.559 166.841 217.718 167.594 217.925C170.753 218.788 173.7 220.418 176.106 222.64C176.388 222.899 176.677 223.191 176.76 223.568C176.844 223.947 176.702 224.333 176.558 224.692C175.929 226.25 175.189 227.764 174.346 229.217C173.259 231.095 171.554 233.536 169.128 232.603C166.764 231.693 164.46 229.848 162.588 228.183V228.178Z" fill="#FFC500"/>
<mask id="mask2_1_3" style="mask-type:luminance" maskUnits="userSpaceOnUse" x="161" y="217" width="16" height="16">
<path d="M162.588 228.178C162.348 227.966 162.106 227.741 161.962 227.457C161.795 227.13 161.765 226.751 161.765 226.385C161.757 224.505 162.376 222.687 162.992 220.912C163.43 219.648 164.024 218.229 165.293 217.806C166.033 217.559 166.841 217.718 167.594 217.925C170.753 218.788 173.7 220.418 176.106 222.64C176.388 222.899 176.677 223.191 176.76 223.568C176.844 223.947 176.702 224.333 176.558 224.692C175.929 226.25 175.189 227.764 174.346 229.217C173.259 231.095 171.554 233.536 169.128 232.603C166.764 231.693 164.46 229.848 162.588 228.183V228.178Z" fill="white"/>
</mask>
<g mask="url(#mask2_1_3)">
<path d="M161.763 222.568C163.538 222.894 164.727 224.505 166.021 225.764C166.141 225.879 166.268 225.999 166.428 226.043C166.567 226.083 166.714 226.063 166.857 226.043C167.629 225.934 168.402 225.824 169.175 225.714C169.973 225.6 170.781 225.487 171.584 225.565C173.349 225.734 174.905 226.811 176.144 228.08C175.344 229.479 174.381 230.878 172.97 231.653C171.808 232.289 170.417 232.404 169.108 232.207C167.799 232.01 166.552 231.519 165.336 231.003C164.104 230.479 162.85 229.896 161.945 228.908C161.04 227.921 160.563 226.425 161.127 225.208C161.493 224.418 161.661 223.435 161.763 222.573V222.568Z" fill="#FF9700"/>
</g>
<path d="M185.957 236.919C185.892 236.455 185.865 235.974 186.005 235.525C186.147 235.069 186.446 234.685 186.743 234.309C187.58 233.244 188.45 232.154 189.63 231.491C191.211 230.604 193.178 230.611 194.901 231.172C196.624 231.733 198.135 232.803 199.526 233.962C199.795 234.187 200.072 234.433 200.174 234.767C200.264 235.064 200.201 235.381 200.139 235.685C199.683 237.902 199.02 240.407 197.005 241.442C196.033 241.943 194.896 241.998 193.801 241.978C192.086 241.943 189.69 241.968 188.104 241.223C186.683 240.554 186.152 238.335 185.957 236.919Z" fill="#FFC500"/>
<mask id="mask3_1_3" style="mask-type:luminance" maskUnits="userSpaceOnUse" x="185" y="230" width="16" height="12">
<path d="M185.957 236.919C185.892 236.455 185.865 235.974 186.005 235.525C186.147 235.069 186.446 234.685 186.743 234.309C187.58 233.244 188.45 232.154 189.63 231.491C191.211 230.604 193.178 230.611 194.901 231.172C196.624 231.733 198.135 232.803 199.526 233.962C199.795 234.187 200.072 234.433 200.174 234.767C200.264 235.064 200.201 235.381 200.139 235.685C199.683 237.902 199.02 240.407 197.005 241.442C196.033 241.943 194.896 241.998 193.801 241.978C192.086 241.943 189.69 241.968 188.104 241.223C186.683 240.554 186.152 238.335 185.957 236.919Z" fill="white"/>
</mask>
<g mask="url(#mask3_1_3)">
<path d="M193.158 230.105C192.375 231.175 191.568 232.269 190.456 232.995C189.406 233.678 188.119 233.987 186.875 233.855C186.78 233.845 186.681 233.83 186.603 233.775C186.461 233.673 186.436 233.473 186.449 233.299C186.504 232.521 187.047 231.843 187.708 231.431C188.369 231.02 189.144 230.833 189.905 230.666C190.78 230.476 191.695 230.307 192.56 230.536" fill="#FF9700"/>
</g>
<path d="M178.423 227.579C177.944 226.348 177.864 224.894 178.525 223.752C178.862 223.174 179.365 222.707 179.916 222.326C181.554 221.189 183.581 220.768 185.564 220.551C186.172 220.483 186.79 220.436 187.389 220.556C188.002 220.678 188.568 220.972 189.099 221.306C190.475 222.174 191.672 223.328 192.585 224.675C193.206 225.59 193.712 226.672 193.552 227.766C193.452 228.457 193.096 229.088 192.672 229.644C191.283 231.481 189.102 232.696 186.808 232.91C183.058 233.262 179.767 231.045 178.42 227.579H178.423Z" fill="#F0B90B"/>
<path d="M150.936 232.93C150.702 232.86 150.463 232.785 150.278 232.626C150.041 232.421 149.931 232.112 149.829 231.815C149.438 230.664 149.046 229.512 148.655 228.362C148.53 227.996 148.406 227.617 148.455 227.233C148.503 226.864 148.71 226.535 148.924 226.23C149.627 225.221 150.458 224.298 151.39 223.493C151.951 223.007 152.567 222.555 153.28 222.346C153.799 222.194 154.345 222.176 154.883 222.166C155.94 222.146 157 222.149 158.057 222.176C158.848 222.196 159.65 222.234 160.406 222.468C161.84 222.914 164.807 224.862 164.754 226.632C164.739 227.121 164.435 227.547 164.138 227.936C162.964 229.474 161.648 231.564 159.984 232.596C157.307 234.261 153.751 233.763 150.939 232.927L150.936 232.93Z" fill="#F0B90B"/>
<path d="M166.138 237.966C165.899 237.754 165.657 237.53 165.512 237.246C165.345 236.919 165.315 236.54 165.315 236.174C165.308 234.294 165.926 232.476 166.542 230.701C166.981 229.437 167.574 228.018 168.843 227.594C169.584 227.347 170.392 227.507 171.145 227.714C174.304 228.577 177.251 230.207 179.657 232.429C179.939 232.688 180.228 232.98 180.31 233.356C180.395 233.735 180.253 234.122 180.108 234.481C179.48 236.039 178.739 237.553 177.897 239.006C176.809 240.884 175.104 243.325 172.678 242.392C170.314 241.482 168.011 239.637 166.138 237.971V237.966Z" fill="#F0B90B"/>
<path d="M191.689 313.327H147.657C145.633 313.327 143.908 311.858 143.586 309.859L132.186 239.153H206.36L195.768 309.814C195.467 311.833 193.731 313.327 191.689 313.327Z" fill="#003859"/>
<mask id="mask4_1_3" style="mask-type:luminance" maskUnits="userSpaceOnUse" x="132" y="239" width="75" height="75">
<path d="M191.689 313.327H147.657C145.633 313.327 143.908 311.858 143.586 309.859L132.186 239.153H206.36L195.768 309.814C195.467 311.833 193.731 313.327 191.689 313.327Z" fill="white"/>
</mask>
<g mask="url(#mask4_1_3)">
<path d="M131.334 246.823C156.359 246.095 181.783 246.112 206.811 246.74L209.245 246.823L206.811 246.905C181.783 247.533 156.359 247.551 131.334 246.823Z" fill="#8499A4"/>
<path d="M132.189 254.741C157.214 254.013 182.639 254.031 207.666 254.659L210.102 254.741L207.666 254.824C182.639 255.452 157.214 255.47 132.189 254.741Z" fill="#8499A4"/>
<path d="M133.042 262.663C158.067 261.935 183.491 261.952 208.519 262.58L210.955 262.663L208.519 262.745C183.491 263.373 158.067 263.391 133.042 262.663Z" fill="#8499A4"/>
<path d="M133.894 270.581C158.92 269.853 184.344 269.871 209.372 270.499L211.805 270.581L209.372 270.664C184.344 271.292 158.92 271.309 133.894 270.581Z" fill="#8499A4"/>
<path d="M134.884 278.303C159.91 277.575 185.334 277.593 210.362 278.221L212.798 278.303L210.362 278.386C185.334 279.014 159.91 279.031 134.884 278.303Z" fill="#8499A4"/>
<path d="M135.874 286.025C160.899 285.297 186.324 285.314 211.352 285.943L213.788 286.025L211.352 286.107C186.324 286.736 160.899 286.753 135.874 286.025Z" fill="#8499A4"/>
<path d="M136.864 293.744C161.889 293.016 187.314 293.034 212.341 293.662L214.777 293.744L212.341 293.827C187.314 294.455 161.889 294.472 136.864 293.744Z" fill="#8499A4"/>
<path d="M137.856 301.466C162.882 300.738 188.306 300.755 213.334 301.384L215.77 301.466L213.334 301.548C188.306 302.177 162.882 302.194 137.856 301.466Z" fill="#8499A4"/>
<path d="M138.846 309.188C163.871 308.46 189.296 308.477 214.323 309.106L216.759 309.188L214.323 309.27C189.296 309.898 163.871 309.916 138.846 309.188Z" fill="#8499A4"/>
</g>
</svg>
