<svg width="76" height="29" viewBox="0 0 76 29" fill="none" xmlns="http://www.w3.org/2000/svg">
<path d="M2 1.41551H1V2.41551V26.5845V27.5845H2H14.9984C16.0415 27.5845 17.0254 27.386 17.9367 26.9777L17.9479 26.9727L17.959 26.9674C18.8474 26.5428 19.6214 25.9683 20.2729 25.2459C20.9236 24.5243 21.4205 23.6875 21.7665 22.7459C22.1379 21.7756 22.322 20.7559 22.322 19.6939C22.322 18.5435 22.1156 17.5014 21.6519 16.6102C21.2491 15.7932 20.7244 15.1021 20.0662 14.5636C19.7422 14.2871 19.3983 14.0476 19.035 13.8464C19.2786 13.6751 19.5058 13.4806 19.7155 13.2631C20.2503 12.7326 20.647 12.0765 20.9218 11.3235C21.2348 10.5312 21.3734 9.61827 21.3734 8.61357C21.3734 6.52447 20.7242 4.75256 19.3577 3.40362C17.9977 2.03745 16.1337 1.41551 13.9094 1.41551H2ZM14.437 17.913L14.4579 17.9336L14.48 17.953C14.635 18.0888 14.7713 18.3157 14.7713 18.7936V19.9709C14.7713 20.446 14.6357 20.7003 14.4582 20.8658C14.2942 21.0176 14.014 21.1524 13.4878 21.1524H8.33989V17.6122H13.4878C13.9987 17.6122 14.271 17.7495 14.437 17.913ZM30.6987 26.8236L30.6987 26.8237L30.7099 26.829C32.3772 27.625 34.36 28 36.6212 28C38.2227 28 39.6835 27.8059 40.9918 27.4014L41.0002 27.3988L41.0085 27.396C42.3032 26.9707 43.4201 26.3705 44.3333 25.5779C45.2659 24.7886 45.9786 23.8348 46.4615 22.7242C46.9426 21.6177 47.1768 20.4186 47.1768 19.1399C47.1768 16.8413 46.5042 14.9304 45.0343 13.563C43.6103 12.2155 41.5118 11.3921 38.8828 10.9842C38.8826 10.9842 38.8825 10.9841 38.8823 10.9841L36.4602 10.6035L36.4599 10.6035C35.5021 10.4533 34.9578 10.2266 34.6868 10.0183C34.5582 9.90678 34.3891 9.64819 34.3891 8.99446C34.3891 8.5687 34.5338 8.30032 34.8461 8.07867C35.1834 7.83932 35.8257 7.63989 36.9374 7.63989C38.0941 7.63989 38.9605 7.84147 39.5922 8.1795L39.607 8.18739L39.6219 8.19477C40.3536 8.55537 40.9604 9.01895 41.4543 9.58356L42.1565 10.3864L42.9125 9.63395L46.4607 6.10209L47.138 5.42793L46.4952 4.72076C45.3868 3.50126 44.0571 2.57325 42.5166 1.94062C40.9677 1.3045 39.2064 1 37.2535 1C35.7205 1 34.3166 1.19454 33.0537 1.60017C31.8274 1.97859 30.7508 2.52968 29.8431 3.26652L29.8374 3.27113L29.8318 3.27583C28.9484 4.01456 28.2603 4.90444 27.776 5.9388C27.2867 6.98358 27.0493 8.12278 27.0493 9.34072C27.0493 11.5807 27.7149 13.4768 29.1254 14.9216L29.1254 14.9216L29.1322 14.9285C30.5704 16.3733 32.7304 17.1977 35.4416 17.535C35.4424 17.5351 35.4431 17.5352 35.4439 17.5353L37.8577 17.8456C38.9573 18.0012 39.3782 18.2717 39.4984 18.4197L39.5063 18.4295L39.5145 18.4391C39.7102 18.6681 39.8369 18.9799 39.8369 19.4515C39.8369 20.0543 39.6357 20.4701 39.2453 20.7979C38.8726 21.1108 38.1792 21.3601 36.9725 21.3601C34.8266 21.3601 33.0453 20.5619 31.5677 18.9209L30.8642 18.1396L30.1191 18.8813L26.606 22.3786L25.9272 23.0543L26.573 23.7616C27.7167 25.014 29.0958 26.0336 30.6987 26.8236ZM58.8943 27.1674L58.9013 27.1702L58.9083 27.1729C60.3738 27.7304 61.9958 28 63.7606 28C66.1763 28 68.2589 27.4716 69.9397 26.3408L69.9425 26.3389C71.6033 25.2135 72.917 23.6408 73.8964 21.6608L74.3137 20.8171L73.4967 20.3495L69.1405 17.8565L68.1225 17.2739L67.7082 18.3712C67.3907 19.2123 66.8978 19.9325 66.2199 20.5419C65.675 21.0302 64.8931 21.3255 63.7606 21.3255C62.427 21.3255 61.4381 20.915 60.6936 20.1499C59.9882 19.3798 59.5612 18.1949 59.5612 16.4391V12.5609C59.5612 10.7969 59.992 9.62815 60.6934 8.88479C61.4406 8.09455 62.4293 7.67451 63.7606 7.67451C64.9562 7.67451 65.6791 7.95471 66.1057 8.34621L66.1188 8.35823L66.1323 8.36977C66.6736 8.83211 67.0959 9.47305 67.376 10.3405L67.737 11.4587L68.7831 10.9235L73.3852 8.56892L74.2345 8.1344L73.8404 7.2656C72.8891 5.16816 71.5896 3.5625 69.9074 2.53447C68.232 1.48747 66.1616 1 63.7606 1C61.9858 1 60.3539 1.29595 58.8805 1.9074C57.4045 2.51995 56.1415 3.43012 55.1026 4.63206C54.0623 5.81249 53.2765 7.2645 52.7273 8.9614C52.1728 10.6514 51.9051 12.5599 51.9051 14.6731C51.9051 16.8084 52.1726 18.7198 52.7293 20.3909L52.7307 20.3952C53.2832 22.0287 54.0727 23.4339 55.1135 24.588L55.1135 24.588L55.1211 24.5963C56.1635 25.7264 57.4259 26.5834 58.8943 27.1674ZM12.6446 11.3186H8.33989V7.84764H12.6446C13.1555 7.84764 13.4279 7.98494 13.5938 8.14849C13.7579 8.31016 13.893 8.57104 13.893 9.06371V10.1025C13.893 10.5952 13.7579 10.856 13.5938 11.0177C13.4279 11.1813 13.1555 11.3186 12.6446 11.3186Z" stroke="#F0B90B" stroke-width="2"/>
</svg>
