<svg width="41" height="47" viewBox="0 0 41 47" fill="none" xmlns="http://www.w3.org/2000/svg">
<path d="M40.7032 35.25V11.75L20.3516 0L0 11.75V35.25L20.3516 47L40.7032 35.25Z" fill="#F0B90B"/>
<path d="M11.281 23.7146L20.0224 19.4494L20.0208 29.5746L11.281 23.7146Z" fill="black" stroke="#F0B90B" stroke-width="0.2"/>
<path d="M20.2716 19.4494L29.013 23.7146L20.27 29.5771L20.2716 19.4494Z" fill="black" stroke="#F0B90B" stroke-width="0.2"/>
<path d="M20.2716 19.1726L20.27 7.52924L28.9651 23.4143L20.2716 19.1726Z" fill="black" stroke="#F0B90B" stroke-width="0.2"/>
<path d="M28.8831 26.0388L20.2699 39.2239L20.2703 31.5301L28.8831 26.0388Z" fill="black" stroke="#F0B90B" stroke-width="0.2"/>
<path d="M11.4117 26.0388L20.022 31.5284L20.0216 39.2185L11.4117 26.0388Z" fill="black" stroke="#F0B90B" stroke-width="0.2"/>
<path d="M20.0229 19.1726L11.3295 23.4143L20.0213 7.53539L20.0229 19.1726Z" fill="black" stroke="#F0B90B" stroke-width="0.2"/>
<mask id="path-8-inside-1_20_3997" fill="white">
<path d="M20.1463 29.8374L20.1641 29.8264L29.2744 23.7179L29.293 23.7056L20.1679 7.03511L20.1467 7L20.1252 7.03511L11 23.7056L20.129 29.8264L20.1463 29.8374ZM29.2033 23.6422L20.1713 19.2352L20.1696 7.13831L29.2033 23.6422ZM20.1713 19.2894L29.2127 23.701L20.1696 29.7646L20.1713 19.2894ZM20.1205 29.7621L11.0808 23.701L20.1226 19.2894L20.1205 29.7621ZM11.0901 23.6422L20.1205 7.14466L20.1226 19.2352L11.0901 23.6422Z"/>
</mask>
<path d="M20.1463 29.8374L20.1641 29.8264L29.2744 23.7179L29.293 23.7056L20.1679 7.03511L20.1467 7L20.1252 7.03511L11 23.7056L20.129 29.8264L20.1463 29.8374ZM29.2033 23.6422L20.1713 19.2352L20.1696 7.13831L29.2033 23.6422ZM20.1713 19.2894L29.2127 23.701L20.1696 29.7646L20.1713 19.2894ZM20.1205 29.7621L11.0808 23.701L20.1226 19.2894L20.1205 29.7621ZM11.0901 23.6422L20.1205 7.14466L20.1226 19.2352L11.0901 23.6422Z" fill="black"/>
<path d="M20.1463 29.8374L19.6108 30.6819L20.14 31.0175L20.6727 30.6876L20.1463 29.8374ZM20.1641 29.8264L20.6905 30.6766L20.7059 30.6671L20.721 30.657L20.1641 29.8264ZM29.2744 23.7179L28.7242 22.8828L28.7175 22.8873L29.2744 23.7179ZM29.293 23.7056L29.8432 24.5406L30.6126 24.0337L30.1702 23.2255L29.293 23.7056ZM20.1679 7.03511L21.045 6.55495L21.0351 6.53681L21.0244 6.51909L20.1679 7.03511ZM20.1467 7L21.0033 6.48399L20.1551 5.07595L19.2947 6.47656L20.1467 7ZM20.1252 7.03511L19.2731 6.51167L19.26 6.53299L19.248 6.55495L20.1252 7.03511ZM11 23.7056L10.1228 23.2255L9.68396 24.0272L10.4431 24.5362L11 23.7056ZM20.129 29.8264L19.5721 30.657L19.5827 30.6641L19.5934 30.6709L20.129 29.8264ZM29.2033 23.6422L28.7648 24.5409L31.5898 25.9192L30.0805 23.162L29.2033 23.6422ZM20.1713 19.2352L19.1713 19.2354L19.1713 19.86L19.7327 20.134L20.1713 19.2352ZM20.1696 7.13831L21.0467 6.65816L19.1696 7.13845L20.1696 7.13831ZM20.1713 19.2894L20.6098 18.3907L19.1715 17.6889L19.1713 19.2892L20.1713 19.2894ZM29.2127 23.701L29.7696 24.5315L31.2124 23.564L29.6512 22.8022L29.2127 23.701ZM20.1696 29.7646L19.1696 29.7645L19.1693 31.6394L20.7265 30.5952L20.1696 29.7646ZM20.1205 29.7621L19.5636 30.5927L21.1201 31.6363L21.1205 29.7623L20.1205 29.7621ZM11.0808 23.701L10.6423 22.8022L9.08093 23.564L10.5239 24.5315L11.0808 23.701ZM20.1226 19.2894L21.1226 19.2896L21.1229 17.6886L19.6841 18.3906L20.1226 19.2894ZM11.0901 23.6422L10.2129 23.162L8.70371 25.9191L11.5286 24.5409L11.0901 23.6422ZM20.1205 7.14466L21.1205 7.14448L19.2433 6.6645L20.1205 7.14466ZM20.1226 19.2352L20.5611 20.134L21.1227 19.86L21.1226 19.2351L20.1226 19.2352ZM20.6727 30.6876L20.6905 30.6766L19.6376 28.9762L19.6199 28.9872L20.6727 30.6876ZM20.721 30.657L29.8313 24.5484L28.7175 22.8873L19.6072 28.9958L20.721 30.657ZM29.8246 24.5529L29.8432 24.5406L28.7428 22.8706L28.7242 22.8829L29.8246 24.5529ZM30.1702 23.2255L21.045 6.55495L19.2907 7.51526L28.4158 24.1858L30.1702 23.2255ZM21.0244 6.51909L21.0033 6.48399L19.2901 7.51601L19.3113 7.55112L21.0244 6.51909ZM19.2947 6.47656L19.2731 6.51167L20.9772 7.55855L20.9988 7.52344L19.2947 6.47656ZM19.248 6.55495L10.1228 23.2255L11.8772 24.1858L21.0023 7.51526L19.248 6.55495ZM10.4431 24.5362L19.5721 30.657L20.6858 28.9958L11.5569 22.875L10.4431 24.5362ZM19.5934 30.6709L19.6108 30.6819L20.6818 28.9929L20.6645 28.9819L19.5934 30.6709ZM29.6419 22.7434L20.6098 18.3365L19.7327 20.134L28.7648 24.5409L29.6419 22.7434ZM21.1713 19.2351L21.1696 7.13817L19.1696 7.13845L19.1713 19.2354L21.1713 19.2351ZM19.2924 7.61846L28.3262 24.1223L30.0805 23.162L21.0467 6.65816L19.2924 7.61846ZM19.7327 20.1881L28.7741 24.5997L29.6512 22.8022L20.6098 18.3907L19.7327 20.1881ZM28.6557 22.8704L19.6126 28.9341L20.7265 30.5952L29.7696 24.5315L28.6557 22.8704ZM21.1696 29.7648L21.1713 19.2895L19.1713 19.2892L19.1696 29.7645L21.1696 29.7648ZM20.6774 28.9315L11.6377 22.8704L10.5239 24.5315L19.5636 30.5927L20.6774 28.9315ZM11.5193 24.5997L20.5611 20.1881L19.6841 18.3906L10.6423 22.8022L11.5193 24.5997ZM19.1226 19.2892L19.1205 29.7619L21.1205 29.7623L21.1226 19.2896L19.1226 19.2892ZM11.9673 24.1223L20.9977 7.62481L19.2433 6.6645L10.2129 23.162L11.9673 24.1223ZM19.1205 7.14483L19.1226 19.2354L21.1226 19.2351L21.1205 7.14448L19.1205 7.14483ZM19.6841 18.3365L10.6516 22.7434L11.5286 24.5409L20.5611 20.134L19.6841 18.3365Z" fill="#F0B90B" mask="url(#path-8-inside-1_20_3997)"/>
</svg>
