<svg width="41" height="47" viewBox="0 0 41 47" fill="none" xmlns="http://www.w3.org/2000/svg">
<path d="M40.7032 35.25V11.75L20.3516 0L0 11.75V35.25L20.3516 47L40.7032 35.25Z" fill="#F0B90B"/>
<path fill-rule="evenodd" clip-rule="evenodd" d="M22.4403 25.8267V25.8242C22.3036 25.8341 21.5991 25.8761 20.0273 25.8761C18.7724 25.8761 17.889 25.839 17.5784 25.8242V25.8279C12.7476 25.6164 9.14185 24.7793 9.14185 23.7776C9.14185 22.7772 12.7476 21.9401 17.5784 21.7249V24.9944C17.894 25.0167 18.7985 25.0699 20.0485 25.0699C21.5481 25.0699 22.2999 25.008 22.4403 24.9957V21.7274C27.2611 21.9413 30.8582 22.7785 30.8582 23.7776C30.8582 24.7793 27.2611 25.614 22.4403 25.8267ZM22.4403 21.3873V18.4616H29.1671V14H10.8515V18.4616H17.5784V21.3861C12.1114 21.6359 8 22.7142 8 24.0052C8 25.2962 12.1114 26.3732 17.5784 26.6242V36H22.4403V26.6218C27.8985 26.372 32 25.2949 32 24.0052C32 22.7154 27.8985 21.6384 22.4403 21.3873Z" fill="black"/>
</svg>
