<svg width="41" height="47" viewBox="0 0 41 47" fill="none" xmlns="http://www.w3.org/2000/svg">
<path d="M40.7032 35.25V11.75L20.3516 0L0 11.75V35.25L20.3516 47L40.7032 35.25Z" fill="#F0B90B"/>
<path d="M20.2734 9.04531C20.2734 9.06797 19.6504 9.70801 18.8857 10.4727C17.5377 11.8207 17.498 11.866 17.498 12.0869C17.498 12.3078 17.5377 12.3531 18.8857 13.7012C20.2225 15.0379 20.2791 15.0889 20.4887 15.0889C20.6982 15.0889 20.7662 15.0266 22.1029 13.7012C23.4623 12.3475 23.502 12.3078 23.502 12.0869C23.502 11.866 23.4623 11.8207 22.1143 10.4727C21.3496 9.70801 20.7266 9.06797 20.7266 9.03965C20.7266 9.01699 20.6246 9 20.5 9C20.3754 9 20.2734 9.01699 20.2734 9.04531ZM14.5244 14.885C14.4281 14.9416 12.474 16.873 10.1801 19.1727C6.88926 22.4691 6 23.3867 6 23.5C6 23.6133 6.87793 24.5195 10.265 27.901C13.4596 31.0955 14.5641 32.1717 14.6943 32.1943C14.785 32.217 14.9266 32.2057 15.0059 32.1717C15.0852 32.1377 15.7365 31.5146 16.4615 30.7953L17.7756 29.4756L17.7812 28.9658C12.8309 24.0098 12.4854 23.6473 12.4854 23.5C12.4854 23.3527 12.8309 22.9902 15.1305 20.685L17.7812 18.0342L17.7756 17.5244C15.7818 15.5193 15.1361 14.902 15.0512 14.8566C14.9605 14.8113 14.8473 14.7773 14.7963 14.7773C14.7396 14.7773 14.615 14.8283 14.5244 14.885ZM25.9092 14.885C25.8129 14.9416 25.1729 15.559 24.4818 16.2557L23.2188 17.5244V18.0342C28.1691 22.9902 28.5146 23.3527 28.5146 23.5C28.5146 23.6473 28.1691 24.0098 25.8695 26.315L23.2188 28.9658V29.4756C25.5297 31.7809 25.9545 32.1717 26.0791 32.1943C26.1697 32.217 26.3113 32.2057 26.3906 32.1717C26.4699 32.1377 28.4354 30.2063 30.7633 27.8727C34.1051 24.5365 35 23.6133 35 23.5C35 23.3867 34.1277 22.4861 30.7916 19.15C28.4807 16.8334 26.5209 14.902 26.4303 14.8566C26.3453 14.8113 26.232 14.7773 26.1754 14.7773C26.1244 14.7773 25.9998 14.8283 25.9092 14.885ZM20.2961 31.9281C20.2338 31.9564 19.5768 32.5852 18.8404 33.3328C17.5434 34.6469 17.498 34.6922 17.498 34.9131C17.498 35.134 17.5377 35.1736 18.8857 36.5273C19.6504 37.292 20.2734 37.932 20.2734 37.9604C20.2734 37.983 20.3754 38 20.5 38C20.6246 38 20.7266 37.983 20.7266 37.9604C20.7266 37.932 21.3496 37.292 22.1143 36.5273C23.4623 35.1793 23.502 35.134 23.502 34.9131C23.502 34.6922 23.4623 34.6469 22.1256 33.3158C21.0777 32.2623 20.7152 31.9338 20.585 31.9111C20.4887 31.8998 20.3641 31.9055 20.2961 31.9281ZM20.1885 20.6057C20.0922 20.6623 19.4635 21.2684 18.7895 21.948C18.1154 22.6334 17.5434 23.2508 17.5264 23.3301C17.5037 23.4094 17.5037 23.5453 17.5264 23.6416C17.549 23.7605 17.9342 24.1854 18.8744 25.1256C19.6051 25.8563 20.2508 26.4566 20.3301 26.4736C20.4094 26.4963 20.5453 26.4963 20.6416 26.4736C20.7605 26.451 21.1854 26.0658 22.1256 25.1256C23.0658 24.1854 23.451 23.7605 23.4736 23.6416C23.4963 23.5453 23.4963 23.4094 23.4736 23.3301C23.4566 23.2508 22.8732 22.6221 22.1822 21.9254C21.4912 21.2287 20.8568 20.6227 20.7662 20.5773C20.6813 20.532 20.5566 20.498 20.483 20.498C20.415 20.498 20.2791 20.549 20.1885 20.6057Z" fill="black"/>
</svg>
