<?xml version="1.0" encoding="utf-8"?>
<!-- Generator: Adobe Illustrator 18.0.0, SVG Export Plug-In . SVG Version: 6.00 Build 0)  -->
<!DOCTYPE svg PUBLIC "-//W3C//DTD SVG 1.1//EN" "http://www.w3.org/Graphics/SVG/1.1/DTD/svg11.dtd">
<svg version="1.1" id="Layer_1" xmlns="http://www.w3.org/2000/svg" xmlns:xlink="http://www.w3.org/1999/xlink" x="0px" y="0px"
	 viewBox="0 0 381 435" enable-background="new 0 0 381 435" xml:space="preserve">
<linearGradient id="SVGID_1_" gradientUnits="userSpaceOnUse" x1="271.5532" y1="399.7014" x2="24.1776" y2="-152.6766" gradientTransform="matrix(1 0 0 -1 0 436)">
	<stop  offset="0.1834" style="stop-color:#F0B90B"/>
	<stop  offset="1" style="stop-color:#F0B90B;stop-opacity:0"/>
</linearGradient>
<path fill="url(#SVGID_1_)" stroke="#F0B90B" stroke-width="4" d="M191.5,47.5l-1-0.6l-1,0.6l-73,41.5l-39-22.3L190.5,2.3
	l112.9,64.3l-39,22.3L191.5,47.5z M339,303.1l1-0.6v-1.2v-82.9l39-22.3v128.6l-113,64.3v-44.6L339,303.1z M340,133.3v-1.2l-1-0.6
	l-40-22.9l39-22.3l41,23.5v46.9L340,179V133.3z M191.7,387.5l1,0.6l1-0.6l40-22.9v44.6l-40.9,23.4l-44.4-29.1V362L191.7,387.5z
	 M42,131.5l-1,0.6v1.2V179L2,156.7v-46.9l41-23.5l39,22.3L42,131.5z M41,301.3v1.2l1,0.6l73,41.4v44.6L2,324.8V196.1l39,22.3V301.3z
	"/>
<g>
	<linearGradient id="SVGID_2_" gradientUnits="userSpaceOnUse" x1="245.1164" y1="327.8548" x2="61.2228" y2="21.2558">
		<stop  offset="0.1834" style="stop-color:#F0B90B"/>
		<stop  offset="1" style="stop-color:#F0B90B;stop-opacity:0"/>
	</linearGradient>
	<path fill="url(#SVGID_2_)" stroke="#F0B90B" stroke-width="4" d="M259.2,303.4c1.7-1.1,4.9-3.6,7.1-5.5c2.1-1.9,5.1-5.1,6.5-7l0,0
		l0,0c1.5-2,3.8-5.7,5.1-8.2c1.3-2.5,2.9-6.7,3.7-9.4c1-3.6,1.3-6.5,1.3-12.4c0-6-0.3-8.8-1.3-12.4c-0.8-2.7-2.5-7.1-3.9-9.8
		c-1.4-2.7-3.9-6.7-5.6-8.8l0,0l0,0c-1.7-2.2-5-5.5-7.2-7.3l0,0l-4.2-3.5l-1.6-1.3l1.4-1.5c3.5-3.9,5.3-6.2,6.4-7.8
		c1.1-1.5,2.7-4.2,3.7-6c0.9-1.6,2.4-5.5,3.3-8.4l0,0l0,0c1-3.1,1.8-7.7,2.1-11.1c0.2-3.4,0.1-7.8-0.4-10.3
		c-0.5-2.5-1.5-6.7-2.4-9.2c-0.9-2.5-2.9-6.7-4.3-9.2l0,0c-1.8-2.9-4.6-6.4-8.9-10.4l0,0l0,0c-4.1-4-7.9-6.8-11-8.6
		c-2.7-1.5-7.1-3.4-9.6-4.2c0,0,0,0,0,0l-4.8-1.6l-1.4-0.5v-1.4V99.9l-24.9-13.7v39.7v2h-2H178h-2v-2V86.2l-24.9,13.7v26v2h-2h-41
		v22.6l26.6,0.3l2,0v2v134.8v2l-2,0l-26.6,0.3v22.6h41h2v2v26l24.9,12.5v-38.5v-2h2h28.2h2v2v38.5l24.9-12.5v-26.3v-1.6l1.5-0.4
		c9.6-2.2,14.3-3.8,16.8-4.8C253.9,306.4,257.5,304.5,259.2,303.4z M226.4,152c0,0,25.4,5.7,25.9,28.8c0.6,26.9-24.1,32.5-24.1,32.5
		l-67.5,1.4l-1.3-62.1L226.4,152z M229.4,290.7l-67.5,1.4l-1.3-62.1l67-0.6c0,0,25.4,5.7,25.9,28.8
		C254.1,285,229.4,290.7,229.4,290.7z"/>
</g>
</svg>
