<svg width="350" height="411" viewBox="0 0 350 411" fill="none" xmlns="http://www.w3.org/2000/svg">
<g opacity="0.8">
<g filter="url(#filter0_f_20_2123)">
<path d="M168.488 55.0456L167.5 54.4849L166.512 55.0456L101.694 91.8508L67.4625 72.2646L167.5 15.3015L267.538 72.2646L233.306 91.8508L168.488 55.0456ZM299.725 282.732L300.738 282.157V280.993V207.417L335 187.812V301.722L234.928 358.705V319.525L299.725 282.732ZM300.738 131.521V130.361L299.731 129.785L264.504 109.628L298.738 90.0403L335 110.788V152.253L300.738 171.857V131.521ZM168.444 357.831L169.444 358.418L170.451 357.842L205.72 337.663V376.84L169.527 397.547L130.192 371.826V335.349L168.444 357.831ZM35.2685 129.785L34.2617 130.361V131.521V171.857L0 152.253V110.788L36.2617 90.0403L70.4964 109.628L35.2685 129.785ZM34.2617 280.993V282.157L35.2742 282.732L100.072 319.525V358.705L0 301.722V187.812L34.2617 207.417V280.993Z" stroke="#F0B90B" stroke-opacity="0.32" stroke-width="4"/>
</g>
<g filter="url(#filter1_f_20_2123)">
<path fill-rule="evenodd" clip-rule="evenodd" d="M128.153 96.1984L153.857 82.0881V120.405H178.962V82.0881L204.666 96.1984V121.812L208.97 123.219C211.361 124.007 215.306 125.753 217.817 127.104C220.746 128.736 224.212 131.382 227.978 134.985C231.804 138.587 234.494 141.796 236.168 144.611C237.542 146.919 239.336 150.747 240.173 153.055C241.009 155.363 241.966 159.191 242.384 161.499C242.803 163.92 242.922 167.973 242.743 171.069C242.504 174.221 241.786 178.443 240.83 181.371C239.993 184.073 238.618 187.619 237.782 189.195C236.885 190.828 235.39 193.305 234.374 194.712C233.358 196.12 231.684 198.259 228.576 201.749L232.342 204.901C234.374 206.59 237.363 209.63 238.977 211.657C240.591 213.627 242.922 217.286 244.177 219.763C245.433 222.24 247.047 226.293 247.764 228.77C248.72 232.204 249.019 234.906 249.019 240.31C249.019 245.714 248.72 248.416 247.764 251.85C247.047 254.327 245.552 258.268 244.357 260.576C243.161 262.884 241.069 266.318 239.635 268.175C238.26 270.033 235.51 272.96 233.597 274.706C231.625 276.394 228.696 278.646 227.082 279.716C225.468 280.785 222.18 282.474 219.909 283.487C217.577 284.501 213.214 285.908 204.666 287.878V312.366L178.962 325.306V288.16H153.857V325.306L128.153 312.366V288.16H89.8969V264.516L115.302 264.235V144.329L89.8969 144.048V120.405H128.153V96.1984ZM140.945 168.817L141.005 192.179C182.788 192.461 193.189 192.292 195.7 191.898C197.851 191.56 201.02 190.659 202.753 189.871C204.427 189.139 207.356 187.169 209.209 185.536C211.002 183.96 213.154 181.596 213.931 180.357C214.648 179.119 215.724 176.698 216.262 175.009C216.8 173.321 217.219 170.281 217.219 168.254C217.219 166.228 216.8 163.188 216.262 161.499C215.724 159.81 214.648 157.39 213.931 156.151C213.154 154.913 211.122 152.605 209.328 151.028C207.595 149.452 204.965 147.594 203.47 146.863C201.976 146.187 199.047 145.23 196.895 144.836C193.966 144.273 186.614 144.048 167.127 144.048C146.923 144.048 141.244 144.217 141.065 144.78C140.945 145.118 140.885 155.982 140.945 168.817ZM140.945 240.873L141.005 264.235C200.96 264.235 202.753 264.179 206.16 263.109C208.133 262.49 211.062 261.082 212.676 260.013C214.29 258.943 216.741 256.748 218.115 255.228C219.49 253.652 221.224 250.893 222.001 249.036C223.137 246.334 223.435 244.645 223.435 240.31C223.435 235.975 223.137 234.287 222.001 231.585C221.224 229.727 219.49 226.969 218.175 225.449C216.8 223.929 214.529 221.846 213.034 220.833C211.54 219.819 208.731 218.412 206.758 217.68C203.231 216.385 202.813 216.385 172.268 216.216C147.281 216.104 141.304 216.216 141.065 216.779C140.945 217.173 140.885 228.038 140.945 240.873Z" fill="#F0B90C" fill-opacity="0.28"/>
</g>
</g>
<defs>
<filter id="filter0_f_20_2123" x="-15" y="0" width="365" height="412.891" filterUnits="userSpaceOnUse" color-interpolation-filters="sRGB">
<feFlood flood-opacity="0" result="BackgroundImageFix"/>
<feBlend mode="normal" in="SourceGraphic" in2="BackgroundImageFix" result="shape"/>
<feGaussianBlur stdDeviation="6.5" result="effect1_foregroundBlur_20_2123"/>
</filter>
<filter id="filter1_f_20_2123" x="76.8969" y="69.0881" width="185.122" height="269.218" filterUnits="userSpaceOnUse" color-interpolation-filters="sRGB">
<feFlood flood-opacity="0" result="BackgroundImageFix"/>
<feBlend mode="normal" in="SourceGraphic" in2="BackgroundImageFix" result="shape"/>
<feGaussianBlur stdDeviation="6.5" result="effect1_foregroundBlur_20_2123"/>
</filter>
</defs>
</svg>
