<svg width="2767" height="327" viewBox="0 0 2767 327" fill="none" xmlns="http://www.w3.org/2000/svg">
<g clip-path="url(#clip0_1_60)">
<path d="M2115.5 180.5L2175.5 277L2245.5 236L2298 269L2412.5 223.5L2507 300.5L2636 223.5L2667.5 256.5L2767 223.5V0H2175.5H659.5H0V197.999L48.5 190.07L127 138L165 197.999L248 169.5L329.5 210.5L428 169.5L557 235.02L659.5 197.999L730.5 229.407L788 235.02L846 284.5L954.5 217.832H1020.5L1086.5 197.999L1147.5 180.5L1217.32 202.957L1239 247.054L1295.79 254.853L1340 229.407L1390 202.957L1486 159L1558 197.999L1591.69 202.957H1636.68L1689.16 235.02L1760.14 202.957L1779 256.5H1899.5L2027.5 284.5L2115.5 180.5Z" fill="#F0B90B"/>
<path d="M804 135L1027.5 269M804 135L501 80.5L1027.5 269M804 135L1240 91.5M1027.5 269L1240 91.5M1027.5 269L1322.5 180M1240 91.5L1659 263.5M1240 91.5L1322.5 180M1240 91.5L1593.5 148.5M1322.5 180L1659 263.5M1659 263.5L1871 80.5M1659 263.5L1593.5 148.5M1659 263.5L1831.5 193M1593.5 148.5L1871 80.5M1871 80.5L1952.5 127.722M1831.5 193L1952.5 127.722M1831.5 193L1971 186.5M1952.5 127.722L2297 40L1971 186.5M1952.5 127.722L1971 186.5" stroke="#FFE8A0"/>
<path d="M2503.5 217.5L2298 39L2586 129M2503.5 217.5L2748.5 39M2503.5 217.5L2586 129M2503.5 217.5L2758.5 214.5L2748.5 39M2586 129L2748.5 39" stroke="#FFE8A0"/>
<path d="M1870.57 70.1547L1881.63 76.5442V89.3233L1870.57 95.7128L1859.5 89.3233V76.5442L1870.57 70.1547Z" stroke="#FFE8A0" stroke-width="2"/>
<path d="M1877.79 87.2037V78.6636L1870.39 74.3936L1862.99 78.6636V87.2037L1870.39 91.4737L1877.79 87.2037Z" fill="#FFF6DA"/>
<path d="M1971 176.866L1979.75 181.918V192.021L1971 197.073L1962.25 192.021V181.918L1971 176.866Z" stroke="#FFE8A0" stroke-width="1.5"/>
<path d="M1976.68 190.331V183.608L1970.86 180.246L1965.04 183.608V190.331L1970.86 193.693L1976.68 190.331Z" fill="#FFF6DA"/>
<path d="M295.5 258.5L501 80L213 170M295.5 258.5L15 80M295.5 258.5L213 170M295.5 258.5L80.5 195L15 80M213 170L15 80" stroke="#FFE8A0"/>
<path d="M1593 137.866L1601.75 142.918V153.021L1593 158.073L1584.25 153.021V142.918L1593 137.866Z" stroke="#FFE8A0" stroke-width="1.5"/>
<path d="M1598.68 151.331V144.608L1592.86 141.246L1587.04 144.608V151.331L1592.86 154.693L1598.68 151.331Z" fill="#FFF6DA"/>
<path d="M805 125.808L813.8 130.889V141.05L805 146.131L796.2 141.05V130.889L805 125.808Z" stroke="#FFE8A0" stroke-width="1.4"/>
<path d="M810.684 139.331V132.608L804.861 129.246L799.039 132.608V139.331L804.861 142.693L810.684 139.331Z" fill="#FFF6DA"/>
<path d="M1240.57 79.1547L1251.63 85.5442V98.3233L1240.57 104.713L1229.5 98.3233V85.5442L1240.57 79.1547Z" stroke="#FFE8A0" stroke-width="2"/>
<path d="M1247.79 96.2037V87.6636L1240.39 83.3936L1232.99 87.6636V96.2037L1240.39 100.474L1247.79 96.2037Z" fill="#FFF6DA"/>
<path d="M1026.57 255.155L1037.63 261.544V274.323L1026.57 280.713L1015.5 274.323V261.544L1026.57 255.155Z" stroke="#FFE8A0" stroke-width="2"/>
<path d="M1033.79 272.204V263.664L1026.39 259.394L1018.99 263.664V272.204L1026.39 276.474L1033.79 272.204Z" fill="#F0B90B"/>
<path d="M1657.57 251.155L1668.63 257.544V270.323L1657.57 276.713L1646.5 270.323V257.544L1657.57 251.155Z" stroke="#FFE8A0" stroke-width="2"/>
<path d="M1664.79 268.204V259.664L1657.39 255.394L1649.99 259.664V268.204L1657.39 272.474L1664.79 268.204Z" fill="#F0B90B"/>
<path fill-rule="evenodd" clip-rule="evenodd" d="M755.795 100.526C753.348 103.002 749.264 104.616 744.802 104.616C737.529 104.616 731.749 100.716 731.5 95.9491V80.2243V79.9148C731.5 75.024 737.405 71 744.864 71C749.775 71 754.188 72.981 756.364 75.8906H773.706L771.531 84.9293H762.766L760.901 89.9438L770.598 85.9198L753.38 110.807L755.795 100.526ZM748.766 102.857L749.729 98.845C748.256 99.2095 746.508 99.4105 744.864 99.354C739.456 99.4159 734.919 97.2492 732.743 94.0918V95.6395C732.868 99.7874 738.151 103.378 744.864 103.378C746.14 103.323 747.514 103.12 748.766 102.857ZM750.08 97.3822L751.111 93.0898C749.202 93.8087 747.059 94.2039 744.864 94.0918C739.456 94.2156 734.919 92.1108 732.743 89.1392V90.3773C732.868 94.649 738.151 98.1159 744.864 98.1159C746.611 98.1159 748.406 97.8294 750.08 97.3822ZM751.478 91.5576L752.482 87.3751C750.235 88.3952 747.63 89.0842 744.926 89.1392C739.519 89.0153 734.981 86.9105 732.805 83.8769V85.1151C732.93 89.4487 738.213 92.9156 744.926 92.8537C747.308 92.9101 749.587 92.3998 751.478 91.5576ZM754.81 75.8906H746.791L744.616 84.9293H753.069L752.907 85.6062C750.781 86.9367 747.928 87.7903 744.926 87.901C738.213 87.7772 732.93 84.2484 732.805 79.8529C732.805 75.705 738.213 72.1763 744.926 72.1763C748.905 72.1763 752.634 73.6001 754.81 75.8906ZM756.55 104.307L757.793 98.0538L757.731 98.1157L750.521 101.211L754.623 83.753H746.17L747.724 77.1907H772.152L770.598 83.753H762.145L758.415 92.4821L766.869 88.7676L756.55 104.307ZM791.608 82.0197C791.608 83.0102 791.297 83.815 790.675 84.3722C790.054 84.9294 789.184 85.2389 788.065 85.2389C786.946 85.2389 786.013 84.8675 785.392 84.1865C784.708 83.5055 784.397 82.5149 784.397 81.4006V79.5433C784.397 78.429 784.77 77.5004 785.392 76.7575C786.076 76.0765 786.946 75.705 788.065 75.705C789.184 75.705 790.116 76.0146 790.738 76.5098C791.421 77.067 791.732 77.8718 791.67 78.8623H789.867C789.867 78.2433 789.743 77.8099 789.432 77.5004C789.121 77.1908 788.686 77.067 788.065 77.067C787.443 77.067 787.07 77.3146 786.759 77.748C786.449 78.1814 786.262 78.7385 786.262 79.4814V81.3387C786.262 82.0197 786.449 82.6388 786.759 83.0721C787.07 83.5055 787.567 83.7531 788.127 83.7531C788.686 83.7531 789.121 83.6293 789.37 83.3198C789.619 83.0102 789.805 82.5769 789.805 81.9578H791.608V82.0197ZM801.926 81.2768C801.926 82.3911 801.553 83.3817 800.869 84.1246C800.186 84.8675 799.191 85.2389 798.072 85.2389C796.953 85.2389 796.021 84.8675 795.275 84.1246C794.591 83.3817 794.218 82.453 794.218 81.2768V79.6052C794.218 78.4909 794.591 77.5623 795.275 76.7575C795.959 76.0146 796.953 75.6431 798.072 75.6431C799.191 75.6431 800.186 76.0146 800.869 76.7575C801.615 77.5004 801.926 78.429 801.926 79.6052V81.2768ZM800.061 79.6052C800.061 78.8623 799.875 78.3052 799.502 77.8099C799.129 77.3765 798.632 77.1289 798.01 77.1289C797.389 77.1289 796.891 77.3765 796.518 77.8099C796.208 78.2433 795.959 78.8623 795.959 79.6052V81.2768C795.959 82.0197 796.145 82.6388 796.518 83.0721C796.829 83.5055 797.389 83.7531 798.01 83.7531C798.632 83.7531 799.129 83.5055 799.502 83.0721C799.875 82.6388 800.061 82.0197 800.061 81.2768V79.6052ZM806.775 85.1151H804.91V75.8288H806.775V85.1151ZM817.59 85.1151H815.726L811.996 78.8623V85.1151H810.131V75.8288H811.996L815.726 82.0816V75.8288H817.59V85.1151ZM827.039 77.2527H824.366V85.1151H822.501V77.2527H819.89V75.8288H827.039V77.2527ZM834.808 81.0291H831.327V83.6912H835.43V85.1151H829.463V75.8288H835.43V77.2527H831.327V79.6052H834.808V81.0291ZM840.03 83.6912H844.194V85.1151H838.103V75.8288H839.968V83.6912H840.03ZM852.213 81.0291H848.732V83.6912H852.835V85.1151H846.867V75.8288H852.835V77.2527H848.732V79.6052H852.213V81.0291ZM862.718 83.8769C862.407 84.2484 862.034 84.5579 861.413 84.8675C860.853 85.177 860.107 85.3008 859.175 85.3008C858.056 85.3008 857.124 84.9294 856.44 84.2484C855.756 83.5674 855.383 82.6388 855.383 81.5244V79.5433C855.383 78.429 855.756 77.5004 856.44 76.8194C857.124 76.1384 858.056 75.7669 859.113 75.7669C860.232 75.7669 861.164 76.0765 861.723 76.5717C862.283 77.067 862.656 77.8099 862.594 78.7385H860.853C860.853 78.2433 860.729 77.8718 860.418 77.5623C860.107 77.2527 859.734 77.1289 859.175 77.1289C858.615 77.1289 858.18 77.3765 857.807 77.8099C857.497 78.2433 857.31 78.8004 857.31 79.4814V81.4625C857.31 82.1435 857.497 82.7626 857.869 83.1959C858.242 83.6293 858.74 83.8769 859.299 83.8769C859.734 83.8769 860.107 83.8769 860.356 83.7531C860.605 83.6912 860.791 83.5674 860.977 83.4436V81.6482H859.175V80.3482H862.842V84.0007L862.718 83.8769ZM867.566 81.4006V85.1151H865.702V75.7669H868.934C869.991 75.7669 870.861 76.0146 871.42 76.5098C872.042 77.0051 872.353 77.6861 872.353 78.5528C872.353 79.0481 872.228 79.4195 871.98 79.791C871.731 80.1005 871.358 80.4101 870.861 80.6577C871.42 80.8434 871.793 81.0911 872.042 81.4625C872.29 81.834 872.415 82.3292 872.415 82.8864V83.5674C872.415 83.5674 872.415 84.1246 872.539 84.3722C872.539 84.6817 872.726 84.8675 872.912 84.9913V85.1151H870.985C870.799 84.9913 870.674 84.7436 870.612 84.4341C870.612 84.2795 870.597 84.1249 870.581 83.9702C870.566 83.8154 870.55 83.6602 870.55 83.5055V82.8245C870.55 82.3911 870.426 82.0197 870.177 81.772C869.928 81.5244 869.555 81.4006 869.12 81.4006H867.566ZM868.934 79.9767H867.628V77.3146H868.996C869.493 77.3146 869.866 77.4385 870.115 77.6861C870.364 77.9337 870.488 78.2433 870.488 78.6766C870.488 79.11 870.364 79.4195 870.115 79.6672C869.866 79.8529 869.431 79.9767 868.934 79.9767ZM877.263 83.134H880.266L880.868 85.1151H882.858L879.75 75.8288H877.823L874.652 85.1151H876.642L877.263 83.134ZM877.823 81.6482H879.874L878.879 78.3671L877.823 81.6482ZM887.084 81.7101V85.0532H885.22V75.8288H888.825C889.882 75.8288 890.752 76.1384 891.373 76.6336C891.995 77.1908 892.306 77.9337 892.306 78.8004C892.306 79.6672 891.995 80.4101 891.373 80.9672C890.752 81.5244 889.944 81.772 888.825 81.772H887.147L887.084 81.7101ZM887.084 80.2862H888.763C889.26 80.2862 889.695 80.1624 889.944 79.8529C890.192 79.5433 890.317 79.1719 890.317 78.8004C890.317 78.3671 890.192 77.9956 889.944 77.6861C889.695 77.3765 889.26 77.2527 888.763 77.2527H887.084V80.2862ZM902.5 85.0532H900.635V81.2149H896.843V85.0532H894.979V75.7669H896.843V79.791H900.635V75.7669H902.5V85.0532ZM786.573 100.283H787.754V94.1538H789.867V93.1633H784.46V94.1538H786.573V100.283ZM794.405 100.283H795.586L795.648 100.221V96.692C795.648 95.392 794.964 94.711 793.659 94.711C793.286 94.711 792.975 94.8348 792.665 94.9586C792.354 95.1443 791.981 95.5777 791.981 95.5777H791.919V94.5871V92.668H790.8V100.221H791.919V97.5588C791.981 96.8778 792.043 96.4444 792.292 96.1349C792.54 95.8253 792.851 95.7015 793.348 95.7015C793.721 95.7015 793.97 95.8253 794.156 96.011C794.343 96.1968 794.405 96.5063 794.405 96.9397V100.283ZM797.575 99.6017C798.072 100.097 798.694 100.345 799.564 100.345L799.502 100.407C799.707 100.407 799.913 100.388 800.097 100.371C800.248 100.357 800.385 100.345 800.497 100.345C800.807 100.283 801.367 100.035 801.367 100.035V99.1065C801.274 99.1435 801.186 99.1861 801.101 99.2276C800.902 99.3248 800.714 99.416 800.497 99.416C800.248 99.4779 799.937 99.4779 799.626 99.4779C799.191 99.4779 798.756 99.3541 798.508 99.0446C798.259 98.7969 798.072 98.3636 798.072 97.8683H801.678V97.2492C801.678 96.4444 801.491 95.8872 801.056 95.4539C800.683 95.0205 800.062 94.7729 799.378 94.7729C798.632 94.7729 798.01 95.0205 797.575 95.5158C797.14 96.011 796.891 96.692 796.891 97.5588C796.891 98.4255 797.078 99.1065 797.575 99.6017ZM798.508 95.9491C798.694 95.7634 799.005 95.6396 799.378 95.6396C799.751 95.6396 800.062 95.7015 800.248 95.9491C800.434 96.1349 800.559 96.5063 800.559 96.9397H798.135C798.197 96.5063 798.321 96.1349 798.508 95.9491ZM806.961 95.7015H808.204V94.8348H806.899V94.5252C806.899 94.2157 806.961 94.03 807.085 93.8442C807.21 93.6585 807.396 93.5966 807.645 93.5966C807.894 93.5966 808.453 93.7204 808.453 93.7204L808.764 92.8537C808.391 92.668 807.956 92.668 807.583 92.668C806.961 92.668 806.526 92.7918 806.215 93.1013C805.904 93.4109 805.78 93.9062 805.78 94.5252V94.8348L804.91 95.1443V95.7015H805.78V100.221H806.961V95.7015ZM812.804 99.5398L812.991 100.221L813.053 100.283H813.985V94.8967H812.804V97.6207C812.742 98.3017 812.68 98.735 812.431 99.0446C812.183 99.3541 811.872 99.4779 811.374 99.4779C811.002 99.4779 810.753 99.3541 810.566 99.1684C810.38 98.9207 810.318 98.6731 810.318 98.2397V94.8967H809.137V98.4255C809.137 99.1065 809.323 99.6017 809.634 99.9113C810.007 100.221 810.442 100.407 811.126 100.407C811.499 100.407 811.81 100.283 812.12 100.159C812.431 99.9732 812.804 99.5398 812.804 99.5398ZM818.398 99.2303C818.088 99.3541 817.528 99.3541 817.528 99.3541H817.466C817.28 99.3541 817.031 99.2922 816.969 99.1684C816.782 99.0446 816.782 98.8588 816.782 98.5493V95.6396H818.336V94.7729H816.782V93.5966H816.099L815.726 94.711L814.918 95.1443V95.6396H815.663V98.5493C815.663 99.6636 816.223 100.221 817.28 100.221H817.901C818.088 100.221 818.398 100.097 818.398 100.097V99.2303ZM823.06 99.5398L823.247 100.221L823.309 100.283H824.241V94.8967H823.06V97.6207C822.998 98.3017 822.936 98.735 822.687 99.0446C822.439 99.3541 822.128 99.4779 821.631 99.4779C821.258 99.4779 821.009 99.3541 820.823 99.1684C820.636 98.9207 820.574 98.6731 820.574 98.2397V94.8967H819.393V98.4255C819.393 99.1065 819.58 99.6017 819.89 99.9113C820.263 100.221 820.698 100.407 821.382 100.407C821.755 100.407 822.066 100.283 822.377 100.159C822.687 99.9732 823.06 99.5398 823.06 99.5398ZM829.09 94.711H828.53L828.468 94.6491C828.095 94.6491 827.785 94.7729 827.536 94.9586C827.287 95.1443 827.039 95.392 826.852 95.7015L826.728 94.7729H825.795V100.159H826.914V97.373C826.914 96.8778 827.039 96.5063 827.349 96.1968C827.66 95.8872 828.033 95.7634 828.468 95.7634H828.966L829.09 94.711ZM830.271 99.5398C830.768 100.035 831.39 100.283 832.26 100.283L832.198 100.345C832.393 100.345 832.571 100.328 832.741 100.312C832.896 100.297 833.044 100.283 833.192 100.283C833.503 100.221 834.063 99.9732 834.063 99.9732V99.0446C833.97 99.0816 833.882 99.1242 833.797 99.1656C833.598 99.2629 833.41 99.3541 833.192 99.3541C832.944 99.416 832.633 99.416 832.322 99.416C831.887 99.416 831.452 99.2922 831.203 98.9826C830.955 98.735 830.768 98.3016 830.768 97.8064H834.373V97.1873C834.373 96.3825 834.187 95.8253 833.752 95.392C833.379 94.9586 832.757 94.711 832.074 94.711C831.328 94.711 830.706 94.9586 830.271 95.4539C829.836 95.9491 829.587 96.6301 829.587 97.4968C829.587 98.3636 829.774 99.0446 830.271 99.5398ZM831.203 95.8872C831.39 95.7015 831.701 95.5777 832.074 95.5777C832.446 95.5777 832.695 95.6396 832.944 95.8872C833.13 96.0729 833.255 96.4444 833.255 96.8778H830.83C830.892 96.4444 830.955 96.1349 831.203 95.8872ZM842.392 99.5398C842.827 99.0446 843.076 98.3636 843.076 97.4968L843.138 97.4349C843.138 96.5682 842.889 95.8872 842.454 95.392C841.957 94.8967 841.335 94.6491 840.589 94.6491C839.719 94.6491 839.098 94.8967 838.662 95.392C838.227 95.8872 837.979 96.5682 837.979 97.4349C837.979 97.9921 838.103 98.4874 838.289 98.9207C838.476 99.3541 838.725 99.6636 839.16 99.9113C839.595 100.159 840.03 100.283 840.527 100.283C841.335 100.283 841.957 100.035 842.392 99.5398ZM840.527 99.3541C839.595 99.3541 839.16 98.735 839.16 97.4968C839.16 96.8778 839.222 96.4444 839.47 96.1349C839.719 95.8253 840.03 95.6396 840.527 95.6396C841.46 95.6396 841.895 96.2587 841.895 97.4968C841.895 98.735 841.46 99.3541 840.527 99.3541ZM845.811 100.221V95.7015H847.054V94.8348H845.749V94.5252C845.749 94.2157 845.811 93.9681 845.935 93.8442C846.059 93.6585 846.246 93.5966 846.494 93.5966C846.743 93.5966 847.303 93.7204 847.303 93.7204L847.613 92.8537C847.24 92.668 846.805 92.668 846.432 92.668C845.811 92.668 845.376 92.7918 845.065 93.1013C844.754 93.4109 844.63 93.9062 844.63 94.5252V94.8348L843.759 95.1443V95.7015H844.63V100.221H845.811ZM854.016 100.221H855.197L855.135 100.159H855.197V97.3111C855.197 96.692 855.321 96.3206 855.508 96.011C855.756 95.7015 856.067 95.5777 856.502 95.5777C856.875 95.5777 857.062 95.7015 857.248 95.8872C857.434 96.1349 857.497 96.3825 857.497 96.8158V100.159H858.616V96.6301C858.616 95.9491 858.491 95.4539 858.18 95.1443C857.87 94.8348 857.434 94.6491 856.751 94.6491C856.378 94.6491 856.067 94.7729 855.756 94.8967C855.445 95.0205 855.072 95.5158 855.072 95.5158H855.01C854.699 94.9586 854.14 94.6491 853.332 94.6491C853.021 94.6491 852.71 94.711 852.4 94.8348C852.089 95.0205 851.716 95.4539 851.716 95.4539L851.529 94.7729H850.597V100.159H851.716V97.4968C851.716 96.8159 851.84 96.3825 852.027 96.073C852.275 95.7634 852.586 95.6396 853.021 95.6396C853.394 95.6396 853.643 95.7634 853.767 95.9491C853.954 96.1968 854.016 96.4444 854.016 96.8778V100.221ZM864.334 99.5398C864.769 99.0446 865.018 98.3636 865.018 97.4968L865.08 97.4349C865.08 96.5682 864.831 95.8872 864.396 95.392C863.899 94.8967 863.277 94.6491 862.532 94.6491C861.661 94.6491 861.04 94.8967 860.605 95.392C860.169 95.8872 859.921 96.5682 859.921 97.4349C859.921 97.9921 860.045 98.4874 860.232 98.9207C860.418 99.3541 860.729 99.6636 861.102 99.9113C861.537 100.159 861.972 100.283 862.469 100.283C863.277 100.283 863.899 100.035 864.334 99.5398ZM862.469 99.3541C861.537 99.3541 861.102 98.735 861.102 97.4968C861.102 96.8778 861.164 96.4444 861.413 96.1349C861.661 95.8253 861.972 95.6396 862.469 95.6396C863.402 95.6396 863.837 96.2587 863.837 97.4968C863.837 98.735 863.402 99.3541 862.469 99.3541ZM869.928 100.221H871.11V100.097V96.6301C871.11 95.33 870.488 94.6491 869.183 94.6491C868.81 94.6491 868.499 94.711 868.188 94.8348C867.877 95.0205 867.504 95.4539 867.504 95.4539L867.318 94.7729H866.385V100.159H867.504V97.4968C867.504 96.8159 867.629 96.3825 867.815 96.073C868.002 95.7634 868.375 95.6396 868.872 95.6396C869.245 95.6396 869.493 95.7634 869.68 95.9491C869.866 96.1349 869.928 96.4444 869.928 96.8778V100.221ZM873.099 99.5398C873.596 100.035 874.217 100.283 875.088 100.283L875.026 100.345C875.221 100.345 875.399 100.328 875.568 100.312C875.723 100.297 875.872 100.283 876.02 100.283C876.331 100.221 876.89 99.9732 876.89 99.9732V99.0446C876.803 99.0795 876.715 99.1194 876.629 99.1586C876.409 99.2584 876.199 99.3541 876.02 99.3541C875.771 99.416 875.461 99.416 875.15 99.416C874.715 99.416 874.28 99.2922 874.031 98.9826C873.782 98.735 873.596 98.3016 873.596 97.8064H877.201V97.1873C877.201 96.3825 877.015 95.8253 876.58 95.392C876.207 94.9586 875.585 94.711 874.901 94.711C874.155 94.711 873.534 94.9586 873.099 95.4539C872.664 95.9491 872.415 96.6301 872.415 97.4968C872.415 98.3636 872.601 99.0446 873.099 99.5398ZM873.969 95.8872C874.155 95.7015 874.466 95.5777 874.839 95.5777C875.212 95.5777 875.523 95.6396 875.709 95.8872C875.896 96.0729 876.02 96.4444 876.02 96.8778H873.596C873.658 96.4444 873.72 96.1349 873.969 95.8872ZM877.465 94.8348H877.45L877.388 94.6491L877.465 94.8348ZM877.465 94.8348L879.625 100.035L879.439 100.53C879.19 101.211 878.817 101.521 878.258 101.521H877.636V102.45C877.885 102.511 878.134 102.511 878.382 102.511C879.377 102.511 880.06 101.954 880.496 100.84L882.795 94.7729H881.552C881.371 95.2993 881.208 95.7708 881.065 96.1867C880.617 97.4828 880.356 98.238 880.309 98.4255C880.185 98.735 880.123 99.1065 880.123 99.1065C880.123 98.735 879.998 98.3017 879.812 97.8683L878.693 94.8348H877.465Z" fill="#FFF6DA"/>
<path fill-rule="evenodd" clip-rule="evenodd" d="M960.25 291H977.688L986.437 299.919H969L968.938 299.983V299.919L960.25 291.001L968.938 299.983H951.5L960.25 291ZM968.938 317.885H986.376L977.688 326.804H960.188L951.5 317.884V299.983H968.876L960.219 308.87L960.25 308.902V308.965L968.938 317.885ZM977.688 308.902H977.626L968.938 299.983H986.376L977.688 308.902ZM977.688 308.902H977.749L986.437 317.821H969L977.688 308.902ZM997.529 311.812C997.283 312.065 996.913 312.191 996.482 312.191L996.42 312.255C995.804 312.255 995.311 312.002 995.065 311.495C994.818 310.926 994.695 310.167 994.695 309.218V308.965C994.633 308.206 994.756 307.447 995.065 306.751C995.311 306.182 995.742 305.929 996.42 305.929C996.913 305.929 997.221 306.119 997.468 306.435C997.714 306.814 997.837 307.32 997.837 307.763L1001.04 307.7C1001.1 306.498 1000.67 305.233 999.809 304.411C998.947 303.588 997.837 303.209 996.42 303.209C994.756 303.209 993.462 303.715 992.538 304.79C991.614 305.866 991.183 307.257 991.183 308.965V309.218C991.059 310.736 991.614 312.191 992.538 313.393C993.462 314.405 994.756 314.975 996.482 314.975C997.714 314.975 998.885 314.595 999.809 313.773C1000.67 313.014 1001.16 311.875 1001.1 310.673H997.899C997.899 311.179 997.776 311.559 997.529 311.812ZM1007.51 306.435H1008.81L1009.18 303.209C1008.81 303.082 1008.5 303.082 1008.19 303.082C1007.7 303.082 1007.2 303.272 1006.83 303.588C1006.4 303.968 1006.09 304.411 1005.91 304.98L1005.79 303.272H1002.52V314.722H1005.97V307.194C1006.09 306.941 1006.28 306.751 1006.53 306.625C1006.77 306.498 1007.14 306.435 1007.51 306.435ZM1015.46 309.724L1015.4 309.661L1015.28 309.598L1013.55 303.209H1009.85L1013.73 314.785L1013.49 315.544C1013.37 315.86 1013.18 316.113 1012.93 316.303C1012.69 316.493 1012.32 316.556 1011.76 316.556L1011.58 316.493H1011.39L1010.96 319.023C1011.39 319.15 1011.7 319.213 1011.89 319.213C1012.07 319.276 1012.32 319.276 1012.63 319.276C1013.8 319.276 1014.66 319.023 1015.21 318.454C1015.77 317.885 1016.2 317.189 1016.57 316.366L1021.01 303.272H1017.31L1015.46 309.724ZM1028.34 306.688C1028.65 307.257 1028.77 308.08 1028.77 309.028L1028.71 309.092V309.281C1028.77 310.041 1028.65 310.736 1028.34 311.432C1028.09 311.938 1027.66 312.191 1027.04 312.191C1026.74 312.191 1026.37 312.128 1026.06 312.002C1025.81 311.875 1025.44 311.432 1025.44 311.432V306.625C1025.57 306.372 1025.81 306.119 1026.06 305.992C1026.31 305.866 1026.67 305.802 1027.04 305.802C1027.6 305.802 1028.09 306.119 1028.34 306.688ZM1031.11 313.33C1031.85 312.318 1032.22 310.926 1032.22 309.218V309.092C1032.28 307.574 1031.91 306.055 1031.11 304.79C1030.37 303.715 1029.26 303.145 1027.91 303.145C1026.86 303.082 1025.87 303.652 1025.32 304.6L1025.2 303.335H1021.93V319.086H1025.38V313.71C1026 314.469 1026.92 314.911 1027.91 314.911C1029.2 314.911 1030.37 314.342 1031.11 313.33ZM1037.89 303.272V300.425L1037.83 300.489H1034.32V303.335H1032.77V305.802H1034.32V311.053C1034.32 312.444 1034.62 313.393 1035.24 314.026C1035.79 314.658 1036.66 314.975 1037.83 314.975C1038.57 314.975 1039.31 314.911 1039.98 314.722L1039.74 312.065C1039.43 312.128 1039.12 312.128 1038.75 312.128C1038.57 312.128 1038.32 312.065 1038.14 311.875C1037.95 311.685 1037.89 311.369 1037.89 310.989V305.739H1039.8V303.272H1037.89ZM1044.54 311.369C1044.24 310.8 1044.11 310.041 1044.11 309.092V308.839C1044.11 307.953 1044.24 307.194 1044.54 306.625C1044.85 306.055 1045.35 305.802 1046.02 305.802C1046.7 305.802 1047.19 306.055 1047.5 306.625C1047.81 307.32 1047.93 308.08 1047.93 308.839V309.092C1047.93 310.041 1047.81 310.8 1047.5 311.369C1047.19 311.938 1046.7 312.191 1046.02 312.191C1045.35 312.191 1044.85 311.938 1044.54 311.369ZM1042.08 304.727C1041.09 305.866 1040.6 307.384 1040.66 308.902H1040.6V309.155C1040.54 310.673 1041.03 312.191 1042.02 313.33C1043 314.342 1044.36 314.911 1046.02 314.911C1047.69 314.911 1049.04 314.405 1049.97 313.33C1050.89 312.255 1051.38 310.863 1051.38 309.155V308.902C1051.45 307.384 1050.95 305.866 1049.97 304.727C1049.04 303.652 1047.69 303.082 1046.02 303.082C1044.36 303.082 1043 303.652 1042.08 304.727ZM1056.19 303.335V303.272L1056.31 303.335H1056.19ZM1056.19 303.335H1053.05V314.785H1056.5V306.561C1056.87 306.119 1057.42 305.866 1057.98 305.866C1058.53 305.866 1058.9 305.992 1059.15 306.245C1059.39 306.498 1059.52 307.004 1059.52 307.637V314.722H1062.97V307.637C1062.97 306.055 1062.66 304.917 1062.04 304.158C1061.43 303.462 1060.56 303.082 1059.46 303.082C1058.84 303.019 1058.22 303.209 1057.67 303.525C1057.11 303.841 1056.68 304.284 1056.31 304.853L1056.19 303.335ZM1068.58 306.372C1068.82 305.992 1069.19 305.802 1069.68 305.802C1070.24 305.802 1070.55 305.929 1070.79 306.245C1071.04 306.561 1071.16 307.004 1071.16 307.574V307.827H1068.14C1068.21 307.194 1068.33 306.751 1068.58 306.372ZM1065.99 313.33C1066.97 314.405 1068.27 314.911 1069.93 314.911V314.975C1070.79 314.975 1071.59 314.848 1072.4 314.595C1073.07 314.342 1073.75 314.026 1074.31 313.646L1073.5 311.495C1072.52 312.002 1071.47 312.191 1070.42 312.191C1069.81 312.191 1069.25 312.002 1068.88 311.622C1068.45 311.242 1068.27 310.736 1068.14 310.104H1074.55V308.206C1074.61 306.878 1074.18 305.486 1073.26 304.474C1072.4 303.525 1071.22 303.082 1069.68 303.082C1068.02 303.082 1066.79 303.652 1065.86 304.727C1064.94 305.802 1064.51 307.194 1064.51 308.965V309.345C1064.45 310.8 1065 312.255 1065.99 313.33ZM1085.64 309.914H1085.58H1085.52L1083.61 303.272H1081.39L1079.54 309.914H1079.48L1078.25 303.272H1075.05L1077.69 314.722H1080.65L1082.5 308.649H1082.56L1084.41 314.722H1087.37L1090.02 303.272H1086.81L1085.64 309.914ZM1096.67 310.736C1096.92 310.989 1097.1 311.495 1097.1 311.495V311.559C1097.1 311.938 1096.98 312.191 1096.73 312.318C1096.49 312.508 1096.12 312.571 1095.69 312.571C1095.13 312.571 1094.7 312.444 1094.39 312.191C1094.09 312.002 1093.9 311.622 1093.9 311.053L1090.76 311.116C1090.76 312.065 1091.19 313.014 1092.05 313.773C1092.91 314.595 1094.09 314.975 1095.63 314.975C1096.86 315.038 1098.09 314.658 1099.14 313.963C1100.06 313.33 1100.49 312.444 1100.49 311.432C1100.56 310.483 1100.19 309.661 1099.51 309.092C1098.58 308.459 1097.6 308.08 1096.49 307.89C1095.87 307.827 1095.32 307.637 1094.76 307.32C1094.52 307.131 1094.33 306.878 1094.33 306.561C1094.33 306.245 1094.45 305.992 1094.7 305.802C1094.95 305.549 1095.26 305.486 1095.63 305.486C1096.12 305.486 1096.43 305.613 1096.67 305.866C1096.92 306.119 1097.04 306.435 1097.04 306.878L1100.43 306.814C1100.43 305.739 1099.94 304.727 1099.14 304.158C1098.21 303.462 1097.04 303.145 1095.56 303.145C1094.21 303.145 1093.04 303.462 1092.24 304.158C1091.44 304.727 1091 305.676 1091 306.688C1091 307.574 1091.31 308.396 1091.99 308.965C1092.85 309.598 1093.9 309.977 1094.95 310.167C1095.56 310.23 1096.12 310.42 1096.67 310.736Z" fill="#F0B90B"/>
<path fill-rule="evenodd" clip-rule="evenodd" d="M1625.01 291.552C1625.13 291.307 1625.55 291 1625.55 291H1632.61C1639.38 291 1639.71 291 1639.85 291.165C1639.86 291.173 1639.87 291.182 1639.87 291.192C1639.89 291.208 1639.9 291.226 1639.92 291.245C1639.94 291.294 1639.99 291.343 1640.03 291.392C1640.09 291.466 1640.16 291.54 1640.16 291.613L1640.28 291.797V294.188V296.764C1640.22 296.948 1640.04 297.254 1639.86 297.377L1639.85 297.385C1639.62 297.561 1639.62 297.561 1635.73 297.561H1632.07V319.696H1635.79L1639.5 319.758H1639.68C1639.92 319.88 1640.16 320.125 1640.22 320.371V323.007C1640.22 324.848 1640.18 325.316 1640.16 325.493C1640.16 325.534 1640.16 325.559 1640.16 325.583C1640.1 325.767 1639.68 326.196 1639.68 326.196H1632.49L1625.49 326.134H1625.37C1625.19 326.012 1624.89 325.705 1624.89 325.521V308.537V291.736L1625.01 291.552ZM1653.99 291.552C1654.11 291.307 1654.53 291 1654.53 291H1661.59C1668.35 291 1668.69 291 1668.88 291.168C1668.89 291.177 1668.89 291.186 1668.91 291.196C1668.92 291.211 1668.94 291.228 1668.96 291.245C1669.02 291.368 1669.2 291.613 1669.2 291.613L1669.32 291.797V308.598C1669.32 325.031 1669.32 325.399 1669.26 325.583C1669.2 325.767 1668.96 326.012 1668.78 326.134L1668.66 326.196H1661.65L1654.65 326.134H1654.47C1654.29 326.012 1653.99 325.705 1653.93 325.521V322.885C1653.93 322.423 1653.93 322.044 1653.93 321.731V321.729V321.728V321.727C1653.92 320.545 1653.92 320.311 1654.03 320.155C1654.06 320.116 1654.09 320.082 1654.13 320.04L1654.15 320.02L1654.17 320.003C1654.29 319.941 1654.47 319.696 1654.47 319.696H1654.59H1658.36H1662.13V297.5H1658.48C1654.7 297.5 1654.59 297.442 1654.37 297.326L1654.35 297.316C1654.17 297.193 1653.99 297.009 1653.93 296.825L1653.92 296.803V296.785C1653.87 296.627 1653.87 296.455 1653.87 294.188V291.736L1653.99 291.552ZM1600.28 298.174L1599.5 298.419V305.961V313.503L1600.04 313.748C1600.88 314.178 1601.78 314.423 1602.67 314.546C1603.05 314.589 1603.7 314.571 1604.22 314.557C1604.44 314.551 1604.63 314.546 1604.77 314.546C1606.57 314.178 1607.94 313.197 1608.66 311.725C1609.5 310.008 1609.38 307.556 1608.42 305.9C1607.94 305.042 1607.28 304.428 1606.39 303.999C1605.55 303.57 1604.83 303.447 1603.81 303.509C1602.79 303.509 1602.13 303.754 1601.36 304.244L1601.06 304.428V301.179V297.929C1601.06 297.929 1600.7 298.051 1600.28 298.174ZM1605.01 305.042C1605.79 305.287 1606.51 305.777 1606.92 306.452C1607.4 307.188 1607.58 307.985 1607.58 309.088C1607.58 310.376 1607.28 311.296 1606.63 311.97C1606.21 312.4 1605.79 312.645 1605.13 312.89C1604.11 313.258 1602.43 313.135 1601.36 312.706L1601.12 312.583V309.272V305.961L1601.36 305.777C1601.78 305.409 1602.37 305.164 1602.97 305.042C1603.45 304.919 1603.57 304.919 1604.17 304.98C1604.59 304.98 1604.77 304.98 1605.01 305.042ZM1711.53 304.796C1711.53 304.674 1711.77 304.367 1713.15 302.773L1713.27 302.896C1714.53 301.424 1714.95 300.995 1714.95 300.995H1715.01V303.631H1718.36V304.98H1715.01V308.23V311.725C1715.13 312.338 1715.37 312.461 1716.14 312.461C1716.68 312.461 1717.28 312.338 1717.88 312.093C1718.12 311.97 1718.36 311.909 1718.36 311.909V312.584V313.381H1718.18C1717.28 313.749 1716.5 313.933 1715.66 313.933C1714.89 313.933 1714.35 313.749 1713.99 313.381C1713.69 313.074 1713.57 312.829 1713.45 312.4C1713.27 311.909 1713.27 311.603 1713.27 308.169V304.919H1711.53V304.796ZM1635.19 302.773C1635.19 302.773 1635.07 302.834 1635.01 302.895L1634.89 303.018V304.428C1634.89 305.777 1634.89 305.839 1634.95 305.9L1634.97 305.918C1634.99 305.943 1635.01 305.965 1635.03 305.983C1635.16 306.084 1635.37 306.084 1636.74 306.084H1638.24V310.805H1636.68H1635.13L1635.01 310.928L1634.89 311.051V312.461C1634.89 313.81 1634.89 313.871 1634.95 313.932C1634.96 313.943 1634.97 313.954 1634.98 313.964C1634.98 313.972 1634.99 313.979 1635 313.986C1635.12 314.116 1635.38 314.116 1640.4 314.116C1645.33 314.116 1645.71 314.116 1645.81 313.951C1645.82 313.937 1645.82 313.922 1645.83 313.906L1645.84 313.889C1645.84 313.884 1645.84 313.877 1645.85 313.871C1645.91 313.748 1645.91 313.626 1645.85 312.399C1645.85 311.173 1645.85 311.051 1645.79 310.989C1645.67 310.805 1645.61 310.805 1643.99 310.805H1642.49V306.084H1643.99C1645.34 306.084 1645.6 306.084 1645.72 305.955C1645.74 305.924 1645.76 305.886 1645.79 305.839C1645.85 305.716 1645.85 305.593 1645.79 304.367C1645.79 303.141 1645.79 303.018 1645.73 302.957C1645.72 302.947 1645.72 302.939 1645.71 302.93C1645.62 302.773 1645.62 302.773 1640.28 302.773H1635.19ZM1648.24 302.834C1648.24 302.834 1648.22 302.803 1648.18 302.951L1648.24 302.834ZM1648.18 302.956V302.957V302.951V302.956ZM1648.18 302.956C1648.3 302.895 1648.37 302.895 1649.74 302.895C1651.3 302.895 1651.35 302.895 1651.53 303.079C1651.59 303.141 1652.43 304.306 1653.39 305.655L1655.19 308.107V305.593C1655.19 303.141 1655.19 303.079 1655.25 303.018C1655.28 302.988 1655.3 302.964 1655.33 302.943C1655.47 302.834 1655.7 302.834 1657.1 302.834C1658.6 302.834 1658.66 302.834 1658.78 302.895C1658.8 302.904 1658.81 302.909 1658.83 302.915C1658.84 302.92 1658.85 302.925 1658.86 302.932C1659.02 303.017 1659.02 303.385 1659.02 308.536C1659.02 313.809 1659.02 313.932 1658.96 314.055L1658.94 314.08C1658.91 314.121 1658.89 314.155 1658.86 314.182C1658.73 314.3 1658.49 314.3 1657.22 314.3L1655.79 314.178H1655.61C1655.49 314.116 1655.07 313.626 1653.63 311.725L1651.83 309.395V311.664C1651.78 314.059 1651.77 314.061 1651.62 314.162C1651.61 314.167 1651.6 314.172 1651.59 314.178C1651.53 314.239 1651.41 314.239 1649.92 314.239C1648.18 314.239 1648.18 314.239 1648.06 313.994C1648 313.871 1648 313.748 1648 308.476V308.475C1648 304.434 1648.11 303.28 1648.18 302.956ZM1677.52 303.141C1676.8 303.202 1676.02 303.386 1675.37 303.754C1674.35 304.244 1673.45 305.164 1673.03 306.145C1672.61 307.065 1672.43 308.169 1672.55 309.334C1672.79 311.909 1674.59 313.748 1677.22 314.116C1677.7 314.178 1678.72 314.178 1679.26 314.116C1679.61 314.116 1679.86 314.051 1680.19 313.967C1680.3 313.937 1680.43 313.904 1680.58 313.871L1680.93 313.748V312.951V312.154C1680.93 312.154 1680.76 312.154 1680.58 312.277C1680.16 312.461 1679.5 312.583 1678.96 312.645C1678.36 312.706 1677.52 312.645 1677.04 312.583C1676.62 312.461 1676.26 312.338 1675.91 312.093C1675.49 311.848 1675.31 311.664 1675.01 311.296C1674.41 310.56 1674.11 309.702 1674.11 308.659C1674.11 306.758 1675.19 305.287 1676.98 304.796C1677.4 304.674 1677.4 304.674 1678.06 304.674C1678.6 304.674 1678.84 304.674 1679.14 304.735L1679.22 304.753L1679.3 304.771L1679.47 304.808C1679.91 304.907 1680.35 305.005 1680.64 305.103L1680.87 305.225V304.428V303.631L1680.58 303.509C1680.22 303.386 1679.56 303.263 1679.14 303.202C1678.99 303.202 1678.8 303.196 1678.61 303.19C1678.18 303.176 1677.69 303.16 1677.4 303.202L1677.52 303.141ZM1702.67 304.49C1703.39 303.754 1704.41 303.263 1705.43 303.141C1705.73 303.018 1706.44 303.079 1706.8 303.141C1708.66 303.57 1710.04 305.103 1710.4 307.188C1710.4 307.38 1710.4 307.615 1710.41 307.863C1710.42 308.407 1710.44 309.016 1710.4 309.395C1710.28 310.376 1709.92 311.296 1709.38 312.032C1709.08 312.461 1708.6 312.951 1708.24 313.197C1707.7 313.626 1707.04 313.933 1706.38 314.055C1705.67 314.239 1704.53 314.178 1703.63 313.933C1703.39 313.871 1702.73 313.565 1702.55 313.442C1702.49 313.381 1702.43 313.381 1702.43 313.381V315.711V318.041H1700.82V303.509H1702.43V304.735L1702.67 304.49ZM1707.7 305.41C1707.4 305.103 1706.8 304.796 1706.38 304.735L1706.32 304.674C1706.22 304.674 1706.07 304.668 1705.92 304.662C1705.56 304.648 1705.14 304.631 1704.89 304.674C1704.58 304.726 1704.36 304.825 1704.04 304.968C1703.98 304.991 1703.93 305.016 1703.87 305.042C1703.39 305.226 1703.03 305.532 1702.67 305.9L1702.43 306.145V311.848H1702.55C1702.85 312.093 1703.33 312.338 1703.81 312.461C1704.41 312.706 1704.65 312.706 1705.31 312.706C1705.84 312.706 1705.96 312.706 1706.2 312.645C1706.8 312.461 1707.28 312.216 1707.7 311.786C1708.24 311.235 1708.6 310.56 1708.78 309.579C1708.84 309.15 1708.84 307.985 1708.78 307.556C1708.6 306.636 1708.24 305.9 1707.7 305.41ZM1724.47 303.141C1724.47 303.141 1723.93 303.202 1723.75 303.263C1721.11 303.876 1719.5 306.084 1719.68 308.966C1719.74 310.437 1720.22 311.541 1721.05 312.461C1721.77 313.197 1722.55 313.626 1723.57 313.932C1724.17 314.116 1724.59 314.116 1725.31 314.116C1726.2 314.116 1726.86 313.932 1727.64 313.564C1728.72 313.013 1729.44 312.338 1729.98 311.234C1730.22 310.744 1730.34 310.253 1730.46 309.702C1730.52 309.211 1730.52 308.107 1730.46 307.555C1730.28 306.39 1729.8 305.409 1729.02 304.674C1728.12 303.754 1726.98 303.263 1725.6 303.141H1724.47ZM1725.9 304.612C1726.92 304.796 1727.7 305.409 1728.24 306.206C1728.72 306.942 1728.9 307.617 1728.9 308.659C1728.9 309.334 1728.9 309.579 1728.72 310.131C1728.18 311.848 1726.68 312.89 1724.89 312.767C1723.03 312.645 1721.65 311.418 1721.35 309.518C1721.29 309.027 1721.29 308.169 1721.35 307.739C1721.41 307.372 1721.59 306.881 1721.71 306.574C1722.25 305.532 1723.21 304.796 1724.35 304.612C1724.77 304.551 1725.55 304.551 1725.9 304.612ZM1684.95 305.716C1685.67 304.122 1686.56 303.509 1688.42 303.202L1688.48 303.263H1688.66H1688.78V305.103H1688.48C1687.34 305.164 1686.62 305.471 1685.96 306.145C1685.49 306.636 1685.25 307.065 1685.01 307.862C1684.77 308.537 1684.77 308.659 1684.77 311.357V313.81H1683.99H1683.21V303.57H1683.99H1684.77V304.858V306.145L1684.95 305.716ZM1615.55 303.447H1615.19C1614.29 303.57 1613.45 303.938 1612.79 304.428C1612.43 304.674 1611.89 305.287 1611.66 305.655C1611.3 306.268 1611.06 306.82 1610.88 307.617C1610.82 308.046 1610.82 308.107 1610.82 308.905C1610.82 309.824 1610.82 310.07 1611 310.683C1611.54 312.829 1613.15 314.239 1615.49 314.546H1617.4C1618.18 314.484 1619.26 314.178 1620.04 313.871H1620.22V312.951V312.154L1619.8 312.4C1618.72 312.951 1617.46 313.197 1616.21 313.135C1615.67 313.135 1615.37 313.074 1614.89 312.89C1613.75 312.461 1612.91 311.602 1612.61 310.315C1612.59 310.168 1612.57 310.001 1612.54 309.834C1612.51 309.584 1612.47 309.334 1612.43 309.15V309.027H1621.06V308.782C1621.06 308.414 1621 307.74 1620.88 307.31C1620.34 305.164 1618.9 303.693 1616.92 303.386H1615.61L1615.55 303.447ZM1616.75 304.858C1617.4 304.98 1618 305.226 1618.42 305.655C1618.9 306.145 1619.26 306.881 1619.32 307.617V307.862H1615.91H1612.43C1612.43 307.74 1612.55 307.249 1612.67 307.004C1612.91 306.452 1613.33 305.9 1613.81 305.593C1614.59 305.042 1615.73 304.796 1616.69 304.919L1616.75 304.858ZM1689.25 303.692C1689.22 303.612 1689.2 303.57 1689.2 303.57V303.692H1689.25ZM1691.29 308.659C1690.31 306.272 1689.46 304.207 1689.25 303.692H1690.04H1690.88L1692.49 307.678C1693.39 309.885 1694.17 311.725 1694.17 311.725C1694.18 311.733 1694.18 311.744 1694.19 311.745C1694.23 311.754 1694.35 311.389 1695.9 307.678C1696.11 307.182 1696.31 306.678 1696.49 306.215C1696.86 305.305 1697.16 304.549 1697.28 304.306L1697.58 303.631H1698.36H1699.14C1699.1 303.631 1698.55 304.953 1697.72 306.945C1697.25 308.076 1696.69 309.423 1696.08 310.866L1693.09 318.041H1692.31H1691.53C1691.56 317.996 1691.76 317.507 1692.02 316.888C1692.48 315.815 1693.1 314.35 1693.21 314.116L1693.39 313.687L1691.29 308.659Z" fill="#F0B90B"/>
<path d="M1826.12 57.2044C1825.51 57.319 1824.89 57.3822 1824.27 57.3935C1821.21 57.3935 1819.96 56.7167 1819.96 53.0806V44.5559L1817.41 44.1778C1817.27 44.1688 1817.13 44.1081 1817.03 44.0072C1816.93 43.9063 1816.87 43.7721 1816.86 43.6298V42.4131C1816.86 42.2678 1816.92 42.1284 1817.02 42.0257C1817.12 41.9229 1817.26 41.8651 1817.41 41.8651H1819.96V39.6429C1819.97 39.5003 1820.03 39.3658 1820.13 39.2647C1820.23 39.1638 1820.36 39.1033 1820.51 39.0948L1823.03 38.6619H1823.14C1823.2 38.6555 1823.25 38.6613 1823.31 38.6791C1823.36 38.6968 1823.41 38.7259 1823.45 38.7645C1823.49 38.8031 1823.52 38.8502 1823.55 38.9025C1823.57 38.9548 1823.58 39.0111 1823.57 39.0675V41.8706H1826.02C1826.16 41.8706 1826.3 41.9283 1826.41 42.0311C1826.51 42.1339 1826.57 42.2733 1826.57 42.4186V44.0189C1826.57 44.1642 1826.51 44.3036 1826.41 44.4064C1826.3 44.5092 1826.16 44.5669 1826.02 44.5669H1823.57V53.0806C1823.57 54.4369 1823.66 54.5986 1824.63 54.5986H1826.07C1826.43 54.5986 1826.64 54.7356 1826.64 55.0068V56.7167C1826.64 56.988 1826.48 57.1414 1826.12 57.2044ZM1841.05 50.7733H1832.2V50.8528C1832.2 52.4284 1832.85 54.2999 1835.46 54.2999C1837.44 54.2999 1839.31 54.1382 1840.45 54.0259H1840.53C1840.81 54.0259 1841.02 54.1629 1841.02 54.4341V56.2262C1841.02 56.6592 1840.94 56.8482 1840.45 56.9304C1838.72 57.2763 1836.95 57.4307 1835.18 57.3908C1832.47 57.3908 1828.61 55.9275 1828.61 50.5788V48.573C1828.61 44.3395 1830.97 41.6788 1835.12 41.6788C1839.28 41.6788 1841.59 44.5368 1841.59 48.573V50.0938C1841.59 50.5267 1841.43 50.7733 1841.05 50.7733ZM1837.99 48.1126C1837.99 45.9946 1836.82 44.7724 1835.14 44.7724C1833.46 44.7724 1832.24 45.9671 1832.24 48.1126V48.2195H1837.99V48.1126ZM1853.8 57.0428C1852.65 57.2967 1851.48 57.4144 1850.3 57.3935C1846.77 57.3935 1844.11 55.2233 1844.11 50.798V48.2743C1844.11 43.8518 1846.77 41.6788 1850.3 41.6788C1851.48 41.6584 1852.65 41.777 1853.8 42.0323C1854.26 42.1419 1854.37 42.3063 1854.37 42.7365V44.5012C1854.37 44.7752 1854.16 44.9094 1853.88 44.9094H1853.8C1852.64 44.7581 1851.47 44.6949 1850.3 44.7204C1849.02 44.7204 1847.69 45.452 1847.69 48.2826V50.8062C1847.69 53.6313 1849.02 54.3684 1850.3 54.3684C1851.47 54.3924 1852.64 54.3292 1853.8 54.1794H1853.88C1854.16 54.1794 1854.37 54.3136 1854.37 54.5849V56.3495C1854.37 56.7715 1854.26 56.9332 1853.8 57.0428ZM1869.35 57.1771H1866.86C1866.71 57.1721 1866.57 57.1097 1866.47 57.0033C1866.36 56.8969 1866.31 56.7548 1866.31 56.6071V47.6769C1866.31 45.3177 1865.9 44.7204 1864.08 44.7204C1863.16 44.7204 1862.07 45.0464 1860.93 45.641V56.6016C1860.93 56.7492 1860.88 56.8914 1860.77 56.9978C1860.67 57.1043 1860.53 57.1666 1860.38 57.1716H1857.89C1857.74 57.1666 1857.6 57.1043 1857.5 56.9978C1857.4 56.8914 1857.34 56.7492 1857.34 56.6016V37.0644C1857.34 36.9191 1857.4 36.7797 1857.5 36.6769C1857.6 36.5741 1857.74 36.5164 1857.89 36.5164H1860.38C1860.53 36.5164 1860.67 36.5741 1860.77 36.6769C1860.87 36.7797 1860.93 36.9191 1860.93 37.0644V42.6845C1861.97 42.0597 1863.11 41.6788 1865.04 41.6788C1868.79 41.6788 1869.9 44.3395 1869.9 47.6769V56.6071C1869.9 56.7548 1869.85 56.8969 1869.74 57.0033C1869.64 57.1097 1869.5 57.1721 1869.35 57.1771Z" fill="#FFF6DA"/>
<path d="M1879.45 57.3935C1875.19 57.3935 1872.96 54.5192 1872.96 50.6364V48.4442C1872.96 44.5615 1875.19 41.6843 1879.45 41.6843C1883.71 41.6843 1885.94 44.556 1885.94 48.4388V50.6309C1885.94 54.5192 1883.71 57.3935 1879.45 57.3935ZM1882.35 48.4388C1882.35 46.211 1881.35 44.7725 1879.45 44.7725C1877.55 44.7725 1876.54 46.211 1876.54 48.4388V50.6309C1876.54 52.8559 1877.55 54.2944 1879.45 54.2944C1881.35 54.2944 1882.35 52.8559 1882.35 50.6309V48.4388ZM1895.19 57.3935C1894.32 57.3867 1893.45 57.3235 1892.58 57.2045V62.0107C1892.58 62.156 1892.53 62.2955 1892.42 62.3982C1892.32 62.501 1892.18 62.5587 1892.04 62.5587H1889.54C1889.39 62.5587 1889.25 62.501 1889.15 62.3982C1889.05 62.2955 1888.99 62.156 1888.99 62.0107V43.1174C1888.99 42.7119 1889.1 42.5475 1889.73 42.3858C1891.51 41.9333 1893.34 41.6959 1895.18 41.6788C1899.55 41.6788 1901.67 44.2573 1901.67 48.4908V50.5816C1901.68 54.8151 1899.56 57.3935 1895.19 57.3935ZM1898.09 48.4908C1898.09 46.2659 1897.52 44.6108 1895.19 44.6108C1894.32 44.6026 1893.45 44.6659 1892.58 44.7999V54.2725C1893.45 54.387 1894.32 54.4511 1895.19 54.4643C1897.52 54.4643 1898.09 52.8203 1898.09 50.5816V48.4908ZM1916.63 50.7734H1907.78V50.8528C1907.78 52.4284 1908.43 54.2999 1911.04 54.2999C1913.02 54.2999 1914.89 54.1383 1916.03 54.0259H1916.11C1916.39 54.0259 1916.6 54.1629 1916.6 54.4342V56.2262C1916.6 56.6592 1916.52 56.8483 1916.03 56.9305C1914.3 57.2763 1912.53 57.4307 1910.77 57.3908C1908.05 57.3908 1904.19 55.9276 1904.19 50.5788V48.573C1904.19 44.3395 1906.55 41.6788 1910.71 41.6788C1914.86 41.6788 1917.18 44.5368 1917.18 48.573V50.0938C1917.18 50.5267 1917.01 50.7734 1916.63 50.7734ZM1913.56 48.1127C1913.56 45.9946 1912.4 44.7725 1910.71 44.7725C1909.03 44.7725 1907.81 45.9672 1907.81 48.1127V48.2196H1913.56V48.1127ZM1931.64 56.6893C1929.85 57.1396 1928.02 57.3761 1926.18 57.3935C1921.8 57.3935 1919.69 54.8151 1919.69 50.5816V48.4908C1919.69 44.2573 1921.81 41.6788 1926.18 41.6788C1927.05 41.6869 1927.92 41.751 1928.79 41.8706V37.0644C1928.79 36.9191 1928.84 36.7797 1928.95 36.6769C1929.05 36.5742 1929.19 36.5164 1929.33 36.5164H1931.83C1931.98 36.5164 1932.12 36.5742 1932.22 36.6769C1932.32 36.7797 1932.38 36.9191 1932.38 37.0644V55.9714C1932.37 56.3632 1932.25 56.5277 1931.64 56.6893ZM1928.79 44.8108C1927.92 44.6985 1927.05 44.6354 1926.18 44.6217C1923.85 44.6217 1923.28 46.2659 1923.28 48.5018V50.5925C1923.28 52.8175 1923.85 54.4753 1926.18 54.4753C1927.05 54.4841 1927.92 54.42 1928.79 54.2835V44.8108ZM1939.1 39.8347H1936.47C1936.32 39.8349 1936.18 39.7778 1936.07 39.6756C1935.97 39.5734 1935.9 39.4341 1935.9 39.2867V36.9028C1935.9 36.7552 1935.96 36.6154 1936.07 36.5131C1936.18 36.4108 1936.32 36.354 1936.47 36.3547H1939.1C1939.25 36.3547 1939.39 36.4125 1939.49 36.5153C1939.59 36.618 1939.65 36.7574 1939.65 36.9028V39.2922C1939.65 39.4366 1939.59 39.5745 1939.49 39.6761C1939.38 39.7778 1939.24 39.8347 1939.1 39.8347ZM1939.02 57.1771H1936.52C1936.37 57.1721 1936.23 57.1098 1936.13 57.0033C1936.03 56.8969 1935.97 56.7548 1935.97 56.6071V42.4132C1935.97 42.2678 1936.03 42.1285 1936.13 42.0257C1936.23 41.9229 1936.37 41.8652 1936.52 41.8652H1939.02C1939.16 41.8652 1939.3 41.9229 1939.41 42.0257C1939.51 42.1285 1939.57 42.2678 1939.57 42.4132V56.6071C1939.57 56.7548 1939.51 56.8969 1939.41 57.0033C1939.31 57.1098 1939.17 57.1721 1939.02 57.1771ZM1953.97 57.1771H1951.66C1951.52 57.1771 1951.38 57.1194 1951.28 57.0166C1951.17 56.9138 1951.12 56.7744 1951.12 56.629V56.1961C1949.97 56.9417 1948.64 57.3545 1947.28 57.3881C1945.03 57.3881 1942.59 56.5222 1942.59 52.8559V52.7573C1942.59 49.6609 1944.48 48.0606 1949.21 48.0606H1950.92V46.8632C1950.92 45.0986 1950.13 44.6711 1948.53 44.6711C1947.05 44.6663 1945.58 44.7386 1944.11 44.8876H1943.97C1943.7 44.8876 1943.48 44.8053 1943.48 44.4272V42.6845C1943.48 42.3858 1943.64 42.194 1944 42.1145C1945.49 41.8213 1947.01 41.6753 1948.53 41.6788C1952.38 41.6788 1954.5 43.3887 1954.5 46.8632V56.6345C1954.5 56.7756 1954.44 56.9108 1954.34 57.0119C1954.25 57.113 1954.11 57.1721 1953.97 57.1771ZM1950.93 50.4473H1949.22C1946.76 50.4473 1946.21 51.2337 1946.21 52.7545V52.8613C1946.21 54.1931 1946.81 54.5438 1948.16 54.5438C1949.13 54.5218 1950.09 54.2611 1950.93 53.7848V50.4473ZM1794.4 40.2403L1793.8 40.4567V62.8464L1801.04 58.813V45.6192L1809.03 42.7174L1809.71 42.4707L1809.76 34.6805L1794.4 40.2403ZM1800.78 36.374L1801.36 36.5849L1801.75 36.7247L1809.2 34.0256L1801.97 31.3184L1801.04 31.6582L1794.41 34.0667L1800.2 36.1629L1800.78 36.374Z" fill="#FFF6DA"/>
<path d="M1792.64 40.4569L1792.04 40.2404L1785.4 37.8373V58.8131L1792.64 62.8439V40.4569Z" fill="#FFF6DA"/>
<path d="M1784.23 37.4152L1776.68 34.6805L1776.73 42.4707L1777.4 42.7174L1784.23 45.1972V37.4152Z" fill="#FFF6DA"/>
<path d="M1792.63 39.6047L1793.22 39.8184L1793.8 39.6047L1800.57 37.1385L1800.2 37.0043L1799.6 36.7905L1793.23 34.4943L1785.4 31.6582L1784.79 31.4363L1784.47 31.3212L1777.23 34.0257L1792.63 39.6047ZM1787.69 33.3242L1789.24 33.9682L1787.38 34.6285L1785.83 33.9819L1787.69 33.3242ZM1786.59 35.2807L1787.87 35.8123L1786.34 36.3603L1785.07 35.8233L1786.59 35.2807ZM1789.88 34.7327L1791.15 35.2643L1789.63 35.8123L1788.35 35.2807L1789.88 34.7327ZM1784.83 32.1049L1786.13 32.6392L1784.62 33.1872L1783.32 32.6474L1784.83 32.1049ZM1780.67 34.36L1783.32 33.4256L1785.53 34.3436L1782.88 35.2807L1780.67 34.36ZM1781.87 29.9182L1780.4 30.4115L1781.63 30.9184L1783.1 30.4224L1781.87 29.9182ZM1775.55 30.3046L1777.54 31.1184L1779.9 30.3238L1777.92 29.5127L1775.55 30.3046ZM1777.17 31.8227L1775.44 31.1129L1773.37 31.8062L1775.11 32.5159L1777.17 31.8227ZM1775.65 29.5072L1774.22 28.9181L1772.5 29.4935L1773.94 30.0827L1775.65 29.5072ZM1778.85 28.2358L1777.9 27.8467L1776.78 28.2276L1777.72 28.6139L1778.85 28.2358ZM1775.28 27.3864L1774.34 27L1773.21 27.3781L1774.16 27.7672L1775.28 27.3864Z" fill="#FFF6DA"/>
<path fill-rule="evenodd" clip-rule="evenodd" d="M1520.56 116.168C1520.6 116.611 1520.63 117.054 1520.63 117.465V117.528H1521.14C1521.3 117.307 1521.43 117.101 1521.56 116.896C1521.69 116.69 1521.82 116.485 1521.98 116.263C1524.24 113.076 1526.56 109.858 1528.86 106.673C1529.89 105.244 1530.92 103.822 1531.93 102.411C1532.12 102.221 1532.57 101.905 1532.57 101.905H1538.48C1534.05 108.041 1529.68 114.113 1525.38 120.122C1525.38 120.185 1525.51 120.311 1525.51 120.311C1526.69 120.949 1527.88 121.604 1529.07 122.262C1531.2 123.432 1533.35 124.618 1535.53 125.751C1535.85 125.941 1536.49 125.941 1536.81 125.751C1539.56 124.166 1542.33 122.605 1545.11 121.038C1546.88 120.041 1548.65 119.043 1550.42 118.034C1550.94 117.718 1551.26 117.212 1551.26 116.58C1551.28 116.069 1551.3 115.545 1551.33 115.014C1551.39 113.834 1551.45 112.614 1551.45 111.393C1551.43 110.376 1551.41 109.353 1551.4 108.327C1551.37 106.288 1551.34 104.241 1551.26 102.221C1551.26 101.589 1551.19 101.083 1551.06 100.324C1550.81 100.64 1550.74 100.703 1550.62 100.83C1548.11 104.388 1545.5 108.053 1542.89 111.717L1542.88 111.721C1542.01 112.942 1541.14 114.162 1540.28 115.378C1539.96 115.821 1539.64 116.01 1539.12 116.01H1534.37C1534.27 116.01 1534.16 115.979 1534.05 115.947C1533.94 115.915 1533.82 115.884 1533.73 115.884C1537.4 110.651 1541.11 105.465 1544.8 100.324V100.319L1544.81 100.297C1545.44 99.4192 1546.07 98.5425 1546.7 97.6672C1546.62 97.59 1546.57 97.5233 1546.54 97.4713C1546.48 97.3955 1546.45 97.351 1546.38 97.351C1545.29 96.7607 1544.19 96.1563 1543.1 95.5519C1540.92 94.3431 1538.74 93.1342 1536.55 92.0378C1536.1 91.9746 1535.53 91.9746 1535.08 92.1643C1533.18 93.1944 1531.28 94.2594 1529.38 95.3243C1526.85 96.7443 1524.32 98.1642 1521.78 99.5015C1520.82 100.071 1520.5 100.767 1520.5 101.715V114.872C1520.5 115.283 1520.53 115.726 1520.56 116.168ZM1637.69 112.468C1637.75 110.571 1637.04 109.242 1635.25 108.483C1635.28 108.466 1635.31 108.454 1635.34 108.442C1635.41 108.411 1635.47 108.386 1635.57 108.294C1636.98 107.535 1637.49 106.206 1637.17 104.751C1636.85 103.36 1635.76 102.538 1634.41 102.348C1633.43 102.146 1632.37 102.125 1631.3 102.103C1630.69 102.09 1630.07 102.078 1629.47 102.032H1626.19C1626.06 102.285 1626.06 102.474 1626.06 102.474V115.062C1626.06 115.694 1626.39 115.694 1626.83 115.694H1632.42C1633.26 115.694 1633.96 115.694 1634.73 115.504C1636.34 115.062 1637.56 113.796 1637.69 112.468ZM1630.68 113.003C1630.24 112.989 1629.79 112.974 1629.34 112.974C1629.34 112.046 1629.34 111.117 1629.47 110.128C1630.75 110.128 1632.1 110.191 1633.38 110.318C1634.09 110.381 1634.54 110.887 1634.54 111.646C1634.41 112.342 1633.9 112.848 1633.26 112.974C1632.4 113.058 1631.55 113.031 1630.68 113.003ZM1630.49 107.499C1630.11 107.485 1629.72 107.471 1629.34 107.471H1629.27V104.751C1629.66 104.751 1630.06 104.737 1630.45 104.723C1631.23 104.695 1632 104.667 1632.68 104.751C1633.32 104.878 1633.96 105.194 1633.96 106.016C1633.96 106.839 1633.64 107.345 1632.81 107.471C1632.04 107.556 1631.27 107.528 1630.49 107.499ZM1601.44 107.626V107.629C1602 109.447 1602.56 111.267 1603.14 113.101H1603.33C1603.91 111.267 1604.47 109.449 1605.03 107.631L1605.04 107.63C1605.6 105.811 1606.16 103.993 1606.74 102.158H1608.73C1608.28 103.415 1607.86 104.672 1607.45 105.923V105.924C1606.97 107.379 1606.48 108.826 1605.97 110.254C1605.78 110.834 1605.57 111.406 1605.37 111.982C1605.01 112.975 1604.65 113.98 1604.36 115.062C1604.2 115.876 1603.61 115.851 1603.04 115.828C1602.94 115.824 1602.85 115.821 1602.76 115.821C1602.24 115.821 1601.92 115.631 1601.79 115.062C1600.83 111.709 1599.8 108.483 1598.65 104.878C1598.2 106.017 1597.88 107.092 1597.62 107.977C1597.23 109.179 1596.86 110.349 1596.5 111.519C1596.13 112.69 1595.76 113.86 1595.37 115.062C1595.24 115.568 1594.92 115.821 1594.41 115.821C1594.25 115.781 1594.06 115.797 1593.88 115.812C1593.47 115.847 1593.06 115.882 1592.93 115.315C1592.19 113.132 1591.49 110.966 1590.78 108.8V108.798C1590.07 106.633 1589.37 104.466 1588.63 102.285C1588.7 102.285 1588.74 102.241 1588.76 102.205C1588.78 102.18 1588.8 102.158 1588.82 102.158C1590.62 102.032 1590.75 102.032 1591.26 103.739C1591.38 104.101 1591.49 104.463 1591.61 104.823C1592.45 107.485 1593.29 110.11 1594.02 112.784C1594.02 112.845 1594.05 112.891 1594.09 112.95C1594.13 113.014 1594.18 113.095 1594.22 113.227C1594.75 111.444 1595.3 109.699 1595.85 107.961V107.959C1596.3 106.554 1596.74 105.152 1597.17 103.739C1597.28 103.426 1597.37 103.172 1597.44 102.965C1597.59 102.503 1597.67 102.279 1597.82 102.178C1597.97 102.085 1598.18 102.097 1598.59 102.122C1598.86 102.137 1599.21 102.158 1599.67 102.158H1599.74C1600.32 103.991 1600.88 105.808 1601.44 107.626ZM1662.6 112.342C1662.31 112.026 1662.02 111.709 1661.7 111.393C1658.62 113.48 1656.69 113.48 1655.02 111.52C1653.74 110.002 1653.87 107.471 1655.22 106.017C1655.86 105.258 1656.69 104.878 1657.66 104.752C1659.26 104.499 1660.55 105.258 1661.7 106.396C1661.85 106.222 1662 106.051 1662.14 105.882C1662.63 105.314 1663.1 104.767 1663.5 104.182C1660.8 101.146 1655.73 101.083 1652.91 103.866C1650.14 106.712 1650.14 111.52 1653.55 114.303C1656.5 116.706 1661 116.327 1663.5 113.291C1663.18 112.974 1662.89 112.658 1662.6 112.342ZM1564.04 105.574V115.694H1562.11V102.222C1563.39 101.905 1564.23 102.222 1564.93 103.234C1566.28 105.196 1567.74 107.159 1569.25 109.199C1569.99 110.183 1570.73 111.186 1571.48 112.215V102.095H1573.41V115.504C1572.06 115.947 1571.74 115.694 1570.97 114.682C1570.62 114.203 1570.26 113.727 1569.91 113.253C1568.04 110.724 1566.21 108.257 1564.42 105.7C1564.36 105.7 1564.31 105.672 1564.25 105.635C1564.19 105.594 1564.11 105.544 1563.97 105.511L1564.04 105.574ZM1579.13 109.748H1585.68L1585.61 109.685C1585.61 109.053 1585.61 108.483 1585.74 107.724H1579.19V103.676H1586.57V102.032H1577.2V115.568H1586.7V113.796H1579.13V109.748ZM1650.27 102.032L1650.4 102.221C1650.53 103.95 1649.72 104.815 1647.96 104.815H1646.36V115.568H1643.21V104.815H1639.93C1639.16 104.815 1638.97 104.625 1638.97 103.866C1638.97 102.601 1639.61 101.968 1640.9 101.968H1650.27V102.032ZM1610.02 112.984C1609.91 113.18 1609.8 113.386 1609.69 113.607H1609.56C1611.49 115.378 1613.74 116.074 1616.24 115.884C1617.78 115.694 1619.19 114.935 1619.71 113.48C1620.48 111.393 1620.03 109.622 1617.4 108.61C1616.75 108.357 1616.13 108.12 1615.5 107.883C1614.88 107.645 1614.25 107.408 1613.61 107.155C1612.84 106.839 1612.45 106.27 1612.64 105.511C1612.84 105.005 1613.35 104.562 1613.8 104.246C1614.12 104.056 1614.63 103.929 1615.08 104.056C1615.9 104.177 1616.72 104.4 1617.56 104.629C1618.03 104.759 1618.51 104.89 1619 105.005C1619.15 104.752 1619.27 104.479 1619.41 104.173C1619.52 103.943 1619.63 103.695 1619.77 103.423C1617.78 102.285 1615.66 101.779 1613.35 102.411C1611.68 102.791 1610.65 103.929 1610.53 105.194C1610.33 107.408 1611.17 108.42 1612.97 109.179C1613.4 109.33 1613.84 109.471 1614.29 109.614C1614.98 109.831 1615.67 110.051 1616.37 110.318C1617.07 110.634 1617.72 111.014 1617.85 111.962C1617.97 112.974 1617.07 113.797 1615.73 113.923C1613.67 114.05 1612 113.291 1610.53 111.962C1610.4 112.291 1610.22 112.621 1610.02 112.984Z" fill="#FFF6DA"/>
<path fill-rule="evenodd" clip-rule="evenodd" d="M1908.41 212.011C1910.47 212.16 1912.12 213.831 1912.27 215.893C1912.44 218.363 1910.51 220.406 1908.09 220.387C1906.93 220.387 1905.87 219.923 1905.11 219.143C1904.46 218.474 1903.59 218.084 1902.66 218.084H1902.36C1901.43 218.084 1900.56 218.474 1899.91 219.143C1899.15 219.904 1898.09 220.387 1896.92 220.387C1895.76 220.387 1894.7 219.923 1893.94 219.143C1893.29 218.474 1892.42 218.084 1891.49 218.084H1891.15C1890.23 218.084 1889.35 218.474 1888.7 219.124L1888.67 219.161L1888.63 219.199C1887.98 219.849 1887.59 220.721 1887.59 221.65V221.984C1887.59 222.913 1887.98 223.786 1888.65 224.436C1889.41 225.197 1889.89 226.256 1889.89 227.426C1889.89 228.596 1889.43 229.655 1888.65 230.416C1887.98 231.066 1887.59 231.939 1887.59 232.868V233.239C1887.59 234.168 1887.98 235.041 1888.65 235.691L1888.69 235.728C1889.33 236.397 1890.23 236.75 1891.13 236.75H1891.52C1892.43 236.75 1893.31 236.359 1893.96 235.709C1894.72 234.948 1895.77 234.484 1896.92 234.484C1899.36 234.484 1901.28 236.527 1901.12 238.997C1900.97 241.077 1899.3 242.748 1897.24 242.897C1895.92 242.99 1894.72 242.488 1893.88 241.616C1893.25 240.947 1892.4 240.557 1891.49 240.557H1891.13C1890.23 240.557 1889.37 240.965 1888.74 241.616C1887.94 242.451 1886.81 242.953 1885.55 242.916C1883.38 242.841 1881.6 241.077 1881.5 238.885C1881.45 237.641 1881.95 236.508 1882.77 235.709C1883.42 235.078 1883.81 234.224 1883.81 233.314V232.886C1883.81 231.958 1883.42 231.085 1882.75 230.435C1881.99 229.673 1881.5 228.615 1881.5 227.445C1881.5 226.275 1881.97 225.216 1882.75 224.455C1883.42 223.805 1883.81 222.932 1883.81 222.003V221.687C1883.81 220.777 1883.45 219.886 1882.78 219.254L1882.73 219.199C1881.02 217.49 1881.1 214.667 1882.93 213.051C1884.45 211.695 1886.77 211.658 1888.35 212.94C1888.48 213.051 1888.61 213.181 1888.74 213.311C1889.37 213.961 1890.24 214.314 1891.15 214.314H1891.47C1892.4 214.314 1893.27 213.924 1893.92 213.255C1894.68 212.494 1895.74 212.011 1896.91 212.011C1898.07 212.011 1899.13 212.475 1899.89 213.255C1900.54 213.924 1901.41 214.314 1902.34 214.314H1902.68C1903.59 214.314 1904.44 213.924 1905.07 213.274C1905.91 212.42 1907.09 211.918 1908.41 212.011ZM1960.1 217.463C1961.1 218.457 1961.1 220.068 1960.1 221.061C1959.11 222.055 1957.5 222.055 1956.51 221.061C1955.51 220.068 1955.51 218.457 1956.51 217.463C1957.5 216.469 1959.11 216.469 1960.1 217.463ZM1927.37 233.945C1924.35 233.945 1922.48 231.233 1922.48 227.482C1922.48 223.767 1924.05 221 1927.36 221C1929.53 221 1930.96 222.393 1931.22 224.231H1936.26C1936 221.947 1934.98 219.941 1933.2 218.604C1931.75 217.49 1929.75 216.802 1927.37 216.802C1921.29 216.802 1917.34 221.408 1917.34 227.482C1917.34 233.592 1921.42 238.068 1927.41 238.068C1930.29 238.068 1932.38 237.269 1933.94 235.746C1935.33 234.409 1936.26 232.552 1936.39 230.528H1931.35C1931.12 232.515 1929.64 233.945 1927.37 233.945ZM1945.71 222.616C1941.03 222.616 1937.9 225.959 1937.9 230.36C1937.9 234.762 1941.03 238.105 1945.71 238.105C1950.42 238.105 1953.5 234.762 1953.5 230.36C1953.5 225.959 1950.42 222.616 1945.71 222.616ZM1945.69 234.781C1943.67 234.781 1942.61 233.016 1942.61 230.36C1942.61 227.704 1943.67 225.903 1945.69 225.903C1947.71 225.903 1948.81 227.704 1948.81 230.36C1948.79 233.016 1947.71 234.781 1945.69 234.781ZM1954.26 226.293H1956.21V237.641H1960.85V223.006H1954.26V226.293ZM1967.75 225.011C1968.83 223.433 1970.24 222.578 1972.26 222.578C1975.45 222.578 1977.34 224.863 1977.34 228.113V237.622H1972.69V229.06C1972.69 227.519 1971.93 226.46 1970.4 226.46C1968.86 226.46 1967.84 227.742 1967.84 229.543V237.622H1963.19V223.006H1967.66V225.011H1967.75ZM1988.26 217.211H1979.55V237.622H1987.94C1990.5 237.622 1992.56 236.972 1994.16 235.765C1996.44 234.019 1997.7 231.141 1997.7 227.537C1997.7 221.297 1993.9 217.211 1988.26 217.211ZM1987.57 233.388H1984.6V221.446H1987.63C1990.8 221.446 1992.6 223.842 1992.6 227.556C1992.58 231.289 1990.87 233.388 1987.57 233.388ZM2006.5 222.69C2008.57 222.69 2010.23 223.377 2011.49 224.51C2013.23 226.107 2014.08 228.633 2014.07 231.623H2003.56C2003.86 233.592 2004.94 234.818 2006.85 234.818C2008.07 234.818 2008.87 234.279 2009.28 233.369H2013.81C2013.49 234.688 2012.64 235.932 2011.36 236.824C2010.13 237.678 2008.65 238.161 2006.79 238.161C2001.97 238.161 1999 234.818 1999 230.398C1999 226.033 2002.04 222.69 2006.5 222.69ZM2006.57 225.977C2004.81 225.977 2003.9 227.092 2003.58 228.838H2009.33C2009.17 227.092 2008.07 225.977 2006.57 225.977ZM2023.23 228.485C2023.02 228.446 2022.81 228.41 2022.6 228.375C2021.02 228.104 2019.73 227.884 2019.73 226.98C2019.73 226.07 2020.62 225.643 2021.75 225.643C2023.03 225.643 2023.92 226.052 2024.09 227.352H2028.37C2028.15 224.473 2025.92 222.671 2021.78 222.671C2018.33 222.671 2015.48 224.269 2015.48 227.352C2015.48 230.787 2018.19 231.456 2020.73 231.883C2020.91 231.915 2021.1 231.946 2021.28 231.976C2023 232.257 2024.44 232.493 2024.44 233.685C2024.44 234.632 2023.55 235.133 2022.16 235.133C2020.62 235.133 2019.65 234.428 2019.47 232.96H2015.07C2015.22 236.192 2017.89 238.161 2022.17 238.161C2026 238.161 2028.82 236.508 2028.82 233.313C2028.84 229.58 2025.81 228.912 2023.23 228.485ZM2044.91 223.006L2039.77 228.503L2045.5 237.641H2040.12L2036.61 231.661L2035.2 233.146V237.641H2030.62V217.211H2035.2V227.946L2039.54 223.006H2044.91ZM1896.89 228.838C1897.67 228.838 1898.3 228.206 1898.3 227.426C1898.3 226.647 1897.67 226.015 1896.89 226.015C1896.11 226.015 1895.48 226.647 1895.48 227.426C1895.48 228.206 1896.11 228.838 1896.89 228.838ZM1909.54 227.426C1909.54 228.206 1908.91 228.838 1908.13 228.838C1907.35 228.838 1906.72 228.206 1906.72 227.426C1906.72 226.647 1907.35 226.015 1908.13 226.015C1908.91 226.015 1909.54 226.647 1909.54 227.426ZM1908.13 240.111C1908.91 240.111 1909.54 239.479 1909.54 238.699C1909.54 237.92 1908.91 237.288 1908.13 237.288C1907.35 237.288 1906.72 237.92 1906.72 238.699C1906.72 239.479 1907.35 240.111 1908.13 240.111Z" fill="#FFF6DA"/>
<path d="M1133.41 44.3232C1134.63 42.9863 1135.74 42.2605 1137.23 41.7639C1138.37 41.3438 1140.17 41 1141.24 41C1142.27 41 1143.91 41.2674 1144.87 41.573C1145.82 41.9167 1147.23 42.6043 1148 43.1008C1148.8 43.6356 1149.87 44.7815 1150.37 45.6601C1150.86 46.5768 1151.4 47.8755 1151.74 49.7854H1146.78L1146.09 48.3339C1145.63 47.3789 1144.87 46.6532 1143.68 46.042C1142.42 45.3927 1141.66 45.2399 1140.66 45.4309C1139.94 45.5455 1138.87 45.8892 1138.26 46.1948C1137.68 46.5004 1136.88 47.3025 1136.5 47.9519C1136.08 48.6394 1135.58 50.2437 1135.39 51.5042C1135.16 52.9557 1135.16 54.7128 1135.39 56.2789C1135.58 57.654 1136.08 59.3347 1136.46 59.984C1136.88 60.6716 1137.72 61.5119 1138.37 61.8175C1138.98 62.123 1140.36 62.3904 1141.43 62.3904C1142.96 62.3904 1143.57 62.1994 1144.56 61.3209C1145.21 60.7479 1145.97 59.7166 1146.28 59.0291C1146.78 57.845 1146.81 57.8068 1149.26 57.8068C1151.66 57.8068 1151.74 57.845 1151.51 58.6471C1151.36 59.1437 1151.05 60.0222 1150.82 60.6716C1150.56 61.2827 1149.87 62.4668 1149.22 63.269C1148.57 64.1475 1147.23 65.1788 1146.01 65.7518C1144.29 66.5921 1143.41 66.7831 1141.05 66.7449C1138.83 66.7449 1137.76 66.5157 1136.31 65.79C1135.28 65.2934 1133.75 64.1093 1132.95 63.1544C1131.92 61.9703 1131.19 60.5952 1130.66 58.7617C1130.01 56.5845 1129.89 55.5149 1130.08 53.0321C1130.2 51.3514 1130.62 49.0978 1131 48.0665C1131.38 46.9588 1132.41 45.3545 1133.41 44.3232Z" fill="#FFF6DA"/>
<path d="M1188.98 49.0214C1189.4 48.563 1190.36 48.0665 1191.08 47.8755C1191.81 47.6845 1193.03 47.6463 1193.76 47.7609C1194.48 47.8373 1195.71 48.2193 1196.39 48.563C1197.12 48.9068 1198.23 49.8999 1198.8 50.7403C1199.37 51.5806 1200.06 53.1467 1200.29 54.178C1200.56 55.2094 1200.67 57.1192 1200.56 58.3797C1200.44 59.7166 1199.98 61.4737 1199.45 62.5432C1198.91 63.6891 1198 64.7969 1197.2 65.2934C1196.47 65.7518 1195.25 66.2483 1194.52 66.4011C1193.8 66.5539 1192.69 66.5539 1192.04 66.4393C1191.39 66.3247 1190.24 65.79 1188.03 64.3003V74.6135H1183.06V48.2575H1185.35C1187.38 48.2575 1187.65 48.3339 1187.65 49.0214C1187.65 49.4416 1187.76 49.7854 1187.91 49.7854C1188.11 49.7854 1188.56 49.4416 1188.98 49.0214Z" fill="#FFF6DA"/>
<path d="M1165.57 62.7724C1164.8 61.2063 1164.73 60.557 1164.73 54.6746V48.2575H1169.31L1169.43 54.5982L1169.43 54.6167C1169.5 60.8627 1169.5 60.9397 1170.46 61.6647C1170.99 62.0849 1171.99 62.4286 1172.64 62.3904C1173.4 62.3904 1174.35 62.0085 1176.19 60.4806V48.2575H1181.15V57.4248C1181.15 63.0398 1180.96 67.3561 1180.69 68.6166C1180.39 69.9917 1179.85 71.0612 1178.9 72.0543C1178.1 72.8947 1176.8 73.735 1175.81 74.0788C1174.85 74.3843 1173.4 74.6135 1172.56 74.6135C1171.72 74.6135 1170.42 74.4225 1169.69 74.1934C1168.97 73.926 1167.9 73.4294 1167.29 73.0092C1166.71 72.6273 1165.99 71.8251 1165.68 71.1758C1165.38 70.5264 1165 69.3423 1164.54 66.9359L1166.83 67.0505C1168.89 67.1651 1169.12 67.2415 1169.2 68.0436C1169.27 68.502 1169.77 69.2277 1170.34 69.6479C1170.99 70.1445 1171.99 70.45 1172.83 70.4118C1173.97 70.4118 1174.51 70.1445 1175.23 69.2659C1175.96 68.3874 1176.19 67.6998 1176.19 64.3003L1175 65.1788C1174.16 65.7518 1173.17 66.0574 1171.68 66.1338C1169.96 66.2101 1169.16 66.0574 1167.98 65.3698C1166.98 64.7969 1166.14 63.8801 1165.57 62.7724Z" fill="#FFF6DA"/>
<path d="M1334.13 48.7157C1334.74 48.3719 1335.89 47.9899 1336.62 47.8371C1337.34 47.6843 1338.79 47.6461 1339.86 47.7225C1340.89 47.8371 1342.54 48.2955 1343.49 48.7538C1344.45 49.2122 1345.63 50.2435 1346.24 51.1221C1346.85 51.9624 1347.5 53.5285 1347.73 54.5598C1348 55.6293 1348.07 57.3864 1347.92 58.4941C1347.81 59.5637 1347.43 61.0533 1347.08 61.7409C1346.74 62.3902 1346.09 63.3834 1345.63 63.8417C1345.21 64.3383 1344.14 65.1022 1343.3 65.5224C1342.46 65.9426 1341.01 66.401 1340.05 66.4773C1339.1 66.5919 1337.38 66.4773 1336.23 66.1718C1334.82 65.8662 1333.64 65.255 1332.64 64.3383C1331.8 63.5744 1330.85 62.2757 1330.47 61.4353C1330.01 60.4804 1329.74 58.9907 1329.74 57.4246C1329.74 56.0495 1329.93 54.2924 1330.12 53.5285C1330.35 52.7264 1331.08 51.4658 1331.73 50.7019C1332.41 49.938 1333.52 49.0212 1334.13 48.7157Z" fill="#FFF6DA"/>
<path d="M1203.04 62.5049C1202.7 61.5882 1202.54 58.838 1202.54 52.2681V43.2917H1207.13V48.2574H1217.06V51.3132H1207.13V55.7058C1207.13 58.265 1207.32 60.4423 1207.55 60.9389C1207.81 61.4354 1208.2 61.932 1208.43 62.0848C1208.66 62.2376 1209.34 62.3903 1209.99 62.3903C1210.68 62.3903 1211.44 62.0848 1211.9 61.5882C1212.51 60.9389 1212.7 60.0603 1213.05 54.3689H1217.06V57.6921C1217.06 60.4423 1216.91 61.359 1216.22 62.7723C1215.72 63.7272 1214.73 64.8732 1214 65.3697C1213.28 65.8281 1211.98 66.3247 1211.14 66.4392C1210.3 66.592 1208.77 66.4774 1207.7 66.2483C1206.63 65.9809 1205.29 65.3697 1204.68 64.7586C1204.07 64.1856 1203.31 63.1543 1203.04 62.5049Z" fill="#FFF6DA"/>
<path d="M1158.46 49.0213C1159 48.4866 1160.11 47.9518 1160.87 47.8372C1161.63 47.6844 1162.47 47.5698 1162.7 47.5316C1163.05 47.4934 1163.2 48.2192 1163.2 52.4591H1161.67C1160.6 52.4591 1159.84 52.7265 1159.08 53.3758C1158.05 54.2914 1158.04 54.3306 1157.66 65.9755L1157.66 66.0191L1152.89 66.2101V48.2574H1155.18C1157.32 48.2574 1157.47 48.3338 1157.43 49.9763L1158.46 49.0213Z" fill="#FFF6DA"/>
<path d="M1223.25 48.7921C1223.86 48.4866 1224.97 48.1046 1225.73 47.9136C1226.53 47.6844 1228.02 47.608 1229.09 47.7226C1230.12 47.8372 1231.76 48.2956 1232.72 48.7539C1233.67 49.2123 1234.86 50.2436 1235.47 51.1222C1236.08 51.9625 1236.77 53.605 1237 54.7509C1237.34 56.3552 1237.34 57.4247 1237 59.1436C1236.73 60.5951 1236.12 62.0084 1235.39 62.9251C1234.78 63.7654 1233.52 64.835 1232.64 65.3315C1231.73 65.8281 1230.12 66.3247 1229.09 66.4392C1227.83 66.592 1226.46 66.4774 1225.08 66.0955C1223.78 65.7135 1222.48 64.9878 1221.68 64.2238C1220.95 63.5363 1220.08 62.2758 1219.69 61.4354C1219.2 60.4041 1218.97 58.9908 1218.97 57.1573C1218.97 55.4767 1219.2 53.796 1219.58 52.9556C1219.89 52.1535 1220.61 51.0076 1221.18 50.4346C1221.76 49.8235 1222.67 49.0977 1223.25 48.7921Z" fill="#FFF6DA"/>
<path d="M1238.83 66.2101V53.987V41.7639H1244.64C1247.85 41.7639 1251.17 41.9549 1252.01 42.1841C1252.93 42.4515 1254.19 43.2536 1255.1 44.2085C1256.29 45.3926 1256.78 46.2712 1257.09 47.6845C1257.32 48.754 1257.36 50.2819 1257.2 51.1222C1257.05 51.9626 1256.75 52.9939 1256.52 53.4141C1256.29 53.8342 1255.6 54.6364 1254.99 55.2093C1254.42 55.7823 1253.38 56.4316 1252.77 56.6608C1252.16 56.9282 1249.87 57.2338 1243.8 57.6158V66.2101H1238.83Z" fill="#FFF6DA"/>
<path d="M1279.43 63.3071C1278.59 61.8938 1278.56 61.4355 1278.56 52.5355V43.2918H1283.14V48.2574H1293.07V51.3132H1283.14V56.0879C1283.14 60.3659 1283.22 60.9389 1283.9 61.6265C1284.32 62.0466 1285.16 62.3904 1285.81 62.3904C1286.46 62.3904 1287.3 62.0466 1287.72 61.6265C1288.37 60.9771 1288.49 60.3659 1288.49 54.369H1293.07V57.6921C1293.07 60.0986 1292.84 61.5119 1292.38 62.5814C1292 63.4217 1291.16 64.4912 1290.55 64.9878C1289.94 65.4844 1288.75 66.0573 1287.91 66.2865C1287.07 66.4775 1285.62 66.5539 1284.67 66.4393C1283.71 66.2865 1282.34 65.8663 1281.61 65.4844C1280.89 65.1024 1279.89 64.1475 1279.43 63.3071Z" fill="#FFF6DA"/>
<path d="M1313.77 62.7342C1312.97 61.1299 1312.93 60.6333 1312.93 52.1536V43.2918H1317.52V48.2574H1327.45V51.3132H1317.52L1317.59 56.0115C1317.71 60.175 1317.78 60.8625 1318.47 61.5883C1318.97 62.0848 1319.69 62.3904 1320.46 62.3904C1321.38 62.3904 1321.91 62.0848 1322.48 61.3209C1323.13 60.4805 1323.25 59.7166 1323.25 54.369H1327.45V57.7685C1327.45 59.7548 1327.22 61.741 1326.95 62.4668C1326.65 63.1543 1325.92 64.1857 1325.31 64.7586C1324.66 65.3316 1323.36 65.9809 1322.29 66.2101C1321.22 66.4775 1319.69 66.5539 1318.85 66.4393C1318.01 66.3247 1316.72 65.8281 1315.99 65.3316C1315.26 64.8732 1314.27 63.6891 1313.77 62.7342Z" fill="#FFF6DA"/>
<path d="M1262.59 48.754C1263.2 48.4484 1264.31 48.0665 1265.07 47.8755C1265.87 47.6463 1267.36 47.5699 1268.43 47.6845C1269.47 47.7991 1271.11 48.2574 1272.06 48.7158C1273.02 49.1742 1274.2 50.2055 1274.81 51.084C1275.39 51.9244 1276.07 53.4905 1276.3 54.5218C1276.57 55.5913 1276.65 57.3484 1276.49 58.4561C1276.38 59.5256 1276 61.0153 1275.65 61.7029C1275.31 62.3522 1274.66 63.3453 1274.2 63.8037C1273.78 64.3003 1272.71 65.0642 1271.87 65.4844C1271.03 65.9045 1269.58 66.3629 1268.62 66.4393C1267.67 66.5539 1265.95 66.4393 1264.81 66.1337C1263.2 65.7518 1262.28 65.2552 1260.91 63.9183C1259.8 62.8106 1259 61.5883 1258.73 60.6333C1258.5 59.793 1258.31 58.1505 1258.31 57.0046C1258.31 55.8587 1258.5 54.2544 1258.69 53.4905C1258.88 52.6883 1259.65 51.4278 1260.3 50.6639C1260.99 49.8999 1262.02 49.0214 1262.59 48.754Z" fill="#FFF6DA"/>
<path d="M1296.78 49.6325C1297.35 49.0596 1298.69 48.2956 1299.76 48.0283C1300.98 47.6463 1302.54 47.5317 1304.15 47.6845C1305.52 47.7991 1307.13 48.181 1307.74 48.5248C1308.35 48.8686 1309.19 49.6707 1309.65 50.2437C1310.37 51.2368 1310.45 51.8862 1310.64 66.1719H1308.54C1306.75 66.1719 1306.4 66.0573 1306.25 65.408C1306.06 64.644 1306.06 64.644 1304.8 65.408C1304.15 65.8281 1302.62 66.2865 1301.47 66.4011C1300.1 66.5539 1298.84 66.4393 1297.85 66.0573C1296.89 65.7518 1295.97 65.026 1295.44 64.2239C1294.9 63.4217 1294.56 62.3522 1294.6 61.5119C1294.6 60.7097 1294.87 59.4492 1295.17 58.7235C1295.48 57.9977 1296.13 57.1192 1296.59 56.8136C1297.08 56.508 1299.18 55.8969 1301.28 55.4385C1303.38 55.0183 1305.33 54.4454 1305.6 54.2162C1305.87 53.9488 1306.1 53.4523 1306.06 53.1085C1306.06 52.7265 1305.68 52.1536 1305.18 51.848C1304.72 51.5424 1303.69 51.275 1302.89 51.275C1301.86 51.275 1301.17 51.5424 1300.48 52.2299C1299.98 52.7647 1299.56 53.3759 1299.56 53.5668C1299.56 53.796 1298.57 53.9488 1295.17 53.9488L1295.44 52.3445C1295.63 51.3132 1296.13 50.2819 1296.78 49.6325Z" fill="#FFF6DA"/>
<path d="M1188.79 53.1084C1189.25 52.4972 1189.98 51.8479 1190.44 51.6951C1190.89 51.5041 1191.39 51.3513 1191.54 51.3513C1191.73 51.3131 1192.46 51.5805 1193.19 51.8861C1193.91 52.1916 1194.71 52.841 1194.98 53.2994C1195.21 53.7959 1195.55 54.7891 1195.71 55.5148C1195.86 56.2405 1195.86 57.692 1195.63 58.7616C1195.4 59.9839 1194.94 60.977 1194.33 61.5118C1193.64 62.1611 1192.92 62.3903 1191.66 62.3903C1190.21 62.3903 1189.79 62.1993 1188.98 61.2444C1188.45 60.6332 1187.91 59.3727 1187.8 58.4942C1187.65 57.5774 1187.65 56.2405 1187.76 55.5148C1187.91 54.7891 1188.37 53.6813 1188.79 53.1084Z" fill="#F0B90B"/>
<path d="M1334.55 55.5148C1334.74 54.4071 1335.2 53.414 1335.89 52.7646C1336.69 51.9625 1337.3 51.6951 1338.49 51.6951C1339.37 51.6951 1340.51 51.9243 1341.08 52.2298C1341.7 52.4972 1342.38 53.1848 1342.61 53.7577C1342.88 54.2925 1343.11 55.8204 1343.11 57.1573C1343.11 58.838 1342.88 59.8693 1342.35 60.7478C1341.81 61.6263 1341.16 62.1229 1340.13 62.3521C1339.33 62.5813 1338.22 62.5813 1337.57 62.3903C1336.92 62.1993 1336.12 61.7409 1335.74 61.359C1335.39 60.977 1334.9 59.9075 1334.71 58.9525C1334.48 57.9976 1334.4 56.4697 1334.55 55.5148Z" fill="#F0B90B"/>
<path d="M1336.69 55.324C1336.96 54.5982 1337.42 53.8343 1337.76 53.6051C1338.07 53.4141 1338.56 53.2231 1338.79 53.2231C1339.06 53.2231 1339.71 53.6433 1340.24 54.1781C1340.86 54.7892 1341.2 55.5532 1341.2 56.3935C1341.24 57.0429 1340.89 58.0742 1340.44 58.6853C1339.86 59.4493 1339.4 59.6785 1338.6 59.6403C1337.84 59.5639 1337.42 59.1819 1336.88 58.1124C1336.35 56.8901 1336.31 56.4699 1336.69 55.324Z" fill="#FFF6DA"/>
<path d="M1243.8 53.223L1243.83 49.5561L1243.87 45.8892L1247.5 46.0419C1250.9 46.1565 1251.17 46.2329 1252.05 47.2261C1252.58 47.799 1252.96 48.7539 1252.96 49.4033C1252.96 50.0527 1252.77 50.893 1252.58 51.3132C1252.35 51.7333 1251.67 52.3445 1251.05 52.6501C1250.33 53.032 1248.8 53.223 1243.8 53.223Z" fill="#F0B90B"/>
<path d="M1223.78 55.5149C1223.93 54.4071 1224.43 53.414 1225.12 52.7647C1225.92 51.9625 1226.53 51.6951 1227.72 51.6951C1228.59 51.6951 1229.7 51.9243 1230.24 52.1917C1230.77 52.4209 1231.46 53.223 1231.76 53.9106C1232.07 54.5599 1232.34 56.126 1232.34 57.3483C1232.34 58.838 1232.11 59.9075 1231.57 60.7861C1231.04 61.6264 1230.35 62.123 1229.36 62.3903C1228.59 62.5813 1227.45 62.6195 1226.84 62.4667C1226.23 62.314 1225.35 61.7792 1224.89 61.2444C1224.43 60.7097 1223.93 59.602 1223.78 58.7616C1223.63 57.9213 1223.63 56.4698 1223.78 55.5149Z" fill="#F0B90B"/>
<path d="M1263.24 55.2475C1263.47 54.3307 1264.08 53.1848 1264.61 52.6501C1265.3 51.9625 1265.95 51.6951 1267.1 51.6951C1267.94 51.6951 1269.08 51.9243 1269.66 52.2299C1270.27 52.4973 1270.95 53.1848 1271.18 53.7578C1271.45 54.2925 1271.68 55.7822 1271.68 57.0427C1271.68 58.3032 1271.41 59.8311 1271.11 60.4805C1270.8 61.1298 1270.19 61.8174 1269.77 62.0084C1269.35 62.2376 1268.24 62.3903 1267.29 62.3903C1265.91 62.3903 1265.34 62.1612 1264.5 61.359C1263.76 60.646 1263.3 59.7165 1263.12 58.5706C1262.97 57.6157 1263.01 56.126 1263.24 55.2475Z" fill="#F0B90B"/>
<path d="M1301.86 58.647C1302.81 58.3796 1304 57.9977 1304.53 57.8449C1305.06 57.6539 1305.6 57.5011 1305.75 57.4629C1305.94 57.4629 1306.06 57.9595 1306.06 58.5706C1306.06 59.22 1305.87 60.1367 1305.68 60.6715C1305.45 61.2062 1304.72 61.9702 1304.03 62.3903C1303.38 62.8105 1302.24 63.1543 1301.55 63.1543C1300.67 63.1543 1300.14 62.8869 1299.64 62.1612C1299.07 61.2444 1299.03 61.0534 1299.56 60.1367C1299.95 59.4874 1300.75 58.9908 1301.86 58.647Z" fill="#F0B90B"/>
<path d="M1225.61 56.0878C1225.77 55.4766 1226.15 54.6363 1226.49 54.2925C1226.84 53.9106 1227.52 53.605 1227.98 53.605C1228.56 53.605 1229.21 54.0251 1229.66 54.6745C1230.12 55.2475 1230.47 56.1642 1230.43 56.7753C1230.43 57.3483 1230.27 58.1504 1230.05 58.5706C1229.82 58.9908 1229.32 59.5255 1228.9 59.7165C1228.48 59.9075 1227.79 60.0221 1227.37 59.9075C1226.95 59.7929 1226.34 59.1436 1226 58.4942C1225.61 57.6921 1225.46 56.8135 1225.61 56.0878Z" fill="#FFF6DA"/>
</g>
<defs>
<clipPath id="clip0_1_60">
<rect width="2767" height="327" fill="white"/>
</clipPath>
</defs>
</svg>
