<svg width="390" height="669" viewBox="0 0 390 669" fill="none" xmlns="http://www.w3.org/2000/svg">
<mask id="mask0_1_102" style="mask-type:alpha" maskUnits="userSpaceOnUse" x="0" y="0" width="390" height="669">
<rect width="390" height="669" fill="#D9D9D9"/>
</mask>
<g mask="url(#mask0_1_102)">
<path d="M307.5 583.577L317.5 589.351V600.898L307.5 606.671L297.5 600.898V589.351L307.5 583.577Z" stroke="#FFE8A0"/>
<path d="M313.782 598.84V591.409L307.347 587.693L300.911 591.409V598.84L307.347 602.555L313.782 598.84Z" fill="#FFE8A0"/>
<path d="M0.000244141 0H390V658.344L323.333 643.982L217.5 669L155.833 631.473L0.000244141 669V0Z" fill="#F0B90B"/>
<path d="M63.5002 419.577L69.5002 423.041V429.97L63.5002 433.434L57.5002 429.97V423.041L63.5002 419.577Z" stroke="#FFE8A0"/>
<path d="M67.3893 428.806V424.205L63.4055 421.905L59.4216 424.205V428.806L63.4055 431.106L67.3893 428.806Z" fill="#FFE8A0"/>
<path d="M63.0002 80.5774L71.5002 85.4848V95.2998L63.0002 100.207L54.5002 95.2998V85.4848L63.0002 80.5774Z" stroke="#FFE8A0"/>
<path d="M68.3851 93.5769V87.2074L62.869 84.0227L57.3528 87.2074V93.5769L62.869 96.7617L68.3851 93.5769Z" fill="#FFE8A0"/>
<path fill-rule="evenodd" clip-rule="evenodd" d="M127.669 509.451C127.865 509.05 128.55 508.549 128.55 508.549H140.092C151.144 508.549 151.69 508.549 151.919 508.819C151.93 508.833 151.941 508.847 151.953 508.862V508.863C151.973 508.89 151.995 508.919 152.025 508.95C152.064 509.03 152.135 509.11 152.205 509.19C152.311 509.311 152.417 509.431 152.417 509.551L152.612 509.852V513.758V517.965C152.514 518.265 152.221 518.766 151.928 518.967L151.91 518.98C151.538 519.267 151.538 519.267 145.178 519.267H139.212V555.426H145.276L151.341 555.527H151.634C152.025 555.727 152.417 556.128 152.514 556.528V560.835C152.514 563.842 152.45 564.607 152.426 564.896C152.42 564.963 152.417 565.005 152.417 565.042C152.319 565.343 151.634 566.044 151.634 566.044H139.896L128.452 565.944H128.256C127.963 565.743 127.474 565.243 127.474 564.942V537.197V509.751L127.669 509.451ZM175.013 509.451C175.208 509.05 175.893 508.549 175.893 508.549H187.435C198.467 508.549 199.019 508.549 199.329 508.824C199.346 508.838 199.361 508.853 199.378 508.869C199.404 508.894 199.431 508.921 199.467 508.95C199.565 509.15 199.858 509.551 199.858 509.551L200.054 509.852V537.297C200.054 564.141 200.054 564.742 199.956 565.042C199.858 565.343 199.467 565.743 199.173 565.944L198.978 566.044H187.533L176.089 565.944H175.795C175.502 565.743 175.013 565.243 174.915 564.942V560.635C174.915 559.878 174.912 559.257 174.91 558.745C174.901 556.814 174.9 556.431 175.079 556.175C175.123 556.112 175.178 556.057 175.246 555.988C175.265 555.969 175.285 555.949 175.306 555.927C175.502 555.827 175.795 555.426 175.795 555.426H175.991H182.153H188.316V519.167H182.349C176.178 519.167 175.996 519.073 175.633 518.884L175.6 518.866C175.306 518.666 175.013 518.366 174.915 518.065L174.905 518.035L174.898 518.012L174.894 518C174.817 517.741 174.817 517.46 174.817 513.758V509.751L175.013 509.451ZM87.2718 520.269L86.0002 520.669V532.99V545.31L86.8805 545.711C88.25 546.412 89.7172 546.812 91.1844 547.013C91.8062 547.084 92.8669 547.054 93.7122 547.031C94.0638 547.021 94.3781 547.013 94.608 547.013C97.5425 546.412 99.7922 544.809 100.966 542.405C102.335 539.601 102.14 535.594 100.575 532.89C99.7922 531.487 98.7163 530.486 97.249 529.784C95.8796 529.083 94.7058 528.883 93.0429 528.983C91.3801 528.983 90.3041 529.384 89.0325 530.185L88.5434 530.486V525.177V519.868C88.5434 519.868 87.9565 520.069 87.2718 520.269ZM94.9993 531.487C96.2709 531.888 97.4446 532.689 98.1294 533.791C98.9119 534.993 99.2053 536.295 99.2053 538.098C99.2053 540.202 98.7163 541.704 97.6403 542.806C96.9556 543.507 96.2709 543.908 95.1949 544.308C93.532 544.909 90.7932 544.709 89.0325 544.008L88.6412 543.808V538.399V532.99L89.0325 532.689C89.7172 532.088 90.6954 531.688 91.6735 531.487C92.456 531.287 92.6517 531.287 93.6298 531.387C94.3145 531.387 94.608 531.387 94.9993 531.487ZM269.013 531.087C269.013 530.886 269.404 530.386 271.654 527.781L271.849 527.982C273.903 525.578 274.588 524.877 274.588 524.877H274.686V529.184H280.164V531.387H274.686V536.696V542.405C274.882 543.407 275.273 543.607 276.544 543.607C277.425 543.607 278.403 543.407 279.381 543.006C279.772 542.806 280.164 542.706 280.164 542.706V543.808V545.11H279.87C278.403 545.711 277.131 546.011 275.762 546.011C274.49 546.011 273.61 545.711 273.023 545.11C272.534 544.609 272.338 544.208 272.143 543.507C271.849 542.706 271.849 542.205 271.849 536.596V531.287H269.013V531.087ZM144.298 527.781C144.298 527.781 144.103 527.881 144.005 527.981L143.809 528.182V530.485C143.809 532.689 143.809 532.789 143.907 532.889L143.936 532.919C143.976 532.96 144.009 532.995 144.047 533.025C144.258 533.19 144.598 533.19 146.841 533.19H149.287V540.903H146.744H144.2L144.005 541.103L143.809 541.303V543.607C143.809 545.811 143.809 545.911 143.907 546.011C143.915 546.019 143.923 546.027 143.93 546.035C143.938 546.044 143.945 546.053 143.953 546.062C143.964 546.075 143.974 546.087 143.985 546.099C144.189 546.311 144.614 546.311 152.808 546.311C160.873 546.311 161.488 546.311 161.649 546.041C161.653 546.034 161.658 546.026 161.661 546.018L161.668 546.004L161.673 545.994L161.684 545.968C161.691 545.95 161.7 545.931 161.709 545.911C161.807 545.71 161.807 545.51 161.709 543.507C161.709 541.504 161.709 541.303 161.612 541.203C161.416 540.903 161.318 540.903 158.677 540.903H156.232V533.19H158.677C161.416 533.19 161.416 533.19 161.612 532.789C161.709 532.589 161.709 532.389 161.612 530.385C161.612 528.382 161.612 528.182 161.514 528.081C161.504 528.066 161.496 528.052 161.488 528.038C161.48 528.024 161.472 528.01 161.463 527.997C161.315 527.781 160.852 527.781 152.613 527.781H144.298ZM165.622 527.881C165.622 527.881 165.583 527.831 165.529 528.072L165.622 527.881ZM165.527 528.08L165.524 528.081L165.529 528.072L165.527 528.08ZM165.527 528.08C165.721 527.981 165.829 527.981 168.067 527.981C170.611 527.981 170.708 527.981 171.002 528.282C171.1 528.382 172.469 530.285 174.034 532.489L176.969 536.495V532.388C176.969 528.382 176.969 528.282 177.066 528.181C177.36 527.881 177.36 527.881 180.099 527.881C182.544 527.881 182.642 527.881 182.838 527.981C182.864 527.995 182.888 528.004 182.911 528.013C182.934 528.021 182.955 528.03 182.975 528.04C183.229 528.18 183.229 528.782 183.229 537.196V537.198C183.229 545.81 183.229 546.011 183.131 546.211L183.101 546.252C183.052 546.32 183.013 546.374 182.964 546.419C182.752 546.612 182.364 546.612 180.294 546.612L177.947 546.411H177.653C177.458 546.311 176.773 545.51 174.425 542.405L171.491 538.599V542.305C171.398 546.218 171.393 546.22 171.139 546.385L171.124 546.395L171.108 546.406L171.1 546.411C171.002 546.512 170.806 546.512 168.361 546.512C166.058 546.512 165.624 546.512 165.438 546.297C165.395 546.247 165.365 546.186 165.329 546.111C165.231 545.911 165.231 545.71 165.231 537.098V537.096C165.231 530.495 165.411 528.61 165.527 528.08ZM213.453 528.382C212.28 528.482 211.008 528.783 209.932 529.384C208.269 530.185 206.802 531.687 206.117 533.29C205.433 534.792 205.139 536.595 205.335 538.499C205.726 542.705 208.66 545.71 212.964 546.311C213.747 546.412 215.41 546.412 216.29 546.311C216.863 546.311 217.279 546.204 217.805 546.068C217.998 546.018 218.206 545.964 218.442 545.911L219.029 545.71V544.408V543.106C219.029 543.106 218.735 543.106 218.442 543.306C217.757 543.607 216.681 543.807 215.801 543.907C214.823 544.008 213.453 543.907 212.671 543.807C211.986 543.607 211.399 543.407 210.812 543.006C210.128 542.605 209.834 542.305 209.345 541.704C208.367 540.502 207.878 539.1 207.878 537.397C207.878 534.292 209.639 531.888 212.573 531.086C212.847 531.006 213.012 530.958 213.179 530.929C213.43 530.886 213.689 530.886 214.334 530.886C215.214 530.886 215.605 530.886 216.094 530.986C216.27 531.026 216.45 531.066 216.63 531.106C217.35 531.267 218.07 531.427 218.54 531.587L218.931 531.787V530.485V529.183L218.442 528.983C217.855 528.783 216.779 528.582 216.094 528.482C215.85 528.482 215.547 528.472 215.227 528.462H215.226C214.522 528.439 213.728 528.413 213.258 528.482L213.453 528.382ZM254.537 530.586C255.711 529.384 257.374 528.583 259.037 528.382C259.526 528.182 260.7 528.282 261.286 528.382C264.319 529.083 266.569 531.587 267.155 534.993C267.155 535.307 267.165 535.689 267.175 536.094V536.096C267.198 536.984 267.223 537.98 267.155 538.599C266.96 540.202 266.373 541.704 265.493 542.906C265.003 543.607 264.221 544.409 263.634 544.809C262.754 545.51 261.678 546.011 260.602 546.212C259.428 546.512 257.569 546.412 256.102 546.011C255.711 545.911 254.635 545.41 254.342 545.21C254.244 545.11 254.146 545.11 254.146 545.11V548.916V552.722H251.505V528.983H254.146V530.986L254.537 530.586ZM262.754 532.088C262.265 531.587 261.286 531.087 260.602 530.986L260.504 530.886C260.326 530.886 260.095 530.877 259.842 530.867C259.26 530.844 258.566 530.816 258.156 530.886C257.652 530.972 257.292 531.133 256.765 531.367C256.679 531.405 256.589 531.445 256.494 531.487C255.711 531.788 255.124 532.289 254.537 532.89L254.146 533.29V542.606H254.342C254.831 543.006 255.613 543.407 256.396 543.607C257.374 544.008 257.765 544.008 258.841 544.008C259.721 544.008 259.917 544.008 260.308 543.908C261.286 543.607 262.069 543.207 262.754 542.505C263.634 541.604 264.221 540.502 264.514 538.899C264.612 538.198 264.612 536.295 264.514 535.594C264.221 534.092 263.634 532.89 262.754 532.088ZM290.142 528.382C290.142 528.382 289.262 528.482 288.968 528.582C284.664 529.584 282.023 533.19 282.317 537.898C282.414 540.301 283.197 542.104 284.566 543.607C285.74 544.809 287.012 545.51 288.675 546.011C289.653 546.311 290.338 546.311 291.511 546.311C292.979 546.311 294.055 546.011 295.326 545.41C297.087 544.508 298.261 543.407 299.141 541.604C299.532 540.802 299.728 540.001 299.924 539.1C300.021 538.298 300.021 536.495 299.924 535.594C299.63 533.691 298.848 532.088 297.576 530.886C296.109 529.384 294.25 528.582 292 528.382H290.142ZM292.49 530.786C294.152 531.086 295.424 532.088 296.304 533.39C297.087 534.592 297.38 535.694 297.38 537.397C297.38 538.499 297.38 538.899 297.087 539.801C296.207 542.605 293.761 544.308 290.827 544.108C287.794 543.907 285.545 541.904 285.056 538.799C284.958 537.998 284.958 536.595 285.056 535.894C285.153 535.293 285.447 534.492 285.642 533.991C286.523 532.288 288.088 531.086 289.946 530.786C290.631 530.686 291.903 530.686 292.49 530.786ZM225.583 532.589C226.757 529.985 228.224 528.983 231.256 528.482L231.354 528.583H231.648H231.843V531.588H231.354C229.496 531.688 228.322 532.189 227.246 533.29C226.463 534.092 226.072 534.793 225.681 536.095C225.289 537.197 225.289 537.397 225.289 541.804V545.811H224.018H222.746V529.083H224.018H225.289V531.187V533.29L225.583 532.589ZM112.215 528.883H111.628C110.161 529.083 108.791 529.684 107.715 530.485C107.128 530.886 106.248 531.888 105.857 532.489C105.27 533.49 104.879 534.392 104.585 535.694C104.487 536.395 104.487 536.495 104.487 537.797C104.487 539.3 104.487 539.701 104.781 540.702C105.661 544.208 108.302 546.512 112.117 547.013H115.247C116.519 546.912 118.279 546.412 119.551 545.911H119.844V544.408V543.106L119.16 543.507C117.399 544.408 115.345 544.809 113.291 544.709C112.41 544.709 111.921 544.609 111.139 544.308C109.28 543.607 107.911 542.205 107.422 540.101C107.383 539.861 107.343 539.588 107.304 539.316C107.246 538.907 107.187 538.499 107.128 538.198V537.998H121.214V537.597C121.214 536.996 121.116 535.894 120.92 535.193C120.04 531.687 117.692 529.283 114.464 528.783H112.313L112.215 528.883ZM114.171 531.187C115.247 531.387 116.225 531.788 116.91 532.489C117.692 533.29 118.279 534.492 118.377 535.694V536.095H112.802H107.128C107.128 535.894 107.324 535.093 107.52 534.692C107.911 533.791 108.596 532.889 109.378 532.389C110.65 531.487 112.508 531.086 114.073 531.287L114.171 531.187ZM232.611 529.283C232.557 529.152 232.528 529.083 232.528 529.083V529.283H232.611ZM235.952 537.397C234.344 533.498 232.956 530.123 232.611 529.283H233.898H235.267L237.908 535.794C239.375 539.4 240.647 542.405 240.647 542.405C240.66 542.418 240.668 542.436 240.679 542.438C240.749 542.453 240.946 541.857 243.484 535.794C243.814 534.983 244.144 534.161 244.447 533.404C245.044 531.917 245.539 530.683 245.733 530.285L246.222 529.183H247.494H248.766C248.703 529.183 247.805 531.343 246.452 534.597C245.684 536.444 244.769 538.645 243.777 541.003L238.886 552.722H237.615H236.343C236.379 552.649 236.716 551.85 237.144 550.838C237.884 549.086 238.896 546.692 239.082 546.311L239.375 545.61L235.952 537.397Z" fill="#FFF6DA"/>
<path fill-rule="evenodd" clip-rule="evenodd" d="M98.5909 422.781H123.683L136.274 435.616H111.181L111.093 435.707V435.616L98.5919 422.782L111.093 435.707H86.0002L98.5909 422.781ZM111.093 461.467H136.185L123.683 474.302H98.5022L86.0002 461.467V435.707H111.004L98.5464 448.496L98.5909 448.542V448.633L111.093 461.467ZM123.683 448.542H123.595L111.093 435.707H136.185L123.683 448.542ZM123.683 448.542H123.772L136.274 461.376H111.181L123.683 448.542ZM152.235 452.729C151.88 453.093 151.348 453.275 150.727 453.275L150.639 453.366C149.752 453.366 149.043 453.002 148.688 452.274C148.333 451.454 148.156 450.362 148.156 448.997V448.633C148.067 447.54 148.245 446.448 148.688 445.447C149.043 444.627 149.663 444.263 150.639 444.263C151.348 444.263 151.791 444.536 152.146 444.992C152.501 445.538 152.678 446.266 152.678 446.903L157.289 446.812C157.377 445.083 156.757 443.262 155.515 442.079C154.274 440.895 152.678 440.349 150.639 440.349C148.245 440.349 146.383 441.077 145.053 442.625C143.723 444.172 143.102 446.175 143.102 448.633V448.997C142.925 451.181 143.723 453.275 145.053 455.004C146.383 456.461 148.245 457.28 150.727 457.28C152.501 457.28 154.185 456.734 155.515 455.551C156.757 454.458 157.466 452.82 157.377 451.09H152.767C152.767 451.818 152.589 452.365 152.235 452.729ZM166.599 444.992H168.461L168.993 440.349C168.461 440.167 168.017 440.167 167.574 440.167C166.865 440.167 166.155 440.44 165.623 440.895C165.003 441.442 164.559 442.079 164.293 442.898L164.116 440.44H159.417V456.916H164.382V446.084C164.559 445.72 164.825 445.447 165.18 445.265C165.535 445.083 166.067 444.992 166.599 444.992ZM178.037 449.725L177.948 449.634L177.771 449.543L175.288 440.349H169.968L175.554 457.007L175.199 458.099C175.022 458.554 174.756 458.918 174.401 459.192C174.047 459.465 173.515 459.556 172.717 459.556L172.451 459.465H172.185L171.564 463.106C172.185 463.288 172.628 463.379 172.894 463.379C173.16 463.47 173.515 463.47 173.958 463.47C175.643 463.47 176.884 463.106 177.682 462.286C178.48 461.467 179.101 460.466 179.633 459.283L186.017 440.44H180.697L178.037 449.725ZM196.568 445.356C197.011 446.175 197.189 447.358 197.189 448.724L197.1 448.815V449.088C197.189 450.18 197.011 451.181 196.568 452.183C196.213 452.911 195.593 453.275 194.706 453.275C194.263 453.275 193.731 453.184 193.287 453.002C192.933 452.82 192.401 452.183 192.401 452.183V445.265C192.578 444.901 192.933 444.536 193.287 444.354C193.642 444.172 194.174 444.081 194.706 444.081C195.504 444.081 196.213 444.536 196.568 445.356ZM200.558 454.913C201.622 453.457 202.154 451.454 202.154 448.997V448.815C202.243 446.63 201.711 444.445 200.558 442.625C199.494 441.077 197.898 440.258 195.947 440.258C194.44 440.167 193.021 440.986 192.223 442.352L192.046 440.531H187.347V463.197H192.312V455.459C193.199 456.552 194.529 457.189 195.947 457.189C197.809 457.189 199.494 456.37 200.558 454.913ZM210.311 440.44V436.344L210.223 436.435H205.169V440.531H202.952V444.081H205.169V451.636C205.169 453.639 205.612 455.004 206.499 455.915C207.297 456.825 208.538 457.28 210.223 457.28C211.287 457.28 212.351 457.189 213.326 456.916L212.971 453.093C212.528 453.184 212.085 453.184 211.553 453.184C211.287 453.184 210.932 453.093 210.666 452.82C210.4 452.547 210.311 452.092 210.311 451.545V443.99H213.06V440.44H210.311ZM219.887 452.092C219.444 451.272 219.267 450.18 219.267 448.815V448.451C219.267 447.176 219.444 446.084 219.887 445.265C220.331 444.445 221.04 444.081 222.016 444.081C222.991 444.081 223.7 444.445 224.144 445.265C224.587 446.266 224.764 447.358 224.764 448.451V448.815C224.764 450.18 224.587 451.272 224.144 452.092C223.7 452.911 222.991 453.275 222.016 453.275C221.04 453.275 220.331 452.911 219.887 452.092ZM216.341 442.534C214.922 444.172 214.213 446.357 214.301 448.542H214.213V448.906C214.124 451.09 214.833 453.275 216.252 454.913C217.671 456.37 219.622 457.189 222.016 457.189C224.41 457.189 226.36 456.461 227.69 454.913C229.02 453.366 229.73 451.363 229.73 448.906V448.542C229.818 446.357 229.109 444.172 227.69 442.534C226.36 440.986 224.41 440.167 222.016 440.167C219.622 440.167 217.671 440.986 216.341 442.534ZM236.653 440.531L236.646 440.44L236.823 440.531H236.653ZM236.653 440.531H232.124V457.007H237.089V445.174C237.621 444.536 238.419 444.172 239.217 444.172C240.015 444.172 240.547 444.354 240.902 444.718C241.256 445.083 241.434 445.811 241.434 446.721V456.916H246.399V446.721C246.399 444.445 245.956 442.807 245.069 441.715C244.182 440.713 242.941 440.167 241.345 440.167C240.458 440.076 239.572 440.349 238.774 440.804C237.976 441.259 237.355 441.897 236.823 442.716L236.653 440.531ZM254.468 444.901C254.822 444.354 255.354 444.081 256.064 444.081C256.862 444.081 257.305 444.263 257.66 444.718C258.014 445.174 258.192 445.811 258.192 446.63V446.994H253.847C253.936 446.084 254.113 445.447 254.468 444.901ZM250.744 454.913C252.162 456.461 254.024 457.189 256.418 457.189V457.28C257.66 457.28 258.812 457.098 259.965 456.734C260.94 456.37 261.916 455.915 262.714 455.368L261.561 452.274C260.142 453.002 258.635 453.275 257.128 453.275C256.241 453.275 255.443 453.002 254.911 452.456C254.29 451.909 254.024 451.181 253.847 450.271H263.068V447.54C263.157 445.629 262.536 443.626 261.206 442.17C259.965 440.804 258.28 440.167 256.064 440.167C253.67 440.167 251.896 440.986 250.566 442.534C249.236 444.081 248.616 446.084 248.616 448.633V449.179C248.527 451.272 249.325 453.366 250.744 454.913ZM279.028 449.998H278.94H278.851L276.102 440.44H272.91L270.25 449.998H270.162L268.388 440.44H263.778L267.59 456.916H271.846L274.506 448.177H274.595L277.255 456.916H281.511L285.324 440.44H280.713L279.028 449.998ZM294.9 451.181C295.254 451.545 295.52 452.274 295.52 452.274V452.365C295.52 452.911 295.343 453.275 294.988 453.457C294.634 453.73 294.102 453.821 293.481 453.821C292.683 453.821 292.062 453.639 291.619 453.275C291.176 453.002 290.91 452.456 290.91 451.636L286.388 451.727C286.388 453.093 287.008 454.458 288.25 455.551C289.491 456.734 291.176 457.28 293.392 457.28C295.166 457.371 296.939 456.825 298.446 455.824C299.776 454.913 300.397 453.639 300.397 452.183C300.486 450.817 299.954 449.634 298.978 448.815C297.648 447.904 296.23 447.358 294.634 447.085C293.747 446.994 292.949 446.721 292.151 446.266C291.796 445.993 291.53 445.629 291.53 445.174C291.53 444.718 291.708 444.354 292.062 444.081C292.417 443.717 292.86 443.626 293.392 443.626C294.102 443.626 294.545 443.808 294.9 444.172C295.254 444.536 295.432 444.992 295.432 445.629L300.308 445.538C300.308 443.99 299.599 442.534 298.446 441.715C297.116 440.713 295.432 440.258 293.304 440.258C291.353 440.258 289.668 440.713 288.516 441.715C287.363 442.534 286.742 443.899 286.742 445.356C286.742 446.63 287.186 447.813 288.161 448.633C289.402 449.543 290.91 450.089 292.417 450.362C293.304 450.453 294.102 450.726 294.9 451.181Z" fill="#FFF6DA"/>
<path fill-rule="evenodd" clip-rule="evenodd" d="M118.233 351.651C120.7 351.829 122.678 353.831 122.856 356.3C123.056 359.259 120.745 361.706 117.855 361.684C116.455 361.684 115.188 361.127 114.277 360.193C113.499 359.392 112.454 358.925 111.343 358.925H110.987C109.876 358.925 108.831 359.392 108.054 360.193C107.142 361.105 105.875 361.684 104.475 361.684C103.075 361.684 101.808 361.127 100.897 360.193C100.119 359.392 99.0744 358.925 97.9631 358.925H97.563C96.4517 358.925 95.4071 359.392 94.6292 360.171L94.5847 360.215L94.5403 360.26C93.7623 361.038 93.2956 362.084 93.2956 363.196V363.597C93.2956 364.709 93.7623 365.755 94.5625 366.533C95.4737 367.445 96.0517 368.713 96.0517 370.115C96.0517 371.516 95.496 372.784 94.5625 373.697C93.7623 374.475 93.2956 375.521 93.2956 376.633V377.078C93.2956 378.19 93.7623 379.236 94.5625 380.014L94.6069 380.059C95.3849 380.86 96.4517 381.282 97.5408 381.282H98.0075C99.0966 381.282 100.141 380.815 100.919 380.037C101.83 379.125 103.097 378.568 104.475 378.568C107.387 378.568 109.698 381.016 109.498 383.974C109.32 386.466 107.32 388.468 104.853 388.646C103.275 388.757 101.83 388.157 100.83 387.111C100.074 386.31 99.0522 385.843 97.9631 385.843H97.5408C96.4517 385.843 95.4293 386.332 94.6736 387.111C93.7179 388.112 92.3621 388.713 90.8507 388.668C88.2503 388.579 86.1166 386.466 86.0054 383.841C85.9388 382.35 86.5389 380.993 87.5168 380.037C88.2947 379.28 88.7615 378.257 88.7615 377.167V376.655C88.7615 375.543 88.2947 374.497 87.4946 373.719C86.5833 372.807 86.0054 371.539 86.0054 370.137C86.0054 368.736 86.5611 367.468 87.4946 366.556C88.2947 365.777 88.7615 364.731 88.7615 363.619V363.241C88.7615 362.151 88.3392 361.083 87.539 360.327L87.4724 360.26C85.4276 358.213 85.5165 354.832 87.7168 352.896C89.5394 351.272 92.3177 351.228 94.2069 352.763C94.3624 352.896 94.518 353.052 94.6736 353.208C95.4293 353.986 96.474 354.409 97.563 354.409H97.9408C99.0522 354.409 100.097 353.942 100.874 353.141C101.786 352.229 103.053 351.651 104.453 351.651C105.853 351.651 107.12 352.207 108.031 353.141C108.809 353.942 109.854 354.409 110.965 354.409H111.365C112.454 354.409 113.477 353.942 114.232 353.163C115.233 352.14 116.655 351.539 118.233 351.651ZM180.151 358.181C181.34 359.371 181.34 361.301 180.151 362.491C178.961 363.681 177.033 363.681 175.844 362.491C174.655 361.301 174.655 359.371 175.844 358.181C177.033 356.991 178.961 356.991 180.151 358.181ZM140.949 377.923C137.326 377.923 135.081 374.675 135.081 370.181C135.081 365.732 136.97 362.417 140.926 362.417C143.527 362.417 145.238 364.086 145.55 366.288H151.595C151.284 363.552 150.061 361.149 147.928 359.548C146.194 358.213 143.794 357.39 140.949 357.39C133.659 357.39 128.924 362.907 128.924 370.181C128.924 377.5 133.814 382.862 140.993 382.862C144.438 382.862 146.95 381.905 148.817 380.081C150.483 378.479 151.595 376.255 151.75 373.83H145.705C145.439 376.21 143.66 377.923 140.949 377.923ZM162.908 364.353C157.307 364.353 153.55 368.357 153.55 373.629C153.55 378.902 157.307 382.906 162.908 382.906C168.553 382.906 172.242 378.902 172.242 373.629C172.242 368.357 168.553 364.353 162.908 364.353ZM162.885 378.924C160.462 378.924 159.196 376.811 159.196 373.629C159.196 370.448 160.462 368.29 162.885 368.29C165.308 368.29 166.619 370.448 166.619 373.629C166.597 376.811 165.308 378.924 162.885 378.924ZM173.153 368.758H175.487V382.351H181.044V364.821H173.153V368.758ZM189.312 367.222C190.601 365.332 192.29 364.308 194.713 364.308C198.536 364.308 200.803 367.045 200.803 370.938V382.328H195.224V372.072C195.224 370.226 194.313 368.958 192.49 368.958C190.646 368.958 189.423 370.493 189.423 372.651V382.328H183.845V364.82H189.201V367.222H189.312ZM213.872 357.879H203.449V382.328H213.495C216.562 382.328 219.029 381.549 220.941 380.103C223.674 378.012 225.186 374.564 225.186 370.248C225.186 362.774 220.629 357.879 213.872 357.879ZM213.05 377.256H209.494V362.952H213.117C216.918 362.952 219.074 365.821 219.074 370.271C219.051 374.742 217.006 377.256 213.05 377.256ZM235.72 364.442C238.209 364.442 240.188 365.265 241.699 366.622C243.788 368.535 244.811 371.561 244.788 375.142H232.208C232.564 377.5 233.853 378.969 236.142 378.969C237.609 378.969 238.565 378.323 239.054 377.233H244.477C244.099 378.813 243.077 380.303 241.544 381.371C240.076 382.394 238.298 382.973 236.076 382.973C230.297 382.973 226.741 378.969 226.741 373.674C226.741 368.446 230.386 364.442 235.72 364.442ZM235.809 368.379C233.697 368.379 232.608 369.714 232.23 371.805H239.121C238.921 369.714 237.609 368.379 235.809 368.379ZM255.767 371.383C255.511 371.336 255.257 371.293 255.01 371.251C253.114 370.927 251.567 370.663 251.567 369.581C251.567 368.491 252.633 367.979 253.989 367.979C255.523 367.979 256.59 368.468 256.79 370.026H261.924C261.657 366.578 258.99 364.42 254.033 364.42C249.899 364.42 246.477 366.333 246.477 370.026C246.477 374.141 249.722 374.942 252.767 375.454C252.991 375.492 253.213 375.529 253.432 375.565C255.487 375.901 257.212 376.184 257.212 377.612C257.212 378.746 256.145 379.347 254.478 379.347C252.633 379.347 251.477 378.501 251.255 376.744H245.988C246.165 380.615 249.366 382.973 254.5 382.973C259.079 382.973 262.457 380.993 262.457 377.167C262.479 372.695 258.857 371.894 255.767 371.383ZM281.728 364.82L275.572 371.405L282.44 382.35H275.994L271.793 375.187L270.104 376.967V382.35H264.614V357.879H270.104V370.738L275.305 364.82H281.728ZM104.431 371.806C105.364 371.806 106.12 371.049 106.12 370.115C106.12 369.181 105.364 368.424 104.431 368.424C103.498 368.424 102.742 369.181 102.742 370.115C102.742 371.049 103.498 371.806 104.431 371.806ZM119.589 370.115C119.589 371.049 118.833 371.806 117.9 371.806C116.967 371.806 116.211 371.049 116.211 370.115C116.211 369.181 116.967 368.424 117.9 368.424C118.833 368.424 119.589 369.181 119.589 370.115ZM117.9 385.309C118.833 385.309 119.589 384.552 119.589 383.618C119.589 382.685 118.833 381.928 117.9 381.928C116.967 381.928 116.211 382.685 116.211 383.618C116.211 384.552 116.967 385.309 117.9 385.309Z" fill="#FFF6DA"/>
<path fill-rule="evenodd" clip-rule="evenodd" d="M86.0955 222.214C86.1432 222.871 86.1908 223.528 86.1908 224.138V224.232H86.9533C87.1916 223.904 87.3822 223.598 87.5728 223.293C87.7634 222.988 87.954 222.683 88.1923 222.354C91.5477 217.623 94.994 212.848 98.4057 208.12C99.9363 205.999 101.46 203.887 102.965 201.794C103.251 201.512 103.918 201.043 103.918 201.043H112.687C106.11 210.149 99.6294 219.162 93.2437 228.081C93.2437 228.175 93.4343 228.363 93.4343 228.363C95.1852 229.31 96.9484 230.281 98.724 231.259C101.878 232.996 105.071 234.755 108.302 236.437C108.779 236.719 109.732 236.719 110.209 236.437C114.286 234.084 118.4 231.767 122.527 229.441C125.152 227.962 127.784 226.479 130.414 224.983C131.177 224.514 131.653 223.763 131.653 222.824C131.683 222.065 131.722 221.289 131.761 220.5C131.849 218.749 131.939 216.937 131.939 215.125C131.907 213.617 131.886 212.099 131.865 210.577V210.575V210.573C131.822 207.548 131.78 204.509 131.653 201.512C131.653 200.573 131.558 199.822 131.367 198.696C130.986 199.165 130.891 199.259 130.7 199.447C126.983 204.728 123.105 210.167 119.227 215.607L119.223 215.612L119.207 215.635V215.636L119.191 215.658C117.911 217.454 116.63 219.25 115.355 221.04C114.879 221.697 114.402 221.979 113.64 221.979H106.587C106.444 221.979 106.277 221.932 106.11 221.885C105.943 221.838 105.777 221.791 105.634 221.791C111.08 214.024 116.595 206.326 122.062 198.695C123.005 197.379 123.947 196.065 124.886 194.752C124.77 194.638 124.701 194.539 124.647 194.462C124.569 194.349 124.523 194.283 124.41 194.283C122.789 193.407 121.169 192.51 119.549 191.613C116.308 189.818 113.068 188.024 109.827 186.397C109.16 186.303 108.302 186.303 107.635 186.584C104.817 188.113 101.998 189.694 99.1801 191.275C95.4222 193.382 91.6643 195.49 87.9064 197.475C86.4767 198.32 86.0002 199.353 86.0002 200.761V220.289C86.0002 220.899 86.0479 221.556 86.0955 222.214ZM259.94 216.722C260.035 213.905 258.987 211.933 256.318 210.807C256.369 210.782 256.413 210.763 256.454 210.746C256.566 210.699 256.655 210.663 256.794 210.525C258.891 209.399 259.654 207.427 259.177 205.268C258.701 203.202 257.08 201.982 255.079 201.7C253.621 201.401 252.048 201.369 250.456 201.336C249.551 201.317 248.639 201.299 247.74 201.231H242.879C242.689 201.606 242.689 201.888 242.689 201.888V220.571C242.689 221.51 243.165 221.51 243.832 221.51H252.124C253.363 221.51 254.412 221.51 255.555 221.228C257.938 220.571 259.749 218.693 259.94 216.722ZM249.544 217.515C248.887 217.494 248.224 217.473 247.549 217.473C247.55 216.096 247.554 214.717 247.74 213.248C249.646 213.248 251.648 213.342 253.554 213.529C254.602 213.623 255.27 214.374 255.27 215.501C255.079 216.534 254.316 217.285 253.363 217.473C252.099 217.597 250.835 217.557 249.544 217.515ZM249.265 209.346C248.693 209.326 248.121 209.305 247.549 209.305H247.454V205.268C248.03 205.268 248.616 205.247 249.198 205.226C250.352 205.184 251.492 205.143 252.506 205.268C253.459 205.455 254.412 205.925 254.412 207.145C254.412 208.366 253.935 209.117 252.696 209.305C251.552 209.43 250.409 209.388 249.265 209.346ZM206.138 209.539C206.972 212.238 207.806 214.938 208.664 217.66H208.949C209.807 214.939 210.64 212.241 211.474 209.543L211.475 209.539C212.309 206.84 213.143 204.141 214.001 201.418H216.955C216.295 203.284 215.675 205.15 215.058 207.007L215.057 207.008V207.009C214.339 209.168 213.626 211.315 212.857 213.436C212.578 214.296 212.272 215.145 211.965 215.999C211.434 217.474 210.897 218.966 210.474 220.571C210.229 221.779 209.352 221.743 208.506 221.709C208.366 221.703 208.227 221.697 208.092 221.697C207.329 221.697 206.853 221.416 206.662 220.571C205.232 215.595 203.707 210.807 201.992 205.455C201.325 207.145 200.848 208.741 200.467 210.056C199.895 211.84 199.347 213.577 198.799 215.314V215.315C198.251 217.051 197.703 218.787 197.131 220.571C196.941 221.322 196.464 221.697 195.701 221.697C195.465 221.639 195.191 221.662 194.918 221.685C194.312 221.737 193.707 221.788 193.509 220.946C192.413 217.707 191.365 214.492 190.316 211.276C189.268 208.06 188.22 204.845 187.124 201.606C187.235 201.606 187.282 201.542 187.32 201.488C187.347 201.451 187.37 201.418 187.41 201.418C190.078 201.231 190.269 201.231 191.031 203.765C191.196 204.284 191.36 204.801 191.525 205.318L191.537 205.356L191.542 205.374C192.799 209.326 194.038 213.222 195.13 217.191C195.13 217.28 195.173 217.349 195.229 217.436C195.29 217.532 195.366 217.652 195.416 217.848C196.206 215.2 197.026 212.609 197.843 210.028C198.503 207.942 199.161 205.863 199.8 203.765C199.972 203.3 200.098 202.922 200.201 202.614C200.43 201.928 200.541 201.598 200.77 201.448C200.984 201.309 201.3 201.328 201.91 201.364C202.305 201.388 202.823 201.418 203.517 201.418H203.612C204.47 204.14 205.303 206.838 206.137 209.536V209.537L206.138 209.539ZM296.92 216.534C296.491 216.065 296.062 215.595 295.585 215.126C291.011 218.224 288.151 218.224 285.673 215.314C283.767 213.06 283.958 209.305 285.959 207.146C286.912 206.019 288.151 205.456 289.581 205.268C291.964 204.892 293.87 206.019 295.585 207.709C295.804 207.451 296.022 207.198 296.238 206.947L296.24 206.945C296.966 206.103 297.667 205.291 298.254 204.423C294.251 199.917 286.722 199.823 282.528 203.954C278.43 208.178 278.43 215.314 283.481 219.444C287.865 223.012 294.537 222.449 298.254 217.942C297.777 217.473 297.349 217.003 296.92 216.534ZM150.62 206.488V221.51H147.761V201.512C149.667 201.043 150.906 201.512 151.954 203.014C153.947 205.927 156.113 208.84 158.365 211.869C159.452 213.33 160.559 214.818 161.676 216.346V201.325H164.535V221.228C162.533 221.885 162.057 221.51 160.913 220.007C160.387 219.296 159.862 218.589 159.34 217.886C156.557 214.133 153.84 210.471 151.192 206.676C151.101 206.676 151.031 206.633 150.943 206.578C150.845 206.518 150.724 206.443 150.524 206.394L150.62 206.488ZM173.017 212.685H182.739L182.644 212.591C182.644 211.652 182.644 210.807 182.834 209.68H173.113V203.672H184.073V201.231H170.158V221.322H184.264V218.693H173.017V212.685ZM278.62 201.23L278.811 201.512C279.001 204.078 277.794 205.361 275.189 205.361H272.806V221.322H268.136V205.361H263.275C262.132 205.361 261.846 205.08 261.846 203.953C261.846 202.075 262.799 201.136 264.705 201.136H278.62V201.23ZM218.877 217.488C218.718 217.778 218.551 218.083 218.385 218.412H218.194C221.054 221.04 224.389 222.073 228.106 221.791C230.394 221.51 232.491 220.383 233.253 218.224C234.397 215.126 233.73 212.497 229.822 210.995C228.869 210.619 227.94 210.267 227.011 209.915C226.081 209.563 225.152 209.211 224.199 208.835C223.055 208.366 222.483 207.521 222.769 206.394C223.055 205.643 223.818 204.986 224.485 204.517C224.961 204.235 225.724 204.047 226.391 204.235C227.605 204.414 228.82 204.746 230.059 205.085C230.765 205.278 231.479 205.473 232.205 205.643C232.422 205.268 232.609 204.863 232.817 204.409C232.974 204.068 233.144 203.699 233.348 203.296C230.394 201.606 227.249 200.855 223.818 201.794C221.339 202.357 219.815 204.047 219.624 205.925C219.338 209.211 220.577 210.713 223.246 211.84C223.89 212.064 224.55 212.273 225.219 212.485C226.231 212.806 227.264 213.134 228.297 213.53C229.345 213.999 230.299 214.562 230.489 215.971C230.68 217.473 229.345 218.693 227.344 218.881C224.294 219.069 221.816 217.942 219.624 215.971C219.438 216.459 219.171 216.948 218.877 217.488Z" fill="#FFF6DA"/>
<path d="M150.225 144.662C149.496 144.799 148.757 144.875 148.016 144.889C144.343 144.889 142.846 144.078 142.846 139.723V129.512L139.791 129.059C139.62 129.048 139.459 128.976 139.339 128.855C139.218 128.734 139.145 128.573 139.134 128.403V126.945C139.134 126.771 139.203 126.604 139.326 126.481C139.45 126.358 139.617 126.289 139.791 126.289H142.846V123.627C142.857 123.456 142.929 123.295 143.05 123.174C143.171 123.053 143.332 122.981 143.503 122.971L146.526 122.452H146.657C146.724 122.444 146.792 122.451 146.856 122.473C146.921 122.494 146.979 122.529 147.029 122.575C147.078 122.621 147.117 122.678 147.142 122.74C147.167 122.803 147.179 122.87 147.176 122.938V126.295H150.103C150.277 126.295 150.444 126.365 150.567 126.488C150.69 126.611 150.76 126.778 150.76 126.952V128.869C150.76 129.043 150.69 129.21 150.567 129.333C150.444 129.456 150.277 129.525 150.103 129.525H147.176V139.723C147.176 141.347 147.274 141.541 148.446 141.541H150.169C150.592 141.541 150.851 141.705 150.851 142.03V144.078C150.845 144.403 150.658 144.587 150.225 144.662ZM168.106 136.959H157.508V137.054C157.508 138.942 158.285 141.183 161.41 141.183C163.783 141.183 166.025 140.99 167.39 140.855H167.489C167.817 140.855 168.073 141.019 168.073 141.344V143.491C168.073 144.009 167.974 144.236 167.39 144.334C165.314 144.748 163.198 144.933 161.082 144.886C157.832 144.886 153.205 143.133 153.205 136.726V134.324C153.205 129.253 156.034 126.066 161.01 126.066C165.986 126.066 168.756 129.489 168.756 134.324V136.145C168.756 136.664 168.562 136.959 168.106 136.959ZM164.443 133.772C164.443 131.235 163.045 129.771 161.029 129.771C159.014 129.771 157.551 131.202 157.551 133.772V133.9H164.443V133.772ZM183.384 144.469C182.007 144.773 180.599 144.914 179.19 144.889C174.962 144.889 171.775 142.289 171.775 136.989V133.966C171.775 128.668 174.962 126.066 179.19 126.066C180.6 126.041 182.008 126.183 183.384 126.489C183.936 126.62 184.067 126.817 184.067 127.333V129.446C184.067 129.775 183.807 129.935 183.483 129.935H183.384C181.994 129.754 180.592 129.678 179.19 129.709C177.66 129.709 176.068 130.585 176.068 133.976V136.999C176.068 140.382 177.66 141.265 179.19 141.265C180.592 141.294 181.993 141.218 183.384 141.039H183.483C183.811 141.039 184.067 141.2 184.067 141.525V143.638C184.067 144.144 183.936 144.337 183.384 144.469ZM202.01 144.63H199.021C198.843 144.624 198.676 144.549 198.554 144.421C198.431 144.294 198.363 144.124 198.364 143.947V133.25C198.364 130.424 197.875 129.709 195.695 129.709C194.593 129.709 193.29 130.099 191.924 130.812V143.94C191.925 144.117 191.857 144.287 191.735 144.415C191.612 144.542 191.445 144.617 191.268 144.623H188.278C188.101 144.617 187.933 144.542 187.811 144.415C187.689 144.287 187.62 144.117 187.622 143.94V120.539C187.622 120.364 187.691 120.198 187.813 120.074C187.937 119.951 188.104 119.882 188.278 119.882H191.268C191.442 119.882 191.609 119.951 191.732 120.074C191.855 120.198 191.924 120.364 191.924 120.539V127.27C193.162 126.522 194.527 126.066 196.847 126.066C201.334 126.066 202.667 129.253 202.667 133.25V143.947C202.668 144.124 202.6 144.294 202.477 144.421C202.354 144.549 202.187 144.624 202.01 144.63Z" fill="#FFF6DA"/>
<path d="M214.102 144.889C208.998 144.889 206.333 141.446 206.333 136.795V134.169C206.333 129.519 208.998 126.072 214.102 126.072C219.206 126.072 221.88 129.512 221.88 134.163V136.789C221.88 141.446 219.206 144.889 214.102 144.889ZM217.581 134.163C217.581 131.494 216.38 129.771 214.102 129.771C211.824 129.771 210.623 131.494 210.623 134.163V136.789C210.623 139.454 211.827 141.177 214.102 141.177C216.376 141.177 217.581 139.454 217.581 136.789V134.163ZM232.958 144.889C231.914 144.881 230.871 144.805 229.836 144.662V150.419C229.836 150.593 229.767 150.76 229.644 150.883C229.521 151.007 229.354 151.076 229.18 151.076H226.19C226.016 151.076 225.849 151.007 225.726 150.883C225.603 150.76 225.533 150.593 225.533 150.419V127.789C225.533 127.303 225.665 127.106 226.413 126.913C228.55 126.37 230.744 126.086 232.948 126.066C238.18 126.066 240.717 129.154 240.717 134.225V136.729C240.727 141.8 238.19 144.889 232.958 144.889ZM236.434 134.225C236.434 131.56 235.751 129.578 232.958 129.578C231.913 129.568 230.869 129.644 229.836 129.804V141.15C230.872 141.288 231.914 141.364 232.958 141.38C235.751 141.38 236.434 139.411 236.434 136.729V134.225ZM258.641 136.959H248.039V137.054C248.039 138.942 248.821 141.183 251.942 141.183C254.315 141.183 256.557 140.99 257.922 140.855H258.021C258.349 140.855 258.605 141.019 258.605 141.344V143.491C258.605 144.009 258.51 144.236 257.922 144.334C255.847 144.748 253.733 144.933 251.617 144.886C248.364 144.886 243.74 143.133 243.74 136.726V134.324C243.74 129.253 246.569 126.066 251.545 126.066C256.521 126.066 259.297 129.489 259.297 134.324V136.145C259.297 136.664 259.094 136.959 258.641 136.959ZM254.965 133.772C254.965 131.235 253.566 129.771 251.552 129.771C249.536 129.771 248.072 131.202 248.072 133.772V133.9H254.965V133.772ZM276.614 144.045C274.477 144.585 272.283 144.868 270.079 144.889C264.827 144.889 262.31 141.8 262.31 136.729V134.225C262.31 129.154 264.844 126.066 270.079 126.066C271.123 126.075 272.166 126.152 273.201 126.295V120.539C273.201 120.365 273.27 120.198 273.392 120.074C273.516 119.951 273.683 119.882 273.856 119.882H276.847C277.021 119.882 277.188 119.951 277.311 120.074C277.434 120.198 277.503 120.365 277.503 120.539V143.185C277.493 143.655 277.349 143.852 276.614 144.045ZM273.201 129.817C272.165 129.683 271.123 129.607 270.079 129.591C267.283 129.591 266.6 131.56 266.6 134.238V136.743C266.6 139.408 267.283 141.393 270.079 141.393C271.124 141.404 272.168 141.327 273.201 141.164V129.817ZM285.554 123.857H282.4C282.223 123.857 282.054 123.789 281.927 123.666C281.799 123.544 281.724 123.377 281.717 123.2V120.345C281.724 120.168 281.798 120.001 281.925 119.878C282.053 119.756 282.223 119.688 282.4 119.689H285.554C285.728 119.689 285.895 119.758 286.019 119.881C286.142 120.004 286.211 120.171 286.211 120.345V123.207C286.209 123.38 286.139 123.545 286.016 123.667C285.893 123.789 285.727 123.857 285.554 123.857ZM285.456 144.63H282.463C282.286 144.624 282.119 144.549 281.996 144.421C281.873 144.294 281.805 144.124 281.806 143.947V126.945C281.806 126.771 281.875 126.604 281.999 126.481C282.121 126.358 282.288 126.289 282.463 126.289H285.456C285.63 126.289 285.797 126.358 285.92 126.481C286.043 126.604 286.112 126.771 286.112 126.945V143.947C286.113 144.124 286.045 144.294 285.922 144.421C285.8 144.549 285.633 144.624 285.456 144.63ZM303.366 144.63H300.603C300.429 144.63 300.262 144.56 300.139 144.437C300.015 144.314 299.946 144.147 299.946 143.973V143.455C298.577 144.348 296.986 144.842 295.351 144.882C292.654 144.882 289.729 143.845 289.729 139.454V139.335C289.729 135.627 292.004 133.71 297.662 133.71H299.71V132.276C299.71 130.162 298.768 129.65 296.848 129.65C295.079 129.644 293.311 129.731 291.551 129.909H291.387C291.058 129.909 290.802 129.811 290.802 129.358V127.27C290.802 126.913 290.996 126.683 291.42 126.588C293.208 126.236 295.026 126.062 296.848 126.066C301.466 126.066 304 128.114 304 132.276V143.98C303.999 144.149 303.932 144.311 303.814 144.432C303.696 144.553 303.535 144.624 303.366 144.63ZM299.726 136.569H297.679C294.725 136.569 294.068 137.511 294.068 139.332V139.46C294.068 141.055 294.784 141.475 296.408 141.475C297.572 141.449 298.712 141.137 299.726 140.566V136.569ZM112.231 124.343L111.515 124.602V151.42L120.187 146.589V130.785L129.761 127.31L130.568 127.014L130.627 117.683L112.231 124.343ZM119.878 119.712L120.574 119.964L121.033 120.132L129.961 116.899L121.299 113.656L120.187 114.063L112.247 116.948L119.176 119.459L119.878 119.712Z" fill="#FFF6DA"/>
<path d="M110.119 124.602L109.404 124.343L101.448 121.464V146.589L110.119 151.417V124.602Z" fill="#FFF6DA"/>
<path d="M100.046 120.959L91.0042 117.683L91.0633 127.014L91.8707 127.31L100.046 130.28V120.959Z" fill="#FFF6DA"/>
<path d="M110.117 123.581L110.82 123.837L111.515 123.581L119.622 120.627L119.176 120.467L118.464 120.211L110.836 117.46L101.446 114.063L100.72 113.797L100.333 113.659L91.6717 116.899L110.117 123.581ZM104.19 116.059L106.047 116.83L103.822 117.621L101.964 116.846L104.19 116.059ZM102.877 118.402L104.406 119.039L102.575 119.695L101.052 119.052L102.877 118.402ZM106.815 117.746L108.345 118.382L106.513 119.039L104.984 118.402L106.815 117.746ZM100.77 114.598L102.329 115.238L100.52 115.894L98.9647 115.248L100.77 114.598ZM95.781 117.299L98.9614 116.18L101.613 117.28L98.433 118.402L95.781 117.299ZM97.2218 111.979L95.4626 112.57L96.9396 113.177L98.7021 112.583L97.2218 111.979ZM89.6565 112.442L92.0328 113.416L94.8685 112.465L92.4923 111.493L89.6565 112.442ZM91.5963 114.26L89.5219 113.41L87.0472 114.24L89.1215 115.09L91.5963 114.26ZM89.778 111.487L88.0548 110.781L86.0002 111.47L87.7233 112.176L89.778 111.487ZM93.6082 109.964L92.4726 109.498L91.1236 109.954L92.256 110.417L93.6082 109.964ZM89.3316 108.946L88.1992 108.483L86.847 108.936L87.9826 109.402L89.3316 108.946Z" fill="#FFF6DA"/>
<path fill-rule="evenodd" clip-rule="evenodd" d="M115.1 300.762C112.17 303.728 107.278 305.661 101.933 305.661C93.2223 305.661 86.298 300.989 86.0002 295.28V276.444V276.074C86.0002 270.216 93.0734 265.396 102.008 265.396C107.89 265.396 113.176 267.768 115.782 271.254H136.555L133.949 282.08H123.451L121.217 288.086L132.832 283.266L112.208 313.076L115.1 300.762ZM106.682 303.554L107.835 298.748C106.07 299.185 103.977 299.426 102.008 299.358C95.5304 299.432 90.0952 296.837 87.4893 293.055V294.909C87.6382 299.877 93.9668 304.178 102.008 304.178C103.535 304.112 105.181 303.869 106.682 303.554ZM108.256 296.996L109.49 291.855C107.204 292.716 104.636 293.189 102.008 293.055C95.5304 293.203 90.0952 290.682 87.4893 287.123V288.606C87.6382 293.722 93.9668 297.875 102.008 297.875C104.1 297.875 106.25 297.532 108.256 296.996ZM109.93 290.019L111.133 285.01C108.441 286.231 105.32 287.057 102.082 287.123C95.6048 286.974 90.1697 284.453 87.5637 280.82V282.303C87.7127 287.493 94.0413 291.646 102.082 291.572C104.935 291.64 107.664 291.028 109.93 290.019ZM113.92 271.254H104.316L101.71 282.08H111.836L111.641 282.891C109.095 284.485 105.678 285.507 102.082 285.64C94.0413 285.491 87.7127 281.264 87.5637 276C87.5637 271.031 94.0413 266.804 102.082 266.804C106.847 266.804 111.314 268.51 113.92 271.254ZM116.005 305.29L117.494 297.801L117.42 297.875L108.783 301.582L113.697 280.671H103.571L105.433 272.811H134.693L132.832 280.671H122.706L118.239 291.127L128.365 286.678L116.005 305.29ZM157.997 278.595C157.997 279.781 157.625 280.745 156.88 281.413C156.136 282.08 155.093 282.451 153.753 282.451C152.413 282.451 151.296 282.006 150.552 281.19C149.733 280.375 149.36 279.188 149.36 277.853V275.629C149.36 274.294 149.807 273.182 150.552 272.292C151.371 271.476 152.413 271.031 153.753 271.031C155.093 271.031 156.21 271.402 156.955 271.995C157.774 272.663 158.146 273.627 158.072 274.813H155.912C155.912 274.071 155.763 273.552 155.391 273.182C155.019 272.811 154.498 272.663 153.753 272.663C153.009 272.663 152.562 272.959 152.19 273.478C151.817 273.997 151.594 274.665 151.594 275.555V277.779C151.594 278.595 151.817 279.336 152.19 279.855C152.562 280.375 153.158 280.671 153.828 280.671C154.498 280.671 155.019 280.523 155.317 280.152C155.615 279.781 155.838 279.262 155.838 278.521H157.997V278.595ZM170.357 277.705C170.357 279.04 169.91 280.226 169.091 281.116C168.272 282.006 167.081 282.451 165.74 282.451C164.4 282.451 163.283 282.006 162.39 281.116C161.571 280.226 161.124 279.114 161.124 277.705V275.703C161.124 274.368 161.571 273.256 162.39 272.292C163.209 271.402 164.4 270.957 165.74 270.957C167.081 270.957 168.272 271.402 169.091 272.292C169.984 273.182 170.357 274.294 170.357 275.703V277.705ZM168.123 275.703C168.123 274.813 167.9 274.146 167.453 273.552C167.006 273.033 166.41 272.737 165.666 272.737C164.921 272.737 164.326 273.033 163.879 273.552C163.507 274.071 163.209 274.813 163.209 275.703V277.705C163.209 278.595 163.432 279.336 163.879 279.855C164.251 280.375 164.921 280.671 165.666 280.671C166.41 280.671 167.006 280.375 167.453 279.855C167.9 279.336 168.123 278.595 168.123 277.705V275.703ZM176.164 282.303H173.93V271.179H176.164V282.303ZM189.119 282.303H186.885L182.418 274.813V282.303H180.185V271.179H182.418L186.885 278.669V271.179H189.119V282.303ZM200.436 272.885H197.235V282.303H195.001V272.885H191.874V271.179H200.436V272.885ZM209.743 277.408H205.574V280.597H210.488V282.303H203.34V271.179H210.488V272.885H205.574V275.703H209.743V277.408ZM215.997 280.597H220.986V282.303H213.689V271.179H215.923V280.597H215.997ZM230.59 277.408H226.421V280.597H231.335V282.303H224.187V271.179H231.335V272.885H226.421V275.703H230.59V277.408ZM243.173 280.819C242.801 281.264 242.354 281.635 241.61 282.006C240.939 282.377 240.046 282.525 238.929 282.525C237.589 282.525 236.472 282.08 235.653 281.264C234.834 280.449 234.387 279.336 234.387 278.002V275.629C234.387 274.294 234.834 273.182 235.653 272.366C236.472 271.55 237.589 271.105 238.855 271.105C240.195 271.105 241.312 271.476 241.982 272.069C242.652 272.663 243.099 273.552 243.024 274.665H240.939C240.939 274.071 240.791 273.627 240.418 273.256C240.046 272.885 239.599 272.737 238.929 272.737C238.259 272.737 237.738 273.033 237.291 273.552C236.919 274.071 236.696 274.739 236.696 275.555V277.927C236.696 278.743 236.919 279.485 237.366 280.004C237.812 280.523 238.408 280.819 239.078 280.819C239.599 280.819 240.046 280.819 240.344 280.671C240.642 280.597 240.865 280.449 241.088 280.3V278.15H238.929V276.593H243.322V280.968L243.173 280.819ZM248.98 277.853V282.303H246.747V271.105H250.619C251.884 271.105 252.927 271.402 253.597 271.995C254.341 272.588 254.714 273.404 254.714 274.442C254.714 275.035 254.565 275.48 254.267 275.925C253.969 276.296 253.522 276.667 252.927 276.963C253.597 277.186 254.043 277.483 254.341 277.927C254.639 278.372 254.788 278.966 254.788 279.633V280.449C254.788 280.449 254.788 281.116 254.937 281.413C254.937 281.783 255.16 282.006 255.384 282.154V282.303H253.076C252.852 282.154 252.703 281.858 252.629 281.487C252.629 281.301 252.61 281.116 252.592 280.931C252.573 280.745 252.554 280.56 252.554 280.375V279.559C252.554 279.04 252.405 278.595 252.108 278.298C251.81 278.002 251.363 277.853 250.842 277.853H248.98ZM250.619 276.148H249.055V272.959H250.693C251.289 272.959 251.735 273.107 252.033 273.404C252.331 273.701 252.48 274.071 252.48 274.591C252.48 275.11 252.331 275.48 252.033 275.777C251.735 275.999 251.214 276.148 250.619 276.148ZM260.595 279.93H264.192L264.914 282.303H267.296L263.574 271.179H261.266L257.468 282.303H259.851L260.595 279.93ZM261.266 278.15H263.723L262.531 274.22L261.266 278.15ZM272.359 278.224V282.228H270.126V271.179H274.444C275.71 271.179 276.752 271.55 277.497 272.143C278.241 272.811 278.613 273.701 278.613 274.739C278.613 275.777 278.241 276.667 277.497 277.334C276.752 278.002 275.784 278.298 274.444 278.298H272.434L272.359 278.224ZM272.359 276.519H274.369C274.965 276.519 275.486 276.37 275.784 275.999C276.082 275.629 276.231 275.184 276.231 274.739C276.231 274.22 276.082 273.775 275.784 273.404C275.486 273.033 274.965 272.885 274.369 272.885H272.359V276.519ZM290.824 282.228H288.59V277.631H284.049V282.228H281.815V271.105H284.049V275.925H288.59V271.105H290.824V282.228ZM151.966 300.47H153.381V293.129H155.913V291.943H149.435V293.129H151.966V300.47ZM161.348 300.47H162.762L162.837 300.396V296.169C162.837 294.612 162.018 293.797 160.454 293.797C160.008 293.797 159.635 293.945 159.263 294.093C158.891 294.316 158.444 294.835 158.444 294.835H158.37V293.648V291.349H157.029V300.396H158.37V297.208C158.444 296.392 158.518 295.873 158.816 295.502C159.114 295.131 159.486 294.983 160.082 294.983C160.529 294.983 160.826 295.131 161.05 295.354C161.273 295.576 161.348 295.947 161.348 296.466V300.47ZM165.145 299.655C165.741 300.248 166.485 300.545 167.527 300.545L167.453 300.619C167.699 300.619 167.945 300.596 168.166 300.576C168.346 300.56 168.51 300.545 168.644 300.545C169.017 300.47 169.687 300.174 169.687 300.174V299.061C169.575 299.106 169.471 299.157 169.369 299.207C169.129 299.323 168.905 299.432 168.644 299.432C168.346 299.506 167.974 299.506 167.602 299.506C167.081 299.506 166.56 299.358 166.262 298.987C165.964 298.691 165.741 298.172 165.741 297.578H170.059V296.837C170.059 295.873 169.835 295.205 169.314 294.686C168.868 294.167 168.123 293.871 167.304 293.871C166.411 293.871 165.666 294.167 165.145 294.761C164.624 295.354 164.326 296.169 164.326 297.208C164.326 298.246 164.549 299.061 165.145 299.655ZM166.262 295.28C166.485 295.057 166.857 294.909 167.304 294.909C167.751 294.909 168.123 294.983 168.346 295.28C168.57 295.502 168.719 295.947 168.719 296.466H165.815C165.889 295.947 166.038 295.502 166.262 295.28ZM176.387 294.983H177.877V293.945H176.313V293.574C176.313 293.203 176.387 292.981 176.536 292.758C176.685 292.536 176.909 292.462 177.206 292.462C177.504 292.462 178.174 292.61 178.174 292.61L178.547 291.572C178.1 291.349 177.579 291.349 177.132 291.349C176.387 291.349 175.866 291.498 175.494 291.869C175.122 292.239 174.973 292.833 174.973 293.574V293.945L173.93 294.316V294.983H174.973V300.396H176.387V294.983ZM183.386 299.581L183.61 300.396L183.684 300.47H184.801V294.019H183.386V297.282C183.312 298.097 183.237 298.617 182.939 298.987C182.642 299.358 182.269 299.506 181.674 299.506C181.227 299.506 180.929 299.358 180.706 299.136C180.482 298.839 180.408 298.542 180.408 298.023V294.019H178.993V298.246C178.993 299.061 179.217 299.655 179.589 300.025C180.036 300.396 180.557 300.619 181.376 300.619C181.823 300.619 182.195 300.47 182.567 300.322C182.939 300.1 183.386 299.581 183.386 299.581ZM190.087 299.21C189.715 299.358 189.045 299.358 189.045 299.358H188.97C188.747 299.358 188.449 299.284 188.375 299.136C188.151 298.987 188.151 298.765 188.151 298.394V294.909H190.013V293.871H188.151V292.462H187.332L186.886 293.797L185.918 294.316V294.909H186.811V298.394C186.811 299.729 187.481 300.396 188.747 300.396H189.491C189.715 300.396 190.087 300.248 190.087 300.248V299.21ZM195.671 299.581L195.895 300.396L195.969 300.47H197.086V294.019H195.671V297.282C195.597 298.097 195.522 298.617 195.224 298.987C194.927 299.358 194.554 299.506 193.959 299.506C193.512 299.506 193.214 299.358 192.991 299.136C192.767 298.839 192.693 298.542 192.693 298.023V294.019H191.278V298.246C191.278 299.061 191.502 299.655 191.874 300.025C192.321 300.396 192.842 300.619 193.661 300.619C194.108 300.619 194.48 300.47 194.852 300.322C195.224 300.1 195.671 299.581 195.671 299.581ZM202.893 293.797H202.223L202.149 293.722C201.702 293.722 201.33 293.871 201.032 294.093C200.734 294.316 200.436 294.612 200.213 294.983L200.064 293.871H198.947V300.322H200.287V296.985C200.287 296.392 200.436 295.947 200.809 295.576C201.181 295.205 201.628 295.057 202.149 295.057H202.744L202.893 293.797ZM204.308 299.581C204.904 300.174 205.648 300.47 206.69 300.47L206.616 300.545C206.85 300.545 207.063 300.524 207.266 300.505C207.452 300.487 207.63 300.47 207.807 300.47C208.18 300.396 208.85 300.1 208.85 300.1V298.987C208.738 299.032 208.634 299.083 208.532 299.132C208.293 299.249 208.068 299.358 207.807 299.358C207.509 299.432 207.137 299.432 206.765 299.432C206.244 299.432 205.723 299.284 205.425 298.913C205.127 298.617 204.904 298.097 204.904 297.504H209.222V296.763C209.222 295.799 208.999 295.131 208.477 294.612C208.031 294.093 207.286 293.797 206.467 293.797C205.574 293.797 204.829 294.093 204.308 294.686C203.787 295.28 203.489 296.095 203.489 297.133C203.489 298.172 203.712 298.987 204.308 299.581ZM205.425 295.205C205.648 294.983 206.02 294.835 206.467 294.835C206.914 294.835 207.212 294.909 207.509 295.205C207.733 295.428 207.882 295.873 207.882 296.392H204.978C205.052 295.873 205.127 295.502 205.425 295.205ZM218.827 299.581C219.348 298.987 219.646 298.172 219.646 297.133L219.72 297.059C219.72 296.021 219.422 295.205 218.901 294.612C218.305 294.019 217.561 293.722 216.667 293.722C215.625 293.722 214.88 294.019 214.359 294.612C213.838 295.205 213.54 296.021 213.54 297.059C213.54 297.727 213.689 298.32 213.913 298.839C214.136 299.358 214.434 299.729 214.955 300.025C215.476 300.322 215.997 300.47 216.593 300.47C217.561 300.47 218.305 300.174 218.827 299.581ZM216.593 299.358C215.476 299.358 214.955 298.617 214.955 297.133C214.955 296.392 215.029 295.873 215.327 295.502C215.625 295.131 215.997 294.909 216.593 294.909C217.71 294.909 218.231 295.65 218.231 297.133C218.231 298.617 217.71 299.358 216.593 299.358ZM222.922 300.396V294.983H224.411V293.945H222.847V293.574C222.847 293.203 222.922 292.907 223.07 292.758C223.219 292.536 223.443 292.462 223.741 292.462C224.038 292.462 224.708 292.61 224.708 292.61L225.081 291.572C224.634 291.349 224.113 291.349 223.666 291.349C222.922 291.349 222.4 291.498 222.028 291.869C221.656 292.239 221.507 292.833 221.507 293.574V293.945L220.465 294.316V294.983H221.507V300.396H222.922ZM232.75 300.396H234.164L234.09 300.322H234.164V296.911C234.164 296.169 234.313 295.725 234.536 295.354C234.834 294.983 235.207 294.835 235.728 294.835C236.174 294.835 236.398 294.983 236.621 295.205C236.845 295.502 236.919 295.799 236.919 296.318V300.322H238.259V296.095C238.259 295.28 238.11 294.686 237.738 294.316C237.366 293.945 236.845 293.722 236.026 293.722C235.579 293.722 235.207 293.871 234.834 294.019C234.462 294.167 234.015 294.761 234.015 294.761H233.941C233.569 294.093 232.898 293.722 231.931 293.722C231.558 293.722 231.186 293.797 230.814 293.945C230.441 294.167 229.995 294.686 229.995 294.686L229.771 293.871H228.655V300.322H229.995V297.133C229.995 296.318 230.144 295.799 230.367 295.428C230.665 295.057 231.037 294.909 231.558 294.909C232.005 294.909 232.303 295.057 232.452 295.28C232.675 295.576 232.75 295.873 232.75 296.392V300.396ZM245.109 299.581C245.63 298.987 245.928 298.172 245.928 297.133L246.002 297.059C246.002 296.021 245.705 295.205 245.183 294.612C244.588 294.019 243.843 293.722 242.95 293.722C241.907 293.722 241.163 294.019 240.642 294.612C240.121 295.205 239.823 296.021 239.823 297.059C239.823 297.727 239.972 298.32 240.195 298.839C240.418 299.358 240.791 299.729 241.237 300.025C241.759 300.322 242.28 300.47 242.875 300.47C243.843 300.47 244.588 300.174 245.109 299.581ZM242.875 299.358C241.759 299.358 241.237 298.617 241.237 297.133C241.237 296.392 241.312 295.873 241.61 295.502C241.907 295.131 242.28 294.909 242.875 294.909C243.992 294.909 244.513 295.65 244.513 297.133C244.513 298.617 243.992 299.358 242.875 299.358ZM251.81 300.396H253.225V300.248V296.095C253.225 294.538 252.48 293.722 250.916 293.722C250.47 293.722 250.097 293.797 249.725 293.945C249.353 294.167 248.906 294.686 248.906 294.686L248.683 293.871H247.566V300.322H248.906V297.133C248.906 296.318 249.055 295.799 249.278 295.428C249.502 295.057 249.949 294.909 250.544 294.909C250.991 294.909 251.289 295.057 251.512 295.28C251.735 295.502 251.81 295.873 251.81 296.392V300.396ZM255.607 299.581C256.203 300.174 256.947 300.47 257.99 300.47L257.915 300.545C258.149 300.545 258.362 300.524 258.565 300.505C258.751 300.487 258.929 300.47 259.106 300.47C259.479 300.396 260.149 300.1 260.149 300.1V298.987C260.044 299.029 259.939 299.077 259.835 299.124C259.572 299.243 259.32 299.358 259.106 299.358C258.809 299.432 258.436 299.432 258.064 299.432C257.543 299.432 257.022 299.284 256.724 298.913C256.426 298.617 256.203 298.097 256.203 297.504H260.521V296.763C260.521 295.799 260.298 295.131 259.777 294.612C259.33 294.093 258.585 293.797 257.766 293.797C256.873 293.797 256.128 294.093 255.607 294.686C255.086 295.28 254.788 296.095 254.788 297.133C254.788 298.172 255.011 298.987 255.607 299.581ZM256.649 295.205C256.873 294.983 257.245 294.835 257.692 294.835C258.139 294.835 258.511 294.909 258.734 295.205C258.958 295.428 259.106 295.873 259.106 296.392H256.203C256.277 295.873 256.352 295.502 256.649 295.205ZM260.837 293.945H260.819L260.744 293.722L260.837 293.945ZM260.837 293.945L263.425 300.174L263.201 300.767C262.904 301.583 262.457 301.953 261.787 301.953H261.042V303.066C261.34 303.14 261.638 303.14 261.936 303.14C263.127 303.14 263.946 302.473 264.467 301.138L267.222 293.871H265.733C265.516 294.501 265.321 295.065 265.149 295.563C264.613 297.116 264.3 298.021 264.244 298.246C264.095 298.617 264.02 299.061 264.02 299.061C264.02 298.617 263.872 298.097 263.648 297.578L262.308 293.945H260.837Z" fill="#FFF6DA"/>
<path d="M87.4069 46.3232C88.6292 44.9863 89.737 44.2605 91.2267 43.7639C92.3726 43.3438 94.1678 43 95.2374 43C96.2687 43 97.9112 43.2674 98.8661 43.573C99.821 43.9167 101.234 44.6043 101.998 45.1008C102.8 45.6356 103.87 46.7815 104.366 47.6601C104.863 48.5768 105.398 49.8755 105.742 51.7854H100.776L100.088 50.3339C99.63 49.3789 98.8661 48.6532 97.682 48.042C96.4215 47.3927 95.6575 47.2399 94.6644 47.4309C93.9387 47.5455 92.8691 47.8892 92.258 48.1948C91.685 48.5004 90.8829 49.3025 90.5009 49.9519C90.0807 50.6394 89.5842 52.2437 89.3932 53.5042C89.164 54.9557 89.164 56.7128 89.3932 58.2789C89.5842 59.654 90.0807 61.3347 90.4627 61.984C90.8829 62.6716 91.7232 63.5119 92.3726 63.8175C92.9837 64.123 94.3588 64.3904 95.4283 64.3904C96.9562 64.3904 97.5674 64.1994 98.5605 63.3209C99.2099 62.7479 99.9738 61.7166 100.279 61.0291C100.776 59.845 100.814 59.8068 103.259 59.8068C105.665 59.8068 105.742 59.845 105.512 60.6471C105.36 61.1437 105.054 62.0222 104.825 62.6716C104.557 63.2827 103.87 64.4668 103.221 65.269C102.571 66.1475 101.234 67.1788 100.012 67.7518C98.2931 68.5921 97.4146 68.7831 95.0464 68.7449C92.8309 68.7449 91.7614 68.5157 90.3099 67.79C89.2786 67.2934 87.7507 66.1093 86.9486 65.1544C85.9172 63.9703 85.1915 62.5952 84.6567 60.7617C84.0074 58.5845 83.8928 57.5149 84.0838 55.0321C84.1984 53.3514 84.6185 51.0978 85.0005 50.0665C85.3825 48.9588 86.4138 47.3545 87.4069 46.3232Z" fill="#FFF6DA"/>
<path d="M142.984 51.0214C143.404 50.563 144.359 50.0665 145.085 49.8755C145.81 49.6845 147.033 49.6463 147.758 49.7609C148.484 49.8373 149.707 50.2193 150.394 50.563C151.12 50.9068 152.228 51.8999 152.801 52.7403C153.373 53.5806 154.061 55.1467 154.29 56.178C154.558 57.2094 154.672 59.1192 154.558 60.3797C154.443 61.7166 153.985 63.4737 153.45 64.5432C152.915 65.6891 151.998 66.7969 151.196 67.2934C150.471 67.7518 149.248 68.2483 148.522 68.4011C147.797 68.5539 146.689 68.5539 146.04 68.4393C145.39 68.3247 144.244 67.79 142.029 66.3003V76.6135H137.063V50.2575H139.355C141.38 50.2575 141.647 50.3339 141.647 51.0214C141.647 51.4416 141.762 51.7854 141.914 51.7854C142.105 51.7854 142.564 51.4416 142.984 51.0214Z" fill="#FFF6DA"/>
<path d="M119.569 64.7724C118.805 63.2063 118.729 62.557 118.729 56.6746V50.2575H123.312L123.427 56.5982L123.427 56.6167C123.503 62.8627 123.504 62.9397 124.458 63.6647C124.993 64.0849 125.986 64.4286 126.635 64.3904C127.399 64.3904 128.354 64.0085 130.188 62.4806V50.2575H135.153V59.4248C135.153 65.0398 134.962 69.3561 134.695 70.6166C134.389 71.9917 133.855 73.0612 132.9 74.0543C132.098 74.8947 130.799 75.735 129.806 76.0788C128.851 76.3843 127.399 76.6135 126.559 76.6135C125.719 76.6135 124.42 76.4225 123.694 76.1934C122.969 75.926 121.899 75.4294 121.288 75.0092C120.715 74.6273 119.989 73.8251 119.684 73.1758C119.378 72.5264 118.996 71.3423 118.538 68.9359L120.829 69.0505C122.892 69.1651 123.121 69.2415 123.198 70.0436C123.274 70.502 123.771 71.2277 124.344 71.6479C124.993 72.1445 125.986 72.45 126.826 72.4118C127.972 72.4118 128.507 72.1445 129.233 71.2659C129.959 70.3874 130.188 69.6998 130.188 66.3003L129.004 67.1788C128.163 67.7518 127.17 68.0574 125.681 68.1338C123.962 68.2101 123.16 68.0574 121.975 67.3698C120.982 66.7969 120.142 65.8801 119.569 64.7724Z" fill="#FFF6DA"/>
<path d="M288.133 50.7158C288.744 50.372 289.89 49.99 290.616 49.8372C291.342 49.6844 292.793 49.6463 293.863 49.7226C294.894 49.8372 296.537 50.2956 297.491 50.754C298.446 51.2123 299.631 52.2437 300.242 53.1222C300.853 53.9625 301.502 55.5286 301.731 56.5599C301.999 57.6295 302.075 59.3865 301.922 60.4943C301.808 61.5638 301.426 63.0535 301.082 63.741C300.738 64.3904 300.089 65.3835 299.631 65.8419C299.21 66.3384 298.141 67.1024 297.3 67.5225C296.46 67.9427 295.009 68.4011 294.054 68.4775C293.099 68.5921 291.38 68.4775 290.234 68.1719C288.821 67.8663 287.637 67.2552 286.643 66.3384C285.803 65.5745 284.848 64.2758 284.466 63.4354C284.008 62.4805 283.74 60.9908 283.74 59.4247C283.74 58.0496 283.931 56.2926 284.122 55.5286C284.352 54.7265 285.077 53.466 285.727 52.702C286.414 51.9381 287.522 51.0214 288.133 50.7158Z" fill="#FFF6DA"/>
<path d="M157.04 64.5049C156.697 63.5882 156.544 60.838 156.544 54.2681V45.2917H161.128V50.2574H171.059V53.3132H161.128V57.7058C161.128 60.265 161.319 62.4423 161.548 62.9389C161.815 63.4354 162.197 63.932 162.426 64.0848C162.655 64.2376 163.343 64.3903 163.992 64.3903C164.68 64.3903 165.444 64.0848 165.902 63.5882C166.513 62.9389 166.704 62.0603 167.048 56.3689H171.059V59.6921C171.059 62.4423 170.906 63.359 170.219 64.7723C169.722 65.7272 168.729 66.8732 168.003 67.3697C167.277 67.8281 165.979 68.3247 165.138 68.4392C164.298 68.592 162.77 68.4774 161.701 68.2483C160.631 67.9809 159.294 67.3697 158.683 66.7586C158.072 66.1856 157.308 65.1543 157.04 64.5049Z" fill="#FFF6DA"/>
<path d="M112.464 51.0213C112.999 50.4866 114.107 49.9518 114.871 49.8372C115.635 49.6844 116.475 49.5698 116.704 49.5316C117.048 49.4934 117.201 50.2192 117.201 54.4591H115.673C114.603 54.4591 113.839 54.7265 113.076 55.3758C112.045 56.2914 112.044 56.3306 111.664 67.9755L111.662 68.0191L106.888 68.2101V50.2574H109.179C111.318 50.2574 111.471 50.3338 111.433 51.9763L112.464 51.0213Z" fill="#FFF6DA"/>
<path d="M177.247 50.7921C177.858 50.4866 178.966 50.1046 179.73 49.9136C180.532 49.6844 182.021 49.608 183.091 49.7226C184.122 49.8372 185.765 50.2956 186.72 50.7539C187.675 51.2123 188.859 52.2436 189.47 53.1222C190.081 53.9625 190.769 55.605 190.998 56.7509C191.342 58.3552 191.342 59.4247 190.998 61.1436C190.73 62.5951 190.119 64.0084 189.394 64.9251C188.782 65.7654 187.522 66.835 186.643 67.3315C185.727 67.8281 184.122 68.3247 183.091 68.4392C181.83 68.592 180.455 68.4774 179.08 68.0955C177.782 67.7135 176.483 66.9878 175.681 66.2238C174.955 65.5363 174.076 64.2758 173.694 63.4354C173.198 62.4041 172.969 60.9908 172.969 59.1573C172.969 57.4767 173.198 55.796 173.58 54.9556C173.885 54.1535 174.611 53.0076 175.184 52.4346C175.757 51.8235 176.674 51.0977 177.247 50.7921Z" fill="#FFF6DA"/>
<path d="M192.831 68.2101V55.987V43.7639H198.637C201.846 43.7639 205.169 43.9549 206.009 44.1841C206.926 44.4515 208.186 45.2536 209.103 46.2085C210.287 47.3926 210.784 48.2712 211.089 49.6845C211.318 50.754 211.357 52.2819 211.204 53.1222C211.051 53.9626 210.746 54.9939 210.516 55.4141C210.287 55.8342 209.6 56.6364 208.988 57.2093C208.416 57.7823 207.384 58.4316 206.773 58.6608C206.162 58.9282 203.87 59.2338 197.797 59.6158V68.2101H192.831Z" fill="#FFF6DA"/>
<path d="M233.435 65.3071C232.594 63.8938 232.556 63.4355 232.556 54.5355V45.2918H237.14V50.2574H247.071V53.3132H237.14V58.0879C237.14 62.3659 237.216 62.9389 237.904 63.6265C238.324 64.0466 239.164 64.3904 239.814 64.3904C240.463 64.3904 241.303 64.0466 241.723 63.6265C242.373 62.9771 242.487 62.3659 242.487 56.369H247.071V59.6921C247.071 62.0986 246.842 63.5119 246.384 64.5814C246.002 65.4217 245.161 66.4912 244.55 66.9878C243.939 67.4844 242.755 68.0573 241.914 68.2865C241.074 68.4775 239.623 68.5539 238.668 68.4393C237.713 68.2865 236.338 67.8663 235.612 67.4844C234.886 67.1024 233.893 66.1475 233.435 65.3071Z" fill="#FFF6DA"/>
<path d="M267.774 64.7342C266.972 63.1299 266.934 62.6333 266.934 54.1536V45.2918H271.517V50.2574H281.449V53.3132H271.517L271.594 58.0115C271.708 62.175 271.785 62.8625 272.472 63.5883C272.969 64.0848 273.695 64.3904 274.458 64.3904C275.375 64.3904 275.91 64.0848 276.483 63.3209C277.132 62.4805 277.247 61.7166 277.247 56.369H281.449V59.7685C281.449 61.7548 281.219 63.741 280.952 64.4668C280.646 65.1543 279.921 66.1857 279.31 66.7586C278.66 67.3316 277.361 67.9809 276.292 68.2101C275.222 68.4775 273.695 68.5539 272.854 68.4393C272.014 68.3247 270.715 67.8281 269.989 67.3316C269.264 66.8732 268.271 65.6891 267.774 64.7342Z" fill="#FFF6DA"/>
<path d="M216.59 50.754C217.201 50.4484 218.309 50.0665 219.073 49.8755C219.875 49.6463 221.364 49.5699 222.434 49.6845C223.465 49.7991 225.108 50.2574 226.063 50.7158C227.018 51.1742 228.202 52.2055 228.813 53.084C229.386 53.9244 230.073 55.4905 230.303 56.5218C230.57 57.5913 230.646 59.3484 230.493 60.4561C230.379 61.5256 229.997 63.0153 229.653 63.7029C229.309 64.3522 228.66 65.3453 228.202 65.8037C227.781 66.3003 226.712 67.0642 225.872 67.4844C225.031 67.9045 223.58 68.3629 222.625 68.4393C221.67 68.5539 219.951 68.4393 218.805 68.1337C217.201 67.7518 216.284 67.2552 214.909 65.9183C213.801 64.8106 212.999 63.5883 212.732 62.6333C212.503 61.793 212.312 60.1505 212.312 59.0046C212.312 57.8587 212.503 56.2544 212.694 55.4905C212.885 54.6883 213.649 53.4278 214.298 52.6639C214.985 51.8999 216.017 51.0214 216.59 50.754Z" fill="#FFF6DA"/>
<path d="M250.776 51.6325C251.349 51.0596 252.686 50.2956 253.756 50.0283C254.978 49.6463 256.544 49.5317 258.148 49.6845C259.523 49.7991 261.128 50.181 261.739 50.5248C262.35 50.8686 263.19 51.6707 263.649 52.2437C264.374 53.2368 264.451 53.8862 264.642 68.1719H262.541C260.746 68.1719 260.402 68.0573 260.249 67.408C260.058 66.644 260.058 66.644 258.798 67.408C258.148 67.8281 256.62 68.2865 255.474 68.4011C254.099 68.5539 252.839 68.4393 251.846 68.0573C250.891 67.7518 249.974 67.026 249.439 66.2239C248.905 65.4217 248.561 64.3522 248.599 63.5119C248.599 62.7097 248.866 61.4492 249.172 60.7235C249.477 59.9977 250.127 59.1192 250.585 58.8136C251.082 58.508 253.183 57.8969 255.283 57.4385C257.384 57.0183 259.332 56.4454 259.6 56.2162C259.867 55.9488 260.096 55.4523 260.058 55.1085C260.058 54.7265 259.676 54.1536 259.18 53.848C258.721 53.5424 257.69 53.275 256.888 53.275C255.856 53.275 255.169 53.5424 254.481 54.2299C253.985 54.7647 253.565 55.3759 253.565 55.5668C253.565 55.796 252.571 55.9488 249.172 55.9488L249.439 54.3445C249.63 53.3132 250.127 52.2819 250.776 51.6325Z" fill="#FFF6DA"/>
<path d="M142.793 55.1084C143.251 54.4973 143.977 53.8479 144.435 53.6951C144.894 53.5042 145.39 53.3514 145.543 53.3514C145.734 53.3132 146.46 53.5805 147.185 53.8861C147.911 54.1917 148.713 54.8411 148.981 55.2994C149.21 55.796 149.554 56.7891 149.706 57.5149C149.859 58.2406 149.859 59.6921 149.63 60.7616C149.401 61.9839 148.942 62.9771 148.331 63.5118C147.644 64.1612 146.918 64.3904 145.657 64.3904C144.206 64.3904 143.786 64.1994 142.984 63.2444C142.449 62.6333 141.914 61.3728 141.8 60.4942C141.647 59.5775 141.647 58.2406 141.761 57.5149C141.914 56.7891 142.373 55.6814 142.793 55.1084Z" fill="#F0B90B"/>
<path d="M288.553 57.5149C288.744 56.4071 289.203 55.414 289.89 54.7647C290.692 53.9625 291.303 53.6951 292.487 53.6951C293.366 53.6951 294.512 53.9243 295.085 54.2299C295.696 54.4973 296.384 55.1848 296.613 55.7578C296.88 56.2926 297.109 57.8204 297.109 59.1573C297.109 60.838 296.88 61.8693 296.345 62.7479C295.811 63.6264 295.161 64.123 294.13 64.3522C293.328 64.5813 292.22 64.5813 291.571 64.3904C290.921 64.1994 290.119 63.741 289.737 63.359C289.394 62.9771 288.897 61.9075 288.706 60.9526C288.477 59.9977 288.4 58.4698 288.553 57.5149Z" fill="#F0B90B"/>
<path d="M290.692 57.3239C290.96 56.5982 291.418 55.8342 291.762 55.6051C292.067 55.4141 292.564 55.2231 292.793 55.2231C293.061 55.2231 293.71 55.6433 294.245 56.178C294.856 56.7892 295.2 57.5531 295.2 58.3935C295.238 59.0428 294.894 60.0741 294.436 60.6853C293.863 61.4492 293.404 61.6784 292.602 61.6402C291.838 61.5638 291.418 61.1818 290.883 60.1123C290.349 58.89 290.31 58.4698 290.692 57.3239Z" fill="#FFF6DA"/>
<path d="M197.797 55.2231L197.835 51.5562L197.873 47.8893L201.502 48.0421C204.902 48.1567 205.169 48.2331 206.048 49.2262C206.582 49.7991 206.964 50.7541 206.964 51.4034C206.964 52.0528 206.773 52.8931 206.582 53.3133C206.353 53.7335 205.666 54.3446 205.054 54.6502C204.329 55.0322 202.801 55.2231 197.797 55.2231Z" fill="#F0B90B"/>
<path d="M177.782 57.515C177.934 56.4073 178.431 55.4141 179.118 54.7648C179.921 53.9626 180.532 53.6953 181.716 53.6953C182.594 53.6953 183.702 53.9244 184.237 54.1918C184.772 54.421 185.459 55.2231 185.765 55.9107C186.07 56.56 186.338 58.1261 186.338 59.3484C186.338 60.8381 186.109 61.9077 185.574 62.7862C185.039 63.6265 184.352 64.1231 183.358 64.3905C182.594 64.5815 181.449 64.6197 180.837 64.4669C180.226 64.3141 179.348 63.7793 178.889 63.2446C178.431 62.7098 177.934 61.6021 177.782 60.7617C177.629 59.9214 177.629 58.4699 177.782 57.515Z" fill="#F0B90B"/>
<path d="M217.239 57.2476C217.468 56.3309 218.08 55.1849 218.614 54.6502C219.302 53.9626 219.951 53.6953 221.097 53.6953C221.938 53.6953 223.083 53.9244 223.656 54.23C224.268 54.4974 224.955 55.1849 225.184 55.7579C225.452 56.2927 225.681 57.7824 225.681 59.0429C225.681 60.3034 225.413 61.8313 225.108 62.4806C224.802 63.13 224.191 63.8175 223.771 64.0085C223.351 64.2377 222.243 64.3905 221.288 64.3905C219.913 64.3905 219.34 64.1613 218.5 63.3591C217.761 62.6461 217.303 61.7167 217.125 60.5708C216.972 59.6158 217.01 58.1261 217.239 57.2476Z" fill="#F0B90B"/>
<path d="M255.857 60.6471C256.812 60.3798 257.996 59.9978 258.53 59.845C259.065 59.654 259.6 59.5012 259.753 59.463C259.944 59.463 260.058 59.9596 260.058 60.5708C260.058 61.2201 259.867 62.1368 259.676 62.6716C259.447 63.2064 258.721 63.9703 258.034 64.3905C257.385 64.8106 256.239 65.1544 255.551 65.1544C254.673 65.1544 254.138 64.887 253.641 64.1613C253.068 63.2446 253.03 63.0536 253.565 62.1368C253.947 61.4875 254.749 60.9909 255.857 60.6471Z" fill="#F0B90B"/>
<path d="M179.615 58.0879C179.768 57.4767 180.15 56.6364 180.494 56.2926C180.838 55.9106 181.525 55.605 181.983 55.605C182.556 55.605 183.206 56.0252 183.664 56.6746C184.122 57.2475 184.466 58.1643 184.428 58.7754C184.428 59.3484 184.275 60.1505 184.046 60.5707C183.817 60.9908 183.32 61.5256 182.9 61.7166C182.48 61.9076 181.792 62.0222 181.372 61.9076C180.952 61.793 180.341 61.1436 179.997 60.4943C179.615 59.6921 179.462 58.8136 179.615 58.0879Z" fill="#FFF6DA"/>
<path d="M362.5 101.577L368.5 105.041V111.97L362.5 115.434L356.5 111.97V105.041L362.5 101.577Z" stroke="#FFE8A0"/>
<path d="M366.389 110.806V106.205L362.405 103.905L358.421 106.205V110.806L362.405 113.106L366.389 110.806Z" fill="#FFE8A0"/>
<path d="M323 198.577L330.5 202.907V211.568L323 215.898L315.5 211.568V202.907L323 198.577Z" stroke="#FFE8A0"/>
<path d="M327.786 210.068V204.407L322.883 201.576L317.98 204.407V210.068L322.883 212.899L327.786 210.068Z" fill="#FFE8A0"/>
<path d="M479.006 674.143L321.5 589M479.006 674.143L539.234 749.5L321.5 589M479.006 674.143L527.078 432.607M321.5 589L527.078 432.607M321.5 589L337 472.5L378 377M527.078 432.607L337 200.488M527.078 432.607L378 377M527.078 432.607L464.087 236.774M337 200.488L539.234 83.0437M337 200.488L378 377M337 200.488L464.087 236.774M337 200.488L378 101.5M539.234 83.0437L464.087 236.774M539.234 83.0437L487.049 37.8941M487.049 37.8941L367.996 -174L321.5 -13M487.049 37.8941L321.5 -13M487.049 37.8941L378 101.5M321.5 -13L378 101.5" stroke="#FFE8A0"/>
<path d="M30.5 638.5L-117 550.328M30.5 638.5L-12.0727 674.143L-117 550.328M30.5 638.5L78.5 587L78.5 419.5M-117 550.328L78.5 419.5M-117 550.328L-12.0727 386.903M78.5 419.5L-110.516 200.488M78.5 419.5L-12.0727 386.903M78.5 419.5L30.5 240M-110.516 200.488L78.5 82.9999M-110.516 200.488L-12.0727 386.903M-110.516 200.488L30.5 240M-110.516 200.488L-27.3992 104.926M78.5 82.9999L30.5 240M78.5 82.9999L63 -22.0001M63 -22.0001L-77.4485 -174L-86.9065 25.6284M63 -22.0001L-86.9065 25.6284M63 -22.0001L-27.3992 104.926M-86.9065 25.6284L-27.3992 104.926" stroke="#FFE8A0"/>
</g>
</svg>
