<svg width="1447" height="379" viewBox="0 0 1447 379" fill="none" xmlns="http://www.w3.org/2000/svg">
<g clip-path="url(#clip0_29_1036)">
<path d="M264.398 62.1315L265.069 62.2829L265.738 62.1227L427.869 23.3241L510.487 75.0202L511.717 75.7899L513.077 75.2942L613.295 38.7822H731.519H731.977L732.413 38.6437L844.488 3.14465L985.197 75.1472L986.161 75.6403L987.214 75.3979L1146.54 38.7065L1146.57 38.6997L1146.6 38.6922L1288.21 3L1441 38.1691V379H4V23.1162H91.3589L264.398 62.1315Z" fill="#F0B90C" stroke="url(#paint0_linear_29_1036)" stroke-width="6"/>
<path d="M243.94 190.192L405.098 378M243.94 190.192L1 114.241L405.098 378M243.94 190.192L593.116 64.6974M405.098 378L643.227 209.005M405.098 378L610.354 209.005M593.116 64.6974L792.359 302.753M593.116 64.6974L643.227 209.005M593.116 64.6974L741.445 115.437L852.492 156.324M593.116 64.6974L610.354 209.005M643.227 209.005L792.359 302.753M643.227 209.005H610.354M792.359 302.753L1018.06 86.0851M792.359 302.753L852.492 156.324M792.359 302.753L1067.77 271.02M852.492 156.324L1018.06 86.0851M1018.06 86.0851L1164.79 180.049M1067.77 271.02L1164.79 180.049M1067.77 271.02L1191.65 302.753M1164.79 180.049L1441 57.8008L1191.65 302.753M1164.79 180.049L1191.65 302.753" stroke="#FFE8A0"/>
</g>
<defs>
<linearGradient id="paint0_linear_29_1036" x1="1117.32" y1="-19.382" x2="1115.28" y2="126.559" gradientUnits="userSpaceOnUse">
<stop offset="0.0962037" stop-color="#FFF1C7"/>
<stop offset="0.394225" stop-color="#FFE8A0" stop-opacity="0"/>
</linearGradient>
<clipPath id="clip0_29_1036">
<rect width="1447" height="379" fill="white"/>
</clipPath>
</defs>
</svg>
