<svg width="20" height="18" viewBox="0 0 20 18" fill="none" xmlns="http://www.w3.org/2000/svg">
<path fill-rule="evenodd" clip-rule="evenodd" d="M15.32 16.8394C15.5883 17.0332 15.9341 17.0816 16.2425 16.9626C16.5508 16.8428 16.7775 16.5742 16.8458 16.2486C17.5699 12.7772 19.3266 3.99078 19.9857 0.833026C20.0357 0.595026 19.9524 0.347676 19.7691 0.188726C19.5857 0.0297757 19.3316 -0.0161245 19.1049 0.0697256C15.6108 1.38893 4.85022 5.50718 0.451988 7.16723C0.172828 7.27263 -0.00883492 7.54633 0.000331537 7.84638C0.0103313 8.14728 0.20866 8.40824 0.494487 8.49579C2.46694 9.09759 5.05605 9.93484 5.05605 9.93484C5.05605 9.93484 6.26602 13.6621 6.89684 15.5576C6.97601 15.7956 7.1585 15.9826 7.39933 16.0472C7.63932 16.1109 7.89599 16.0438 8.07515 15.8712C9.08846 14.8954 10.6551 13.3867 10.6551 13.3867C10.6551 13.3867 13.6317 15.6128 15.32 16.8394ZM6.14519 9.46394L7.54433 14.1712L7.85515 11.1903C7.85515 11.1903 13.2609 6.21693 16.3425 3.38218C16.4325 3.29888 16.445 3.15948 16.37 3.06173C16.2958 2.96398 16.1591 2.94103 16.0566 3.00733C12.485 5.33378 6.14519 9.46394 6.14519 9.46394Z" fill="#F0B90B"/>
</svg>
