<svg width="27" height="31" viewBox="0 0 27 31" fill="none" xmlns="http://www.w3.org/2000/svg">
<path d="M26.9141 23.25V7.75L13.4571 0L0 7.75V23.25L13.4571 31L26.9141 23.25Z" fill="#F0B90B"/>
<path fill-rule="evenodd" clip-rule="evenodd" d="M9.89845 6.36229L12.0952 5.15771V8.42875H14.2408V5.15771L16.4376 6.36229V8.5489L16.8054 8.66904C17.0097 8.73632 17.3469 8.8853 17.5615 9.00063C17.8118 9.14 18.1081 9.36587 18.4299 9.67344C18.7569 9.981 18.9868 10.2549 19.1298 10.4952C19.2473 10.6922 19.4006 11.019 19.4721 11.2161C19.5436 11.4131 19.6254 11.7399 19.6611 11.9369C19.6969 12.1436 19.7071 12.4896 19.6918 12.7539C19.6713 13.023 19.61 13.3835 19.5283 13.6334C19.4568 13.864 19.3393 14.1668 19.2678 14.3013C19.1911 14.4407 19.0634 14.6522 18.9766 14.7723C18.8897 14.8925 18.7467 15.0751 18.481 15.373L18.8029 15.6421C18.9766 15.7863 19.232 16.0458 19.3699 16.2188C19.5079 16.387 19.7071 16.6994 19.8144 16.9109C19.9217 17.1223 20.0596 17.4683 20.1209 17.6798C20.2026 17.9729 20.2282 18.2036 20.2282 18.6649C20.2282 19.1263 20.2026 19.357 20.1209 19.6501C20.0596 19.8616 19.9319 20.198 19.8297 20.395C19.7275 20.592 19.5487 20.8852 19.4261 21.0438C19.3086 21.2024 19.0736 21.4523 18.9101 21.6012C18.7416 21.7454 18.4912 21.9376 18.3533 22.0289C18.2154 22.1203 17.9344 22.2644 17.7403 22.3509C17.541 22.4374 17.1681 22.5576 16.4376 22.7258V24.8163L14.2408 25.921V22.7498H12.0952V25.921L9.89845 24.8163V22.7498H6.62891V20.7314L8.80009 20.7074V10.4712L6.62891 10.4472V8.42875H9.89845V6.36229ZM10.9917 12.5617L10.9968 14.5561C14.5678 14.5801 15.4567 14.5657 15.6713 14.532C15.8552 14.5032 16.1259 14.4263 16.2741 14.359C16.4171 14.2965 16.6674 14.1283 16.8258 13.989C16.9791 13.8544 17.163 13.6526 17.2294 13.5468C17.2907 13.4411 17.3827 13.2345 17.4286 13.0903C17.4746 12.9461 17.5104 12.6866 17.5104 12.5136C17.5104 12.3406 17.4746 12.0811 17.4286 11.9369C17.3827 11.7928 17.2907 11.5861 17.2294 11.4804C17.163 11.3747 16.9893 11.1776 16.836 11.0431C16.6879 10.9085 16.4631 10.7499 16.3354 10.6874C16.2077 10.6298 15.9573 10.5481 15.7734 10.5144C15.5231 10.4664 14.8947 10.4472 13.2293 10.4472C11.5026 10.4472 11.0173 10.4616 11.0019 10.5096C10.9917 10.5385 10.9866 11.466 10.9917 12.5617ZM10.9917 18.713L10.9968 20.7074C16.1208 20.7074 16.2741 20.7026 16.5653 20.6113C16.7339 20.5584 16.9842 20.4383 17.1221 20.3469C17.26 20.2556 17.4695 20.0682 17.587 19.9385C17.7045 19.8039 17.8527 19.5684 17.9191 19.4098C18.0161 19.1792 18.0417 19.035 18.0417 18.6649C18.0417 18.2949 18.0161 18.1507 17.9191 17.9201C17.8527 17.7615 17.7045 17.526 17.5921 17.3962C17.4746 17.2665 17.2805 17.0887 17.1528 17.0022C17.025 16.9157 16.7849 16.7955 16.6164 16.733C16.3149 16.6225 16.2792 16.6225 13.6687 16.6081C11.5332 16.5985 11.0224 16.6081 11.0019 16.6562C10.9917 16.6898 10.9866 17.6173 10.9917 18.713Z" fill="#130F01"/>
</svg>
